G04 #@! TF.GenerationSoftware,KiCad,Pcbnew,5.1.5-52549c5~84~ubuntu18.04.1*
G04 #@! TF.CreationDate,2020-01-17T22:36:35+01:00*
G04 #@! TF.ProjectId,VFD,5646442e-6b69-4636-9164-5f7063625858,rev?*
G04 #@! TF.SameCoordinates,Original*
G04 #@! TF.FileFunction,Legend,Top*
G04 #@! TF.FilePolarity,Positive*
%FSLAX46Y46*%
G04 Gerber Fmt 4.6, Leading zero omitted, Abs format (unit mm)*
G04 Created by KiCad (PCBNEW 5.1.5-52549c5~84~ubuntu18.04.1) date 2020-01-17 22:36:35*
%MOMM*%
%LPD*%
G04 APERTURE LIST*
%ADD10C,0.150000*%
%ADD11C,0.125000*%
%ADD12C,0.120000*%
G04 APERTURE END LIST*
D10*
X283337000Y-34036000D02*
X283337000Y-124968000D01*
X199517000Y-34036000D02*
X283337000Y-34036000D01*
X199517000Y-124968000D02*
X199517000Y-34036000D01*
X283337000Y-124968000D02*
X199517000Y-124968000D01*
X211789166Y-81415000D02*
X211693928Y-81367380D01*
X211551071Y-81367380D01*
X211408214Y-81415000D01*
X211312976Y-81510238D01*
X211265357Y-81605476D01*
X211217738Y-81795952D01*
X211217738Y-81938809D01*
X211265357Y-82129285D01*
X211312976Y-82224523D01*
X211408214Y-82319761D01*
X211551071Y-82367380D01*
X211646309Y-82367380D01*
X211789166Y-82319761D01*
X211836785Y-82272142D01*
X211836785Y-81938809D01*
X211646309Y-81938809D01*
X212170119Y-81367380D02*
X212836785Y-81367380D01*
X212170119Y-82367380D01*
X212836785Y-82367380D01*
X213074880Y-81367380D02*
X213646309Y-81367380D01*
X213360595Y-82367380D02*
X213360595Y-81367380D01*
X213979642Y-81986428D02*
X214741547Y-81986428D01*
X215217738Y-81700714D02*
X215217738Y-82700714D01*
X215217738Y-81748333D02*
X215312976Y-81700714D01*
X215503452Y-81700714D01*
X215598690Y-81748333D01*
X215646309Y-81795952D01*
X215693928Y-81891190D01*
X215693928Y-82176904D01*
X215646309Y-82272142D01*
X215598690Y-82319761D01*
X215503452Y-82367380D01*
X215312976Y-82367380D01*
X215217738Y-82319761D01*
X216122500Y-82367380D02*
X216122500Y-81700714D01*
X216122500Y-81891190D02*
X216170119Y-81795952D01*
X216217738Y-81748333D01*
X216312976Y-81700714D01*
X216408214Y-81700714D01*
X216884404Y-82367380D02*
X216789166Y-82319761D01*
X216741547Y-82272142D01*
X216693928Y-82176904D01*
X216693928Y-81891190D01*
X216741547Y-81795952D01*
X216789166Y-81748333D01*
X216884404Y-81700714D01*
X217027261Y-81700714D01*
X217122500Y-81748333D01*
X217170119Y-81795952D01*
X217217738Y-81891190D01*
X217217738Y-82176904D01*
X217170119Y-82272142D01*
X217122500Y-82319761D01*
X217027261Y-82367380D01*
X216884404Y-82367380D01*
X217646309Y-81700714D02*
X217646309Y-82557857D01*
X217598690Y-82653095D01*
X217503452Y-82700714D01*
X217455833Y-82700714D01*
X217646309Y-81367380D02*
X217598690Y-81415000D01*
X217646309Y-81462619D01*
X217693928Y-81415000D01*
X217646309Y-81367380D01*
X217646309Y-81462619D01*
X218503452Y-82319761D02*
X218408214Y-82367380D01*
X218217738Y-82367380D01*
X218122500Y-82319761D01*
X218074880Y-82224523D01*
X218074880Y-81843571D01*
X218122500Y-81748333D01*
X218217738Y-81700714D01*
X218408214Y-81700714D01*
X218503452Y-81748333D01*
X218551071Y-81843571D01*
X218551071Y-81938809D01*
X218074880Y-82034047D01*
X219408214Y-82319761D02*
X219312976Y-82367380D01*
X219122500Y-82367380D01*
X219027261Y-82319761D01*
X218979642Y-82272142D01*
X218932023Y-82176904D01*
X218932023Y-81891190D01*
X218979642Y-81795952D01*
X219027261Y-81748333D01*
X219122500Y-81700714D01*
X219312976Y-81700714D01*
X219408214Y-81748333D01*
X219693928Y-81700714D02*
X220074880Y-81700714D01*
X219836785Y-81367380D02*
X219836785Y-82224523D01*
X219884404Y-82319761D01*
X219979642Y-82367380D01*
X220074880Y-82367380D01*
X220455833Y-82319761D02*
X220455833Y-82367380D01*
X220408214Y-82462619D01*
X220360595Y-82510238D01*
X221598690Y-81462619D02*
X221646309Y-81415000D01*
X221741547Y-81367380D01*
X221979642Y-81367380D01*
X222074880Y-81415000D01*
X222122500Y-81462619D01*
X222170119Y-81557857D01*
X222170119Y-81653095D01*
X222122500Y-81795952D01*
X221551071Y-82367380D01*
X222170119Y-82367380D01*
X222789166Y-81367380D02*
X222884404Y-81367380D01*
X222979642Y-81415000D01*
X223027261Y-81462619D01*
X223074880Y-81557857D01*
X223122500Y-81748333D01*
X223122500Y-81986428D01*
X223074880Y-82176904D01*
X223027261Y-82272142D01*
X222979642Y-82319761D01*
X222884404Y-82367380D01*
X222789166Y-82367380D01*
X222693928Y-82319761D01*
X222646309Y-82272142D01*
X222598690Y-82176904D01*
X222551071Y-81986428D01*
X222551071Y-81748333D01*
X222598690Y-81557857D01*
X222646309Y-81462619D01*
X222693928Y-81415000D01*
X222789166Y-81367380D01*
X223503452Y-81462619D02*
X223551071Y-81415000D01*
X223646309Y-81367380D01*
X223884404Y-81367380D01*
X223979642Y-81415000D01*
X224027261Y-81462619D01*
X224074880Y-81557857D01*
X224074880Y-81653095D01*
X224027261Y-81795952D01*
X223455833Y-82367380D01*
X224074880Y-82367380D01*
X224693928Y-81367380D02*
X224789166Y-81367380D01*
X224884404Y-81415000D01*
X224932023Y-81462619D01*
X224979642Y-81557857D01*
X225027261Y-81748333D01*
X225027261Y-81986428D01*
X224979642Y-82176904D01*
X224932023Y-82272142D01*
X224884404Y-82319761D01*
X224789166Y-82367380D01*
X224693928Y-82367380D01*
X224598690Y-82319761D01*
X224551071Y-82272142D01*
X224503452Y-82176904D01*
X224455833Y-81986428D01*
X224455833Y-81748333D01*
X224503452Y-81557857D01*
X224551071Y-81462619D01*
X224598690Y-81415000D01*
X224693928Y-81367380D01*
X215900238Y-85050380D02*
X216233571Y-86050380D01*
X216566904Y-85050380D01*
X218185952Y-86050380D02*
X217614523Y-86050380D01*
X217900238Y-86050380D02*
X217900238Y-85050380D01*
X217805000Y-85193238D01*
X217709761Y-85288476D01*
X217614523Y-85336095D01*
X218614523Y-85955142D02*
X218662142Y-86002761D01*
X218614523Y-86050380D01*
X218566904Y-86002761D01*
X218614523Y-85955142D01*
X218614523Y-86050380D01*
X219281190Y-85050380D02*
X219376428Y-85050380D01*
X219471666Y-85098000D01*
X219519285Y-85145619D01*
X219566904Y-85240857D01*
X219614523Y-85431333D01*
X219614523Y-85669428D01*
X219566904Y-85859904D01*
X219519285Y-85955142D01*
X219471666Y-86002761D01*
X219376428Y-86050380D01*
X219281190Y-86050380D01*
X219185952Y-86002761D01*
X219138333Y-85955142D01*
X219090714Y-85859904D01*
X219043095Y-85669428D01*
X219043095Y-85431333D01*
X219090714Y-85240857D01*
X219138333Y-85145619D01*
X219185952Y-85098000D01*
X219281190Y-85050380D01*
D11*
X209333666Y-87311666D02*
X209333666Y-86611666D01*
X209633666Y-87311666D02*
X209633666Y-86945000D01*
X209600333Y-86878333D01*
X209533666Y-86845000D01*
X209433666Y-86845000D01*
X209367000Y-86878333D01*
X209333666Y-86911666D01*
X209867000Y-86845000D02*
X210133666Y-86845000D01*
X209967000Y-86611666D02*
X209967000Y-87211666D01*
X210000333Y-87278333D01*
X210067000Y-87311666D01*
X210133666Y-87311666D01*
X210267000Y-86845000D02*
X210533666Y-86845000D01*
X210367000Y-86611666D02*
X210367000Y-87211666D01*
X210400333Y-87278333D01*
X210467000Y-87311666D01*
X210533666Y-87311666D01*
X210767000Y-86845000D02*
X210767000Y-87545000D01*
X210767000Y-86878333D02*
X210833666Y-86845000D01*
X210967000Y-86845000D01*
X211033666Y-86878333D01*
X211067000Y-86911666D01*
X211100333Y-86978333D01*
X211100333Y-87178333D01*
X211067000Y-87245000D01*
X211033666Y-87278333D01*
X210967000Y-87311666D01*
X210833666Y-87311666D01*
X210767000Y-87278333D01*
X211367000Y-87278333D02*
X211433666Y-87311666D01*
X211567000Y-87311666D01*
X211633666Y-87278333D01*
X211667000Y-87211666D01*
X211667000Y-87178333D01*
X211633666Y-87111666D01*
X211567000Y-87078333D01*
X211467000Y-87078333D01*
X211400333Y-87045000D01*
X211367000Y-86978333D01*
X211367000Y-86945000D01*
X211400333Y-86878333D01*
X211467000Y-86845000D01*
X211567000Y-86845000D01*
X211633666Y-86878333D01*
X211967000Y-87245000D02*
X212000333Y-87278333D01*
X211967000Y-87311666D01*
X211933666Y-87278333D01*
X211967000Y-87245000D01*
X211967000Y-87311666D01*
X211967000Y-86878333D02*
X212000333Y-86911666D01*
X211967000Y-86945000D01*
X211933666Y-86911666D01*
X211967000Y-86878333D01*
X211967000Y-86945000D01*
X212800333Y-86578333D02*
X212200333Y-87478333D01*
X213533666Y-86578333D02*
X212933666Y-87478333D01*
X214067000Y-86845000D02*
X214067000Y-87411666D01*
X214033666Y-87478333D01*
X214000333Y-87511666D01*
X213933666Y-87545000D01*
X213833666Y-87545000D01*
X213767000Y-87511666D01*
X214067000Y-87278333D02*
X214000333Y-87311666D01*
X213867000Y-87311666D01*
X213800333Y-87278333D01*
X213767000Y-87245000D01*
X213733666Y-87178333D01*
X213733666Y-86978333D01*
X213767000Y-86911666D01*
X213800333Y-86878333D01*
X213867000Y-86845000D01*
X214000333Y-86845000D01*
X214067000Y-86878333D01*
X214400333Y-87311666D02*
X214400333Y-86845000D01*
X214400333Y-86611666D02*
X214367000Y-86645000D01*
X214400333Y-86678333D01*
X214433666Y-86645000D01*
X214400333Y-86611666D01*
X214400333Y-86678333D01*
X214633666Y-86845000D02*
X214900333Y-86845000D01*
X214733666Y-86611666D02*
X214733666Y-87211666D01*
X214767000Y-87278333D01*
X214833666Y-87311666D01*
X214900333Y-87311666D01*
X215133666Y-87311666D02*
X215133666Y-86611666D01*
X215433666Y-87311666D02*
X215433666Y-86945000D01*
X215400333Y-86878333D01*
X215333666Y-86845000D01*
X215233666Y-86845000D01*
X215167000Y-86878333D01*
X215133666Y-86911666D01*
X216067000Y-86845000D02*
X216067000Y-87311666D01*
X215767000Y-86845000D02*
X215767000Y-87211666D01*
X215800333Y-87278333D01*
X215867000Y-87311666D01*
X215967000Y-87311666D01*
X216033666Y-87278333D01*
X216067000Y-87245000D01*
X216400333Y-87311666D02*
X216400333Y-86611666D01*
X216400333Y-86878333D02*
X216467000Y-86845000D01*
X216600333Y-86845000D01*
X216667000Y-86878333D01*
X216700333Y-86911666D01*
X216733666Y-86978333D01*
X216733666Y-87178333D01*
X216700333Y-87245000D01*
X216667000Y-87278333D01*
X216600333Y-87311666D01*
X216467000Y-87311666D01*
X216400333Y-87278333D01*
X217033666Y-87245000D02*
X217067000Y-87278333D01*
X217033666Y-87311666D01*
X217000333Y-87278333D01*
X217033666Y-87245000D01*
X217033666Y-87311666D01*
X217667000Y-87278333D02*
X217600333Y-87311666D01*
X217467000Y-87311666D01*
X217400333Y-87278333D01*
X217367000Y-87245000D01*
X217333666Y-87178333D01*
X217333666Y-86978333D01*
X217367000Y-86911666D01*
X217400333Y-86878333D01*
X217467000Y-86845000D01*
X217600333Y-86845000D01*
X217667000Y-86878333D01*
X218067000Y-87311666D02*
X218000333Y-87278333D01*
X217967000Y-87245000D01*
X217933666Y-87178333D01*
X217933666Y-86978333D01*
X217967000Y-86911666D01*
X218000333Y-86878333D01*
X218067000Y-86845000D01*
X218167000Y-86845000D01*
X218233666Y-86878333D01*
X218267000Y-86911666D01*
X218300333Y-86978333D01*
X218300333Y-87178333D01*
X218267000Y-87245000D01*
X218233666Y-87278333D01*
X218167000Y-87311666D01*
X218067000Y-87311666D01*
X218600333Y-87311666D02*
X218600333Y-86845000D01*
X218600333Y-86911666D02*
X218633666Y-86878333D01*
X218700333Y-86845000D01*
X218800333Y-86845000D01*
X218867000Y-86878333D01*
X218900333Y-86945000D01*
X218900333Y-87311666D01*
X218900333Y-86945000D02*
X218933666Y-86878333D01*
X219000333Y-86845000D01*
X219100333Y-86845000D01*
X219167000Y-86878333D01*
X219200333Y-86945000D01*
X219200333Y-87311666D01*
X220033666Y-86578333D02*
X219433666Y-87478333D01*
X220567000Y-86845000D02*
X220567000Y-87411666D01*
X220533666Y-87478333D01*
X220500333Y-87511666D01*
X220433666Y-87545000D01*
X220333666Y-87545000D01*
X220267000Y-87511666D01*
X220567000Y-87278333D02*
X220500333Y-87311666D01*
X220367000Y-87311666D01*
X220300333Y-87278333D01*
X220267000Y-87245000D01*
X220233666Y-87178333D01*
X220233666Y-86978333D01*
X220267000Y-86911666D01*
X220300333Y-86878333D01*
X220367000Y-86845000D01*
X220500333Y-86845000D01*
X220567000Y-86878333D01*
X220833666Y-86845000D02*
X221200333Y-86845000D01*
X220833666Y-87311666D01*
X221200333Y-87311666D01*
X221367000Y-86845000D02*
X221633666Y-86845000D01*
X221467000Y-86611666D02*
X221467000Y-87211666D01*
X221500333Y-87278333D01*
X221567000Y-87311666D01*
X221633666Y-87311666D01*
X221867000Y-86845000D02*
X221867000Y-87545000D01*
X221867000Y-86878333D02*
X221933666Y-86845000D01*
X222067000Y-86845000D01*
X222133666Y-86878333D01*
X222167000Y-86911666D01*
X222200333Y-86978333D01*
X222200333Y-87178333D01*
X222167000Y-87245000D01*
X222133666Y-87278333D01*
X222067000Y-87311666D01*
X221933666Y-87311666D01*
X221867000Y-87278333D01*
X222500333Y-87311666D02*
X222500333Y-86845000D01*
X222500333Y-86978333D02*
X222533666Y-86911666D01*
X222567000Y-86878333D01*
X222633666Y-86845000D01*
X222700333Y-86845000D01*
X223033666Y-87311666D02*
X222967000Y-87278333D01*
X222933666Y-87245000D01*
X222900333Y-87178333D01*
X222900333Y-86978333D01*
X222933666Y-86911666D01*
X222967000Y-86878333D01*
X223033666Y-86845000D01*
X223133666Y-86845000D01*
X223200333Y-86878333D01*
X223233666Y-86911666D01*
X223267000Y-86978333D01*
X223267000Y-87178333D01*
X223233666Y-87245000D01*
X223200333Y-87278333D01*
X223133666Y-87311666D01*
X223033666Y-87311666D01*
X223567000Y-86845000D02*
X223567000Y-87445000D01*
X223533666Y-87511666D01*
X223467000Y-87545000D01*
X223433666Y-87545000D01*
X223567000Y-86611666D02*
X223533666Y-86645000D01*
X223567000Y-86678333D01*
X223600333Y-86645000D01*
X223567000Y-86611666D01*
X223567000Y-86678333D01*
X224167000Y-87278333D02*
X224100333Y-87311666D01*
X223967000Y-87311666D01*
X223900333Y-87278333D01*
X223867000Y-87211666D01*
X223867000Y-86945000D01*
X223900333Y-86878333D01*
X223967000Y-86845000D01*
X224100333Y-86845000D01*
X224167000Y-86878333D01*
X224200333Y-86945000D01*
X224200333Y-87011666D01*
X223867000Y-87078333D01*
X224800333Y-87278333D02*
X224733666Y-87311666D01*
X224600333Y-87311666D01*
X224533666Y-87278333D01*
X224500333Y-87245000D01*
X224467000Y-87178333D01*
X224467000Y-86978333D01*
X224500333Y-86911666D01*
X224533666Y-86878333D01*
X224600333Y-86845000D01*
X224733666Y-86845000D01*
X224800333Y-86878333D01*
X225000333Y-86845000D02*
X225267000Y-86845000D01*
X225100333Y-86611666D02*
X225100333Y-87211666D01*
X225133666Y-87278333D01*
X225200333Y-87311666D01*
X225267000Y-87311666D01*
X226000333Y-86578333D02*
X225400333Y-87478333D01*
X226133666Y-86611666D02*
X226367000Y-87311666D01*
X226600333Y-86611666D01*
X227067000Y-86945000D02*
X226833666Y-86945000D01*
X226833666Y-87311666D02*
X226833666Y-86611666D01*
X227167000Y-86611666D01*
X227433666Y-87311666D02*
X227433666Y-86611666D01*
X227600333Y-86611666D01*
X227700333Y-86645000D01*
X227767000Y-86711666D01*
X227800333Y-86778333D01*
X227833666Y-86911666D01*
X227833666Y-87011666D01*
X227800333Y-87145000D01*
X227767000Y-87211666D01*
X227700333Y-87278333D01*
X227600333Y-87311666D01*
X227433666Y-87311666D01*
D10*
X212900238Y-83335880D02*
X213233571Y-84335880D01*
X213566904Y-83335880D01*
X214233571Y-83812071D02*
X213900238Y-83812071D01*
X213900238Y-84335880D02*
X213900238Y-83335880D01*
X214376428Y-83335880D01*
X214757380Y-84335880D02*
X214757380Y-83335880D01*
X214995476Y-83335880D01*
X215138333Y-83383500D01*
X215233571Y-83478738D01*
X215281190Y-83573976D01*
X215328809Y-83764452D01*
X215328809Y-83907309D01*
X215281190Y-84097785D01*
X215233571Y-84193023D01*
X215138333Y-84288261D01*
X214995476Y-84335880D01*
X214757380Y-84335880D01*
X216519285Y-83335880D02*
X216519285Y-84145404D01*
X216566904Y-84240642D01*
X216614523Y-84288261D01*
X216709761Y-84335880D01*
X216900238Y-84335880D01*
X216995476Y-84288261D01*
X217043095Y-84240642D01*
X217090714Y-84145404D01*
X217090714Y-83335880D01*
X217566904Y-84335880D02*
X217566904Y-83335880D01*
X218805000Y-84335880D02*
X218805000Y-83335880D01*
X218805000Y-83716833D02*
X218900238Y-83669214D01*
X219090714Y-83669214D01*
X219185952Y-83716833D01*
X219233571Y-83764452D01*
X219281190Y-83859690D01*
X219281190Y-84145404D01*
X219233571Y-84240642D01*
X219185952Y-84288261D01*
X219090714Y-84335880D01*
X218900238Y-84335880D01*
X218805000Y-84288261D01*
X219852619Y-84335880D02*
X219757380Y-84288261D01*
X219709761Y-84240642D01*
X219662142Y-84145404D01*
X219662142Y-83859690D01*
X219709761Y-83764452D01*
X219757380Y-83716833D01*
X219852619Y-83669214D01*
X219995476Y-83669214D01*
X220090714Y-83716833D01*
X220138333Y-83764452D01*
X220185952Y-83859690D01*
X220185952Y-84145404D01*
X220138333Y-84240642D01*
X220090714Y-84288261D01*
X219995476Y-84335880D01*
X219852619Y-84335880D01*
X221043095Y-84335880D02*
X221043095Y-83812071D01*
X220995476Y-83716833D01*
X220900238Y-83669214D01*
X220709761Y-83669214D01*
X220614523Y-83716833D01*
X221043095Y-84288261D02*
X220947857Y-84335880D01*
X220709761Y-84335880D01*
X220614523Y-84288261D01*
X220566904Y-84193023D01*
X220566904Y-84097785D01*
X220614523Y-84002547D01*
X220709761Y-83954928D01*
X220947857Y-83954928D01*
X221043095Y-83907309D01*
X221519285Y-84335880D02*
X221519285Y-83669214D01*
X221519285Y-83859690D02*
X221566904Y-83764452D01*
X221614523Y-83716833D01*
X221709761Y-83669214D01*
X221805000Y-83669214D01*
X222566904Y-84335880D02*
X222566904Y-83335880D01*
X222566904Y-84288261D02*
X222471666Y-84335880D01*
X222281190Y-84335880D01*
X222185952Y-84288261D01*
X222138333Y-84240642D01*
X222090714Y-84145404D01*
X222090714Y-83859690D01*
X222138333Y-83764452D01*
X222185952Y-83716833D01*
X222281190Y-83669214D01*
X222471666Y-83669214D01*
X222566904Y-83716833D01*
X236395000Y-48213000D02*
X235395000Y-53213000D01*
X235395000Y-53213000D02*
X234395000Y-58213000D01*
X234395000Y-58213000D02*
X241395000Y-58213000D01*
X241395000Y-58213000D02*
X242395000Y-53213000D01*
X243395000Y-48213000D02*
X242395000Y-53213000D01*
X242395000Y-53213000D02*
X235395000Y-53213000D01*
X236395000Y-48213000D02*
X243395000Y-48213000D01*
X245695000Y-62813000D02*
X233095000Y-62813000D01*
X233095000Y-47513000D02*
X233095000Y-58913000D01*
X245695000Y-47513000D02*
X245695000Y-58913000D01*
X233095000Y-43613000D02*
X245695000Y-43613000D01*
X243842214Y-58213000D02*
G75*
G03X243842214Y-58213000I-447214J0D01*
G01*
X222806000Y-48213000D02*
X221806000Y-53213000D01*
X221806000Y-53213000D02*
X220806000Y-58213000D01*
X220806000Y-58213000D02*
X227806000Y-58213000D01*
X227806000Y-58213000D02*
X228806000Y-53213000D01*
X229806000Y-48213000D02*
X228806000Y-53213000D01*
X228806000Y-53213000D02*
X221806000Y-53213000D01*
X222806000Y-48213000D02*
X229806000Y-48213000D01*
X232106000Y-62813000D02*
X219506000Y-62813000D01*
X219506000Y-47513000D02*
X219506000Y-58913000D01*
X232106000Y-47513000D02*
X232106000Y-58913000D01*
X219506000Y-43613000D02*
X232106000Y-43613000D01*
X230253214Y-58213000D02*
G75*
G03X230253214Y-58213000I-447214J0D01*
G01*
D12*
X240109000Y-64878000D02*
X238609000Y-64878000D01*
X236109000Y-66128000D02*
X236109000Y-70628000D01*
X238609000Y-71878000D02*
X240109000Y-71878000D01*
X242609000Y-70628000D02*
X242609000Y-66128000D01*
X253317000Y-64878000D02*
X251817000Y-64878000D01*
X249317000Y-66128000D02*
X249317000Y-70628000D01*
X251817000Y-71878000D02*
X253317000Y-71878000D01*
X255817000Y-70628000D02*
X255817000Y-66128000D01*
X265719500Y-44184500D02*
X266469500Y-44934500D01*
X264969500Y-44934500D02*
X265719500Y-44184500D01*
X264219500Y-44184500D02*
X267219500Y-44184500D01*
X265719500Y-104184500D02*
X266469500Y-103434500D01*
X264969500Y-103434500D02*
X265719500Y-104184500D01*
X264219500Y-104184500D02*
X267219500Y-104184500D01*
X265719500Y-104184500D02*
X265719500Y-44184500D01*
X264469500Y-112609500D02*
X263969500Y-112109500D01*
X263469500Y-112609500D02*
X264469500Y-112609500D01*
X263969500Y-112109500D02*
X263469500Y-112609500D01*
X264792500Y-36564500D02*
X270339500Y-36564500D01*
X261099500Y-36564500D02*
X263146500Y-36564500D01*
X268292500Y-111804500D02*
X270339500Y-111804500D01*
X265144500Y-111804500D02*
X266647500Y-111804500D01*
X261099500Y-111804500D02*
X262794500Y-111804500D01*
X270339500Y-39948500D02*
X270339500Y-36564500D01*
X270339500Y-105148500D02*
X270339500Y-43219500D01*
X270339500Y-111804500D02*
X270339500Y-108419500D01*
X261099500Y-41148500D02*
X261099500Y-36564500D01*
X261099500Y-103948500D02*
X261099500Y-44419500D01*
X261099500Y-111804500D02*
X261099500Y-107219500D01*
X256567000Y-71596000D02*
X256897000Y-71596000D01*
X256567000Y-65056000D02*
X256567000Y-71596000D01*
X256897000Y-65056000D02*
X256567000Y-65056000D01*
X259307000Y-71596000D02*
X258977000Y-71596000D01*
X259307000Y-65056000D02*
X259307000Y-71596000D01*
X258977000Y-65056000D02*
X259307000Y-65056000D01*
X243359000Y-71596000D02*
X243689000Y-71596000D01*
X243359000Y-65056000D02*
X243359000Y-71596000D01*
X243689000Y-65056000D02*
X243359000Y-65056000D01*
X246099000Y-71596000D02*
X245769000Y-71596000D01*
X246099000Y-65056000D02*
X246099000Y-71596000D01*
X245769000Y-65056000D02*
X246099000Y-65056000D01*
X229643000Y-71596000D02*
X229973000Y-71596000D01*
X229643000Y-65056000D02*
X229643000Y-71596000D01*
X229973000Y-65056000D02*
X229643000Y-65056000D01*
X232383000Y-71596000D02*
X232053000Y-71596000D01*
X232383000Y-65056000D02*
X232383000Y-71596000D01*
X232053000Y-65056000D02*
X232383000Y-65056000D01*
X226393000Y-64878000D02*
X224893000Y-64878000D01*
X222393000Y-66128000D02*
X222393000Y-70628000D01*
X224893000Y-71878000D02*
X226393000Y-71878000D01*
X228893000Y-70628000D02*
X228893000Y-66128000D01*
D10*
X249984000Y-48213000D02*
X248984000Y-53213000D01*
X248984000Y-53213000D02*
X247984000Y-58213000D01*
X247984000Y-58213000D02*
X254984000Y-58213000D01*
X254984000Y-58213000D02*
X255984000Y-53213000D01*
X256984000Y-48213000D02*
X255984000Y-53213000D01*
X255984000Y-53213000D02*
X248984000Y-53213000D01*
X249984000Y-48213000D02*
X256984000Y-48213000D01*
X259284000Y-62813000D02*
X246684000Y-62813000D01*
X246684000Y-47513000D02*
X246684000Y-58913000D01*
X259284000Y-47513000D02*
X259284000Y-58913000D01*
X246684000Y-43613000D02*
X259284000Y-43613000D01*
X257431214Y-58213000D02*
G75*
G03X257431214Y-58213000I-447214J0D01*
G01*
X238760095Y-42060880D02*
X238760095Y-42870404D01*
X238807714Y-42965642D01*
X238855333Y-43013261D01*
X238950571Y-43060880D01*
X239141047Y-43060880D01*
X239236285Y-43013261D01*
X239283904Y-42965642D01*
X239331523Y-42870404D01*
X239331523Y-42060880D01*
X240236285Y-42060880D02*
X240045809Y-42060880D01*
X239950571Y-42108500D01*
X239902952Y-42156119D01*
X239807714Y-42298976D01*
X239760095Y-42489452D01*
X239760095Y-42870404D01*
X239807714Y-42965642D01*
X239855333Y-43013261D01*
X239950571Y-43060880D01*
X240141047Y-43060880D01*
X240236285Y-43013261D01*
X240283904Y-42965642D01*
X240331523Y-42870404D01*
X240331523Y-42632309D01*
X240283904Y-42537071D01*
X240236285Y-42489452D01*
X240141047Y-42441833D01*
X239950571Y-42441833D01*
X239855333Y-42489452D01*
X239807714Y-42537071D01*
X239760095Y-42632309D01*
X225107595Y-42060880D02*
X225107595Y-42870404D01*
X225155214Y-42965642D01*
X225202833Y-43013261D01*
X225298071Y-43060880D01*
X225488547Y-43060880D01*
X225583785Y-43013261D01*
X225631404Y-42965642D01*
X225679023Y-42870404D01*
X225679023Y-42060880D01*
X226631404Y-42060880D02*
X226155214Y-42060880D01*
X226107595Y-42537071D01*
X226155214Y-42489452D01*
X226250452Y-42441833D01*
X226488547Y-42441833D01*
X226583785Y-42489452D01*
X226631404Y-42537071D01*
X226679023Y-42632309D01*
X226679023Y-42870404D01*
X226631404Y-42965642D01*
X226583785Y-43013261D01*
X226488547Y-43060880D01*
X226250452Y-43060880D01*
X226155214Y-43013261D01*
X226107595Y-42965642D01*
X235513761Y-69711333D02*
X235561380Y-69568476D01*
X235561380Y-69330380D01*
X235513761Y-69235142D01*
X235466142Y-69187523D01*
X235370904Y-69139904D01*
X235275666Y-69139904D01*
X235180428Y-69187523D01*
X235132809Y-69235142D01*
X235085190Y-69330380D01*
X235037571Y-69520857D01*
X234989952Y-69616095D01*
X234942333Y-69663714D01*
X234847095Y-69711333D01*
X234751857Y-69711333D01*
X234656619Y-69663714D01*
X234609000Y-69616095D01*
X234561380Y-69520857D01*
X234561380Y-69282761D01*
X234609000Y-69139904D01*
X234561380Y-68806571D02*
X235561380Y-68568476D01*
X234847095Y-68378000D01*
X235561380Y-68187523D01*
X234561380Y-67949428D01*
X234656619Y-67616095D02*
X234609000Y-67568476D01*
X234561380Y-67473238D01*
X234561380Y-67235142D01*
X234609000Y-67139904D01*
X234656619Y-67092285D01*
X234751857Y-67044666D01*
X234847095Y-67044666D01*
X234989952Y-67092285D01*
X235561380Y-67663714D01*
X235561380Y-67044666D01*
X248721761Y-69711333D02*
X248769380Y-69568476D01*
X248769380Y-69330380D01*
X248721761Y-69235142D01*
X248674142Y-69187523D01*
X248578904Y-69139904D01*
X248483666Y-69139904D01*
X248388428Y-69187523D01*
X248340809Y-69235142D01*
X248293190Y-69330380D01*
X248245571Y-69520857D01*
X248197952Y-69616095D01*
X248150333Y-69663714D01*
X248055095Y-69711333D01*
X247959857Y-69711333D01*
X247864619Y-69663714D01*
X247817000Y-69616095D01*
X247769380Y-69520857D01*
X247769380Y-69282761D01*
X247817000Y-69139904D01*
X247769380Y-68806571D02*
X248769380Y-68568476D01*
X248055095Y-68378000D01*
X248769380Y-68187523D01*
X247769380Y-67949428D01*
X247769380Y-67663714D02*
X247769380Y-67044666D01*
X248150333Y-67378000D01*
X248150333Y-67235142D01*
X248197952Y-67139904D01*
X248245571Y-67092285D01*
X248340809Y-67044666D01*
X248578904Y-67044666D01*
X248674142Y-67092285D01*
X248721761Y-67139904D01*
X248769380Y-67235142D01*
X248769380Y-67520857D01*
X248721761Y-67616095D01*
X248674142Y-67663714D01*
X271438761Y-65730380D02*
X271105428Y-65254190D01*
X270867333Y-65730380D02*
X270867333Y-64730380D01*
X271248285Y-64730380D01*
X271343523Y-64778000D01*
X271391142Y-64825619D01*
X271438761Y-64920857D01*
X271438761Y-65063714D01*
X271391142Y-65158952D01*
X271343523Y-65206571D01*
X271248285Y-65254190D01*
X270867333Y-65254190D01*
X271724476Y-64730380D02*
X272057809Y-65730380D01*
X272391142Y-64730380D01*
X273248285Y-65730380D02*
X272676857Y-65730380D01*
X272962571Y-65730380D02*
X272962571Y-64730380D01*
X272867333Y-64873238D01*
X272772095Y-64968476D01*
X272676857Y-65016095D01*
X260699380Y-68492666D02*
X260223190Y-68826000D01*
X260699380Y-69064095D02*
X259699380Y-69064095D01*
X259699380Y-68683142D01*
X259747000Y-68587904D01*
X259794619Y-68540285D01*
X259889857Y-68492666D01*
X260032714Y-68492666D01*
X260127952Y-68540285D01*
X260175571Y-68587904D01*
X260223190Y-68683142D01*
X260223190Y-69064095D01*
X260127952Y-67921238D02*
X260080333Y-68016476D01*
X260032714Y-68064095D01*
X259937476Y-68111714D01*
X259889857Y-68111714D01*
X259794619Y-68064095D01*
X259747000Y-68016476D01*
X259699380Y-67921238D01*
X259699380Y-67730761D01*
X259747000Y-67635523D01*
X259794619Y-67587904D01*
X259889857Y-67540285D01*
X259937476Y-67540285D01*
X260032714Y-67587904D01*
X260080333Y-67635523D01*
X260127952Y-67730761D01*
X260127952Y-67921238D01*
X260175571Y-68016476D01*
X260223190Y-68064095D01*
X260318428Y-68111714D01*
X260508904Y-68111714D01*
X260604142Y-68064095D01*
X260651761Y-68016476D01*
X260699380Y-67921238D01*
X260699380Y-67730761D01*
X260651761Y-67635523D01*
X260604142Y-67587904D01*
X260508904Y-67540285D01*
X260318428Y-67540285D01*
X260223190Y-67587904D01*
X260175571Y-67635523D01*
X260127952Y-67730761D01*
X247491380Y-68492666D02*
X247015190Y-68826000D01*
X247491380Y-69064095D02*
X246491380Y-69064095D01*
X246491380Y-68683142D01*
X246539000Y-68587904D01*
X246586619Y-68540285D01*
X246681857Y-68492666D01*
X246824714Y-68492666D01*
X246919952Y-68540285D01*
X246967571Y-68587904D01*
X247015190Y-68683142D01*
X247015190Y-69064095D01*
X247491380Y-68016476D02*
X247491380Y-67826000D01*
X247443761Y-67730761D01*
X247396142Y-67683142D01*
X247253285Y-67587904D01*
X247062809Y-67540285D01*
X246681857Y-67540285D01*
X246586619Y-67587904D01*
X246539000Y-67635523D01*
X246491380Y-67730761D01*
X246491380Y-67921238D01*
X246539000Y-68016476D01*
X246586619Y-68064095D01*
X246681857Y-68111714D01*
X246919952Y-68111714D01*
X247015190Y-68064095D01*
X247062809Y-68016476D01*
X247110428Y-67921238D01*
X247110428Y-67730761D01*
X247062809Y-67635523D01*
X247015190Y-67587904D01*
X246919952Y-67540285D01*
X233775380Y-68968857D02*
X233299190Y-69302190D01*
X233775380Y-69540285D02*
X232775380Y-69540285D01*
X232775380Y-69159333D01*
X232823000Y-69064095D01*
X232870619Y-69016476D01*
X232965857Y-68968857D01*
X233108714Y-68968857D01*
X233203952Y-69016476D01*
X233251571Y-69064095D01*
X233299190Y-69159333D01*
X233299190Y-69540285D01*
X233775380Y-68016476D02*
X233775380Y-68587904D01*
X233775380Y-68302190D02*
X232775380Y-68302190D01*
X232918238Y-68397428D01*
X233013476Y-68492666D01*
X233061095Y-68587904D01*
X232775380Y-67397428D02*
X232775380Y-67302190D01*
X232823000Y-67206952D01*
X232870619Y-67159333D01*
X232965857Y-67111714D01*
X233156333Y-67064095D01*
X233394428Y-67064095D01*
X233584904Y-67111714D01*
X233680142Y-67159333D01*
X233727761Y-67206952D01*
X233775380Y-67302190D01*
X233775380Y-67397428D01*
X233727761Y-67492666D01*
X233680142Y-67540285D01*
X233584904Y-67587904D01*
X233394428Y-67635523D01*
X233156333Y-67635523D01*
X232965857Y-67587904D01*
X232870619Y-67540285D01*
X232823000Y-67492666D01*
X232775380Y-67397428D01*
X221797761Y-69711333D02*
X221845380Y-69568476D01*
X221845380Y-69330380D01*
X221797761Y-69235142D01*
X221750142Y-69187523D01*
X221654904Y-69139904D01*
X221559666Y-69139904D01*
X221464428Y-69187523D01*
X221416809Y-69235142D01*
X221369190Y-69330380D01*
X221321571Y-69520857D01*
X221273952Y-69616095D01*
X221226333Y-69663714D01*
X221131095Y-69711333D01*
X221035857Y-69711333D01*
X220940619Y-69663714D01*
X220893000Y-69616095D01*
X220845380Y-69520857D01*
X220845380Y-69282761D01*
X220893000Y-69139904D01*
X220845380Y-68806571D02*
X221845380Y-68568476D01*
X221131095Y-68378000D01*
X221845380Y-68187523D01*
X220845380Y-67949428D01*
X221845380Y-67044666D02*
X221845380Y-67616095D01*
X221845380Y-67330380D02*
X220845380Y-67330380D01*
X220988238Y-67425619D01*
X221083476Y-67520857D01*
X221131095Y-67616095D01*
X252285595Y-42060880D02*
X252285595Y-42870404D01*
X252333214Y-42965642D01*
X252380833Y-43013261D01*
X252476071Y-43060880D01*
X252666547Y-43060880D01*
X252761785Y-43013261D01*
X252809404Y-42965642D01*
X252857023Y-42870404D01*
X252857023Y-42060880D01*
X253237976Y-42060880D02*
X253904642Y-42060880D01*
X253476071Y-43060880D01*
M02*
