G04 #@! TF.GenerationSoftware,KiCad,Pcbnew,5.1.5-52549c5~84~ubuntu18.04.1*
G04 #@! TF.CreationDate,2020-01-17T22:36:35+01:00*
G04 #@! TF.ProjectId,VFD,5646442e-6b69-4636-9164-5f7063625858,rev?*
G04 #@! TF.SameCoordinates,Original*
G04 #@! TF.FileFunction,Legend,Bot*
G04 #@! TF.FilePolarity,Positive*
%FSLAX46Y46*%
G04 Gerber Fmt 4.6, Leading zero omitted, Abs format (unit mm)*
G04 Created by KiCad (PCBNEW 5.1.5-52549c5~84~ubuntu18.04.1) date 2020-01-17 22:36:35*
%MOMM*%
%LPD*%
G04 APERTURE LIST*
%ADD10C,0.150000*%
%ADD11C,0.120000*%
%ADD12C,0.170000*%
G04 APERTURE END LIST*
D10*
X283337000Y-34036000D02*
X283337000Y-124968000D01*
X199517000Y-34036000D02*
X283337000Y-34036000D01*
X199517000Y-124968000D02*
X199517000Y-34036000D01*
X283337000Y-124968000D02*
X199517000Y-124968000D01*
D11*
X236059000Y-124770500D02*
X236059000Y-118180500D01*
X210519000Y-124770500D02*
X210519000Y-118180500D01*
X213919000Y-118180500D02*
X213919000Y-105330500D01*
X232359000Y-118180500D02*
X232359000Y-105330500D01*
X213919000Y-118180500D02*
X210519000Y-118180500D01*
X236059000Y-118180500D02*
X232359000Y-118180500D01*
X212019000Y-124770500D02*
X212019000Y-127470500D01*
X234259000Y-124770500D02*
X234259000Y-127470500D01*
X234259000Y-124770500D02*
X236059000Y-124770500D01*
X210519000Y-124770500D02*
X212019000Y-124770500D01*
X212019000Y-127470500D02*
X234259000Y-127470500D01*
X213919000Y-105330500D02*
X218139000Y-105330500D01*
X223839000Y-105330500D02*
X225739000Y-105330500D01*
X228139000Y-105330500D02*
X232359000Y-105330500D01*
X222439000Y-105330500D02*
X220539000Y-105330500D01*
D10*
X202311000Y-50038000D02*
X202311000Y-73025000D01*
X207391000Y-73025000D02*
X207391000Y-49911000D01*
D12*
X202251000Y-73055500D02*
X207451000Y-73055500D01*
X202251000Y-49980500D02*
X207451000Y-49980500D01*
D11*
X262175000Y-124770500D02*
X262175000Y-118030500D01*
X236935000Y-124770500D02*
X236935000Y-118030500D01*
X238685000Y-118030500D02*
X238685000Y-105030500D01*
X260425000Y-118030500D02*
X260425000Y-105030500D01*
X238685000Y-118030500D02*
X236935000Y-118030500D01*
X262175000Y-118030500D02*
X260425000Y-118030500D01*
X238435000Y-124770500D02*
X238435000Y-127470500D01*
X260675000Y-124770500D02*
X260675000Y-127470500D01*
X260675000Y-124770500D02*
X262175000Y-124770500D01*
X236935000Y-124770500D02*
X238435000Y-124770500D01*
X238435000Y-127470500D02*
X260675000Y-127470500D01*
X238685000Y-105030500D02*
X260425000Y-105030500D01*
X206249000Y-76967000D02*
X206249000Y-77967000D01*
X206249000Y-76967000D02*
X205249000Y-76967000D01*
X203049000Y-82467000D02*
X203049000Y-80117000D01*
X203924000Y-82467000D02*
X203049000Y-82467000D01*
X203924000Y-82667000D02*
X203924000Y-82467000D01*
X204724000Y-82667000D02*
X203924000Y-82667000D01*
X204724000Y-82467000D02*
X204724000Y-82667000D01*
X205449000Y-82467000D02*
X204724000Y-82467000D01*
X205449000Y-80117000D02*
X205449000Y-82467000D01*
X203049000Y-77767000D02*
X203049000Y-80117000D01*
X203924000Y-77767000D02*
X203049000Y-77767000D01*
X203924000Y-77567000D02*
X203924000Y-77767000D01*
X204724000Y-77567000D02*
X203924000Y-77567000D01*
X204724000Y-77767000D02*
X204724000Y-77567000D01*
X205449000Y-77767000D02*
X204724000Y-77767000D01*
X205449000Y-80117000D02*
X205449000Y-77767000D01*
X202499000Y-83017000D02*
X202499000Y-77217000D01*
X205999000Y-83017000D02*
X202499000Y-83017000D01*
X205999000Y-77217000D02*
X205999000Y-83017000D01*
X202499000Y-77217000D02*
X205999000Y-77217000D01*
D10*
X223472333Y-103322880D02*
X223472333Y-104037166D01*
X223519952Y-104180023D01*
X223615190Y-104275261D01*
X223758047Y-104322880D01*
X223853285Y-104322880D01*
X223043761Y-103418119D02*
X222996142Y-103370500D01*
X222900904Y-103322880D01*
X222662809Y-103322880D01*
X222567571Y-103370500D01*
X222519952Y-103418119D01*
X222472333Y-103513357D01*
X222472333Y-103608595D01*
X222519952Y-103751452D01*
X223091380Y-104322880D01*
X222472333Y-104322880D01*
D12*
X208003380Y-61134666D02*
X208717666Y-61134666D01*
X208860523Y-61087047D01*
X208955761Y-60991809D01*
X209003380Y-60848952D01*
X209003380Y-60753714D01*
X208003380Y-62087047D02*
X208003380Y-61610857D01*
X208479571Y-61563238D01*
X208431952Y-61610857D01*
X208384333Y-61706095D01*
X208384333Y-61944190D01*
X208431952Y-62039428D01*
X208479571Y-62087047D01*
X208574809Y-62134666D01*
X208812904Y-62134666D01*
X208908142Y-62087047D01*
X208955761Y-62039428D01*
X209003380Y-61944190D01*
X209003380Y-61706095D01*
X208955761Y-61610857D01*
X208908142Y-61563238D01*
D10*
X249951833Y-103211380D02*
X249951833Y-103925666D01*
X249999452Y-104068523D01*
X250094690Y-104163761D01*
X250237547Y-104211380D01*
X250332785Y-104211380D01*
X248951833Y-104211380D02*
X249523261Y-104211380D01*
X249237547Y-104211380D02*
X249237547Y-103211380D01*
X249332785Y-103354238D01*
X249428023Y-103449476D01*
X249523261Y-103497095D01*
X206676380Y-79783666D02*
X207390666Y-79783666D01*
X207533523Y-79736047D01*
X207628761Y-79640809D01*
X207676380Y-79497952D01*
X207676380Y-79402714D01*
X206676380Y-80688428D02*
X206676380Y-80497952D01*
X206724000Y-80402714D01*
X206771619Y-80355095D01*
X206914476Y-80259857D01*
X207104952Y-80212238D01*
X207485904Y-80212238D01*
X207581142Y-80259857D01*
X207628761Y-80307476D01*
X207676380Y-80402714D01*
X207676380Y-80593190D01*
X207628761Y-80688428D01*
X207581142Y-80736047D01*
X207485904Y-80783666D01*
X207247809Y-80783666D01*
X207152571Y-80736047D01*
X207104952Y-80688428D01*
X207057333Y-80593190D01*
X207057333Y-80402714D01*
X207104952Y-80307476D01*
X207152571Y-80259857D01*
X207247809Y-80212238D01*
M02*
