M48
; DRILL file {KiCad 5.1.5-52549c5~84~ubuntu18.04.1} date Fri 17 Jan 2020 10:36:28 PM CET
; FORMAT={3:3/ absolute / metric / suppress leading zeros}
; #@! TF.CreationDate,2020-01-17T22:36:28+01:00
; #@! TF.GenerationSoftware,Kicad,Pcbnew,5.1.5-52549c5~84~ubuntu18.04.1
; #@! TF.FileFunction,Plated,1,2,PTH
FMAT,2
METRIC,TZ
T1C0.400
T2C0.500
T3C0.600
T4C0.800
T5C1.100
T6C1.200
T7C1.600
T8C1.700
T9C4.000
T10C4.300
%
G90
G05
T1
X207645Y-49276
X208270Y-55753
X208280Y-60833
X208281Y-58432
X208487Y-49318
X208895Y-53213
X208915Y-65913
X208961Y-57805
X209353Y-49336
X209677Y-57180
X209677Y-63373
X213170Y-94933
X218821Y-61986
X220726Y-57805
X221244Y-58430
X221869Y-74031
X223266Y-57180
X225806Y-49871
X227574Y-47996
X228346Y-49276
X229616Y-47371
X230906Y-48621
X234315Y-57805
X235204Y-58430
X235458Y-110998
X236855Y-57180
X239395Y-55930
X241300Y-47996
X241935Y-49276
X243205Y-47371
X244495Y-48621
X247904Y-57805
X248539Y-58420
X250444Y-57180
X252984Y-56515
X254635Y-47996
X255524Y-49246
X256413Y-47371
T2
X204724Y-78867
X204724Y-80117
X204724Y-81367
T3
X202134Y-119126
X203079Y-116846
X203079Y-121406
X205359Y-115901
X205359Y-122351
X207639Y-116846
X207639Y-121406
X208584Y-119126
X202105Y-39624
X202984Y-37503
X202984Y-41745
X205105Y-36624
X205105Y-42624
X207226Y-37503
X207226Y-41745
X208105Y-39624
X274749Y-119380
X275628Y-117259
X275628Y-121501
X277749Y-116380
X277749Y-122380
X279870Y-117259
X279870Y-121501
X280749Y-119380
X274749Y-39624
X275628Y-37503
X275628Y-41745
X277749Y-36624
X277749Y-42624
X279870Y-37503
X279870Y-41745
X280749Y-39624
T4
X257937Y-64516
X257937Y-72136
X244729Y-64516
X244729Y-72136
X247904Y-45593
X247904Y-60833
X250444Y-45593
X250444Y-60833
X252984Y-45593
X252984Y-60833
X255524Y-45593
X255524Y-60833
X258064Y-45593
X258064Y-60833
X220726Y-45593
X220726Y-60833
X223266Y-45593
X223266Y-60833
X225806Y-45593
X225806Y-60833
X228346Y-45593
X228346Y-60833
X230886Y-45593
X230886Y-60833
X234315Y-45593
X234315Y-60833
X236855Y-45593
X236855Y-60833
X239395Y-45593
X239395Y-60833
X241935Y-45593
X241935Y-60833
X244475Y-45593
X244475Y-60833
X231013Y-64516
X231013Y-72136
X203581Y-51943
X203581Y-54483
X203581Y-57023
X203581Y-59563
X203581Y-62103
X203581Y-64643
X203581Y-67183
X203581Y-69723
X203581Y-72263
X206121Y-50673
X206121Y-53213
X206121Y-55753
X206121Y-58293
X206121Y-60833
X206121Y-63373
X206121Y-65913
X206121Y-68453
X206121Y-70993
T5
X223393Y-65128
X223393Y-71628
X227893Y-65128
X227893Y-71628
X237109Y-65128
X237109Y-71628
X241609Y-65128
X241609Y-71628
X250317Y-65128
X250317Y-71628
X254817Y-65128
X254817Y-71628
T6
X241305Y-117671
X249555Y-107501
X223139Y-106871
X223139Y-111951
X263970Y-37435
X263970Y-110935
X267470Y-110935
T7
X245745Y-111951
X253365Y-111316
X219329Y-106871
X226949Y-106871
T8
X261519Y-42785
X261519Y-105584
X269920Y-41585
X269920Y-106785
T9
X205105Y-39624
X277749Y-119380
X277749Y-39624
T10
X205359Y-119126
T0
M30
