G04 #@! TF.GenerationSoftware,KiCad,Pcbnew,5.1.5-52549c5~84~ubuntu18.04.1*
G04 #@! TF.CreationDate,2020-01-17T22:36:35+01:00*
G04 #@! TF.ProjectId,VFD,5646442e-6b69-4636-9164-5f7063625858,rev?*
G04 #@! TF.SameCoordinates,Original*
G04 #@! TF.FileFunction,Soldermask,Top*
G04 #@! TF.FilePolarity,Negative*
%FSLAX46Y46*%
G04 Gerber Fmt 4.6, Leading zero omitted, Abs format (unit mm)*
G04 Created by KiCad (PCBNEW 5.1.5-52549c5~84~ubuntu18.04.1) date 2020-01-17 22:36:35*
%MOMM*%
%LPD*%
G04 APERTURE LIST*
%ADD10C,0.150000*%
%ADD11R,1.924000X2.924000*%
%ADD12O,1.924000X2.924000*%
%ADD13C,3.800000*%
%ADD14C,3.300000*%
%ADD15C,2.000000*%
%ADD16R,2.100000X1.520000*%
%ADD17O,2.100000X1.520000*%
%ADD18C,1.900000*%
%ADD19C,2.400000*%
%ADD20C,3.100000*%
%ADD21C,2.150000*%
%ADD22R,2.150000X2.150000*%
%ADD23O,2.000000X2.000000*%
%ADD24C,1.300000*%
%ADD25C,8.400000*%
%ADD26C,9.000000*%
%ADD27C,1.250000*%
%ADD28R,1.250000X1.250000*%
G04 APERTURE END LIST*
D10*
X283337000Y-34036000D02*
X283337000Y-124968000D01*
X199517000Y-34036000D02*
X283337000Y-34036000D01*
X199517000Y-124968000D02*
X199517000Y-34036000D01*
X283337000Y-124968000D02*
X199517000Y-124968000D01*
D11*
X234315000Y-60833000D03*
D12*
X236855000Y-60833000D03*
X239395000Y-60833000D03*
X241935000Y-60833000D03*
X244475000Y-60833000D03*
X244475000Y-45593000D03*
X241935000Y-45593000D03*
X239395000Y-45593000D03*
X236855000Y-45593000D03*
X234315000Y-45593000D03*
D11*
X220726000Y-60833000D03*
D12*
X223266000Y-60833000D03*
X225806000Y-60833000D03*
X228346000Y-60833000D03*
X230886000Y-60833000D03*
X230886000Y-45593000D03*
X228346000Y-45593000D03*
X225806000Y-45593000D03*
X223266000Y-45593000D03*
X220726000Y-45593000D03*
D13*
X219329000Y-106870500D03*
X226949000Y-106870500D03*
D14*
X223139000Y-106870500D03*
D15*
X219329000Y-120840500D03*
X226949000Y-115760500D03*
D14*
X223139000Y-111950500D03*
D16*
X206121000Y-50673000D03*
D17*
X203581000Y-51943000D03*
X206121000Y-53213000D03*
X203581000Y-54483000D03*
X206121000Y-55753000D03*
X203581000Y-57023000D03*
X206121000Y-58293000D03*
X203581000Y-59563000D03*
X206121000Y-60833000D03*
X203581000Y-62103000D03*
X206121000Y-63373000D03*
X203581000Y-64643000D03*
X206121000Y-65913000D03*
X203581000Y-67183000D03*
X206121000Y-68453000D03*
X203581000Y-69723000D03*
X206121000Y-70993000D03*
X203581000Y-72263000D03*
D18*
X204321000Y-49908000D03*
D19*
X237109000Y-65128000D03*
X241609000Y-65128000D03*
X237109000Y-71628000D03*
X241609000Y-71628000D03*
X250317000Y-65128000D03*
X254817000Y-65128000D03*
X250317000Y-71628000D03*
X254817000Y-71628000D03*
D13*
X245745000Y-111950500D03*
X253365000Y-111315500D03*
D14*
X249555000Y-107500500D03*
D15*
X245745000Y-120840500D03*
X253365000Y-115760500D03*
D14*
X241305000Y-117670500D03*
D20*
X269919500Y-41584500D03*
X269919500Y-106784500D03*
X261519500Y-42784500D03*
X261519500Y-105584500D03*
D21*
X263969500Y-37434500D03*
X267469500Y-110934500D03*
D22*
X263969500Y-110934500D03*
D23*
X257937000Y-72136000D03*
D15*
X257937000Y-64516000D03*
D23*
X244729000Y-72136000D03*
D15*
X244729000Y-64516000D03*
D23*
X231013000Y-72136000D03*
D15*
X231013000Y-64516000D03*
D24*
X279870320Y-117258680D03*
X277749000Y-116380000D03*
X275627680Y-117258680D03*
X274749000Y-119380000D03*
X275627680Y-121501320D03*
X277749000Y-122380000D03*
X279870320Y-121501320D03*
X280749000Y-119380000D03*
D25*
X277749000Y-119380000D03*
D24*
X279870320Y-37502680D03*
X277749000Y-36624000D03*
X275627680Y-37502680D03*
X274749000Y-39624000D03*
X275627680Y-41745320D03*
X277749000Y-42624000D03*
X279870320Y-41745320D03*
X280749000Y-39624000D03*
D25*
X277749000Y-39624000D03*
D24*
X207226320Y-37502680D03*
X205105000Y-36624000D03*
X202983680Y-37502680D03*
X202105000Y-39624000D03*
X202983680Y-41745320D03*
X205105000Y-42624000D03*
X207226320Y-41745320D03*
X208105000Y-39624000D03*
D25*
X205105000Y-39624000D03*
D26*
X205359000Y-119126000D03*
D24*
X208584000Y-119126000D03*
X207639419Y-121406419D03*
X205359000Y-122351000D03*
X203078581Y-121406419D03*
X202134000Y-119126000D03*
X203078581Y-116845581D03*
X205359000Y-115901000D03*
X207639419Y-116845581D03*
D27*
X204724000Y-81367000D03*
X204724000Y-80117000D03*
D28*
X204724000Y-78867000D03*
D19*
X223393000Y-65128000D03*
X227893000Y-65128000D03*
X223393000Y-71628000D03*
X227893000Y-71628000D03*
D11*
X247904000Y-60833000D03*
D12*
X250444000Y-60833000D03*
X252984000Y-60833000D03*
X255524000Y-60833000D03*
X258064000Y-60833000D03*
X258064000Y-45593000D03*
X255524000Y-45593000D03*
X252984000Y-45593000D03*
X250444000Y-45593000D03*
X247904000Y-45593000D03*
M02*
