G04 #@! TF.GenerationSoftware,KiCad,Pcbnew,5.1.5-52549c5~84~ubuntu18.04.1*
G04 #@! TF.CreationDate,2020-02-27T02:17:20+01:00*
G04 #@! TF.ProjectId,VFD,5646442e-6b69-4636-9164-5f7063625858,rev?*
G04 #@! TF.SameCoordinates,Original*
G04 #@! TF.FileFunction,Legend,Top*
G04 #@! TF.FilePolarity,Positive*
%FSLAX46Y46*%
G04 Gerber Fmt 4.6, Leading zero omitted, Abs format (unit mm)*
G04 Created by KiCad (PCBNEW 5.1.5-52549c5~84~ubuntu18.04.1) date 2020-02-27 02:17:20*
%MOMM*%
%LPD*%
G04 APERTURE LIST*
%ADD10C,0.150000*%
%ADD11C,0.125000*%
%ADD12C,0.120000*%
%ADD13C,0.170000*%
G04 APERTURE END LIST*
D10*
X84090619Y-81049880D02*
X84423952Y-82049880D01*
X84757285Y-81049880D01*
X85423952Y-81526071D02*
X85090619Y-81526071D01*
X85090619Y-82049880D02*
X85090619Y-81049880D01*
X85566809Y-81049880D01*
X85947761Y-82049880D02*
X85947761Y-81049880D01*
X86185857Y-81049880D01*
X86328714Y-81097500D01*
X86423952Y-81192738D01*
X86471571Y-81287976D01*
X86519190Y-81478452D01*
X86519190Y-81621309D01*
X86471571Y-81811785D01*
X86423952Y-81907023D01*
X86328714Y-82002261D01*
X86185857Y-82049880D01*
X85947761Y-82049880D01*
X87709666Y-82049880D02*
X87709666Y-81383214D01*
X87709666Y-81478452D02*
X87757285Y-81430833D01*
X87852523Y-81383214D01*
X87995380Y-81383214D01*
X88090619Y-81430833D01*
X88138238Y-81526071D01*
X88138238Y-82049880D01*
X88138238Y-81526071D02*
X88185857Y-81430833D01*
X88281095Y-81383214D01*
X88423952Y-81383214D01*
X88519190Y-81430833D01*
X88566809Y-81526071D01*
X88566809Y-82049880D01*
X89471571Y-82049880D02*
X89471571Y-81526071D01*
X89423952Y-81430833D01*
X89328714Y-81383214D01*
X89138238Y-81383214D01*
X89043000Y-81430833D01*
X89471571Y-82002261D02*
X89376333Y-82049880D01*
X89138238Y-82049880D01*
X89043000Y-82002261D01*
X88995380Y-81907023D01*
X88995380Y-81811785D01*
X89043000Y-81716547D01*
X89138238Y-81668928D01*
X89376333Y-81668928D01*
X89471571Y-81621309D01*
X89947761Y-82049880D02*
X89947761Y-81383214D01*
X89947761Y-81049880D02*
X89900142Y-81097500D01*
X89947761Y-81145119D01*
X89995380Y-81097500D01*
X89947761Y-81049880D01*
X89947761Y-81145119D01*
X90423952Y-81383214D02*
X90423952Y-82049880D01*
X90423952Y-81478452D02*
X90471571Y-81430833D01*
X90566809Y-81383214D01*
X90709666Y-81383214D01*
X90804904Y-81430833D01*
X90852523Y-81526071D01*
X90852523Y-82049880D01*
X92090619Y-82049880D02*
X92090619Y-81049880D01*
X92090619Y-81430833D02*
X92185857Y-81383214D01*
X92376333Y-81383214D01*
X92471571Y-81430833D01*
X92519190Y-81478452D01*
X92566809Y-81573690D01*
X92566809Y-81859404D01*
X92519190Y-81954642D01*
X92471571Y-82002261D01*
X92376333Y-82049880D01*
X92185857Y-82049880D01*
X92090619Y-82002261D01*
X93138238Y-82049880D02*
X93043000Y-82002261D01*
X92995380Y-81954642D01*
X92947761Y-81859404D01*
X92947761Y-81573690D01*
X92995380Y-81478452D01*
X93043000Y-81430833D01*
X93138238Y-81383214D01*
X93281095Y-81383214D01*
X93376333Y-81430833D01*
X93423952Y-81478452D01*
X93471571Y-81573690D01*
X93471571Y-81859404D01*
X93423952Y-81954642D01*
X93376333Y-82002261D01*
X93281095Y-82049880D01*
X93138238Y-82049880D01*
X94328714Y-82049880D02*
X94328714Y-81526071D01*
X94281095Y-81430833D01*
X94185857Y-81383214D01*
X93995380Y-81383214D01*
X93900142Y-81430833D01*
X94328714Y-82002261D02*
X94233476Y-82049880D01*
X93995380Y-82049880D01*
X93900142Y-82002261D01*
X93852523Y-81907023D01*
X93852523Y-81811785D01*
X93900142Y-81716547D01*
X93995380Y-81668928D01*
X94233476Y-81668928D01*
X94328714Y-81621309D01*
X94804904Y-82049880D02*
X94804904Y-81383214D01*
X94804904Y-81573690D02*
X94852523Y-81478452D01*
X94900142Y-81430833D01*
X94995380Y-81383214D01*
X95090619Y-81383214D01*
X95852523Y-82049880D02*
X95852523Y-81049880D01*
X95852523Y-82002261D02*
X95757285Y-82049880D01*
X95566809Y-82049880D01*
X95471571Y-82002261D01*
X95423952Y-81954642D01*
X95376333Y-81859404D01*
X95376333Y-81573690D01*
X95423952Y-81478452D01*
X95471571Y-81430833D01*
X95566809Y-81383214D01*
X95757285Y-81383214D01*
X95852523Y-81430833D01*
X173990000Y-93472000D02*
X36322000Y-93472000D01*
X173990000Y-34798000D02*
X173990000Y-93472000D01*
X36322000Y-93472000D02*
X36322000Y-34798000D01*
X45228000Y-82256380D02*
X45418476Y-82256380D01*
X45513714Y-82304000D01*
X45608952Y-82399238D01*
X45656571Y-82589714D01*
X45656571Y-82923047D01*
X45608952Y-83113523D01*
X45513714Y-83208761D01*
X45418476Y-83256380D01*
X45228000Y-83256380D01*
X45132761Y-83208761D01*
X45037523Y-83113523D01*
X44989904Y-82923047D01*
X44989904Y-82589714D01*
X45037523Y-82399238D01*
X45132761Y-82304000D01*
X45228000Y-82256380D01*
X46085142Y-82256380D02*
X46085142Y-83065904D01*
X46132761Y-83161142D01*
X46180380Y-83208761D01*
X46275619Y-83256380D01*
X46466095Y-83256380D01*
X46561333Y-83208761D01*
X46608952Y-83161142D01*
X46656571Y-83065904D01*
X46656571Y-82256380D01*
X46989904Y-82256380D02*
X47561333Y-82256380D01*
X47275619Y-83256380D02*
X47275619Y-82256380D01*
X45164500Y-77176380D02*
X45354976Y-77176380D01*
X45450214Y-77224000D01*
X45545452Y-77319238D01*
X45593071Y-77509714D01*
X45593071Y-77843047D01*
X45545452Y-78033523D01*
X45450214Y-78128761D01*
X45354976Y-78176380D01*
X45164500Y-78176380D01*
X45069261Y-78128761D01*
X44974023Y-78033523D01*
X44926404Y-77843047D01*
X44926404Y-77509714D01*
X44974023Y-77319238D01*
X45069261Y-77224000D01*
X45164500Y-77176380D01*
X46021642Y-77176380D02*
X46021642Y-77985904D01*
X46069261Y-78081142D01*
X46116880Y-78128761D01*
X46212119Y-78176380D01*
X46402595Y-78176380D01*
X46497833Y-78128761D01*
X46545452Y-78081142D01*
X46593071Y-77985904D01*
X46593071Y-77176380D01*
X46926404Y-77176380D02*
X47497833Y-77176380D01*
X47212119Y-78176380D02*
X47212119Y-77176380D01*
X48514095Y-61984000D02*
X48418857Y-61936380D01*
X48276000Y-61936380D01*
X48133142Y-61984000D01*
X48037904Y-62079238D01*
X47990285Y-62174476D01*
X47942666Y-62364952D01*
X47942666Y-62507809D01*
X47990285Y-62698285D01*
X48037904Y-62793523D01*
X48133142Y-62888761D01*
X48276000Y-62936380D01*
X48371238Y-62936380D01*
X48514095Y-62888761D01*
X48561714Y-62841142D01*
X48561714Y-62507809D01*
X48371238Y-62507809D01*
X48990285Y-62936380D02*
X48990285Y-61936380D01*
X49561714Y-62936380D01*
X49561714Y-61936380D01*
X50037904Y-62936380D02*
X50037904Y-61936380D01*
X50276000Y-61936380D01*
X50418857Y-61984000D01*
X50514095Y-62079238D01*
X50561714Y-62174476D01*
X50609333Y-62364952D01*
X50609333Y-62507809D01*
X50561714Y-62698285D01*
X50514095Y-62793523D01*
X50418857Y-62888761D01*
X50276000Y-62936380D01*
X50037904Y-62936380D01*
X47974285Y-57856380D02*
X47974285Y-56856380D01*
X48545714Y-57856380D01*
X48545714Y-56856380D01*
X48569523Y-52776380D02*
X48093333Y-52776380D01*
X48093333Y-51776380D01*
X36322000Y-34798000D02*
X173990000Y-34798000D01*
X88138238Y-82764380D02*
X88471571Y-83764380D01*
X88804904Y-82764380D01*
X89804904Y-82764380D02*
X90423952Y-82764380D01*
X90090619Y-83145333D01*
X90233476Y-83145333D01*
X90328714Y-83192952D01*
X90376333Y-83240571D01*
X90423952Y-83335809D01*
X90423952Y-83573904D01*
X90376333Y-83669142D01*
X90328714Y-83716761D01*
X90233476Y-83764380D01*
X89947761Y-83764380D01*
X89852523Y-83716761D01*
X89804904Y-83669142D01*
X90852523Y-83669142D02*
X90900142Y-83716761D01*
X90852523Y-83764380D01*
X90804904Y-83716761D01*
X90852523Y-83669142D01*
X90852523Y-83764380D01*
X91519190Y-82764380D02*
X91614428Y-82764380D01*
X91709666Y-82812000D01*
X91757285Y-82859619D01*
X91804904Y-82954857D01*
X91852523Y-83145333D01*
X91852523Y-83383428D01*
X91804904Y-83573904D01*
X91757285Y-83669142D01*
X91709666Y-83716761D01*
X91614428Y-83764380D01*
X91519190Y-83764380D01*
X91423952Y-83716761D01*
X91376333Y-83669142D01*
X91328714Y-83573904D01*
X91281095Y-83383428D01*
X91281095Y-83145333D01*
X91328714Y-82954857D01*
X91376333Y-82859619D01*
X91423952Y-82812000D01*
X91519190Y-82764380D01*
X84027166Y-79129000D02*
X83931928Y-79081380D01*
X83789071Y-79081380D01*
X83646214Y-79129000D01*
X83550976Y-79224238D01*
X83503357Y-79319476D01*
X83455738Y-79509952D01*
X83455738Y-79652809D01*
X83503357Y-79843285D01*
X83550976Y-79938523D01*
X83646214Y-80033761D01*
X83789071Y-80081380D01*
X83884309Y-80081380D01*
X84027166Y-80033761D01*
X84074785Y-79986142D01*
X84074785Y-79652809D01*
X83884309Y-79652809D01*
X84408119Y-79081380D02*
X85074785Y-79081380D01*
X84408119Y-80081380D01*
X85074785Y-80081380D01*
X85312880Y-79081380D02*
X85884309Y-79081380D01*
X85598595Y-80081380D02*
X85598595Y-79081380D01*
X86217642Y-79700428D02*
X86979547Y-79700428D01*
X87455738Y-79414714D02*
X87455738Y-80414714D01*
X87455738Y-79462333D02*
X87550976Y-79414714D01*
X87741452Y-79414714D01*
X87836690Y-79462333D01*
X87884309Y-79509952D01*
X87931928Y-79605190D01*
X87931928Y-79890904D01*
X87884309Y-79986142D01*
X87836690Y-80033761D01*
X87741452Y-80081380D01*
X87550976Y-80081380D01*
X87455738Y-80033761D01*
X88360500Y-80081380D02*
X88360500Y-79414714D01*
X88360500Y-79605190D02*
X88408119Y-79509952D01*
X88455738Y-79462333D01*
X88550976Y-79414714D01*
X88646214Y-79414714D01*
X89122404Y-80081380D02*
X89027166Y-80033761D01*
X88979547Y-79986142D01*
X88931928Y-79890904D01*
X88931928Y-79605190D01*
X88979547Y-79509952D01*
X89027166Y-79462333D01*
X89122404Y-79414714D01*
X89265261Y-79414714D01*
X89360500Y-79462333D01*
X89408119Y-79509952D01*
X89455738Y-79605190D01*
X89455738Y-79890904D01*
X89408119Y-79986142D01*
X89360500Y-80033761D01*
X89265261Y-80081380D01*
X89122404Y-80081380D01*
X89884309Y-79414714D02*
X89884309Y-80271857D01*
X89836690Y-80367095D01*
X89741452Y-80414714D01*
X89693833Y-80414714D01*
X89884309Y-79081380D02*
X89836690Y-79129000D01*
X89884309Y-79176619D01*
X89931928Y-79129000D01*
X89884309Y-79081380D01*
X89884309Y-79176619D01*
X90741452Y-80033761D02*
X90646214Y-80081380D01*
X90455738Y-80081380D01*
X90360500Y-80033761D01*
X90312880Y-79938523D01*
X90312880Y-79557571D01*
X90360500Y-79462333D01*
X90455738Y-79414714D01*
X90646214Y-79414714D01*
X90741452Y-79462333D01*
X90789071Y-79557571D01*
X90789071Y-79652809D01*
X90312880Y-79748047D01*
X91646214Y-80033761D02*
X91550976Y-80081380D01*
X91360500Y-80081380D01*
X91265261Y-80033761D01*
X91217642Y-79986142D01*
X91170023Y-79890904D01*
X91170023Y-79605190D01*
X91217642Y-79509952D01*
X91265261Y-79462333D01*
X91360500Y-79414714D01*
X91550976Y-79414714D01*
X91646214Y-79462333D01*
X91931928Y-79414714D02*
X92312880Y-79414714D01*
X92074785Y-79081380D02*
X92074785Y-79938523D01*
X92122404Y-80033761D01*
X92217642Y-80081380D01*
X92312880Y-80081380D01*
X92693833Y-80033761D02*
X92693833Y-80081380D01*
X92646214Y-80176619D01*
X92598595Y-80224238D01*
X93836690Y-79176619D02*
X93884309Y-79129000D01*
X93979547Y-79081380D01*
X94217642Y-79081380D01*
X94312880Y-79129000D01*
X94360500Y-79176619D01*
X94408119Y-79271857D01*
X94408119Y-79367095D01*
X94360500Y-79509952D01*
X93789071Y-80081380D01*
X94408119Y-80081380D01*
X95027166Y-79081380D02*
X95122404Y-79081380D01*
X95217642Y-79129000D01*
X95265261Y-79176619D01*
X95312880Y-79271857D01*
X95360500Y-79462333D01*
X95360500Y-79700428D01*
X95312880Y-79890904D01*
X95265261Y-79986142D01*
X95217642Y-80033761D01*
X95122404Y-80081380D01*
X95027166Y-80081380D01*
X94931928Y-80033761D01*
X94884309Y-79986142D01*
X94836690Y-79890904D01*
X94789071Y-79700428D01*
X94789071Y-79462333D01*
X94836690Y-79271857D01*
X94884309Y-79176619D01*
X94931928Y-79129000D01*
X95027166Y-79081380D01*
X95741452Y-79176619D02*
X95789071Y-79129000D01*
X95884309Y-79081380D01*
X96122404Y-79081380D01*
X96217642Y-79129000D01*
X96265261Y-79176619D01*
X96312880Y-79271857D01*
X96312880Y-79367095D01*
X96265261Y-79509952D01*
X95693833Y-80081380D01*
X96312880Y-80081380D01*
X96931928Y-79081380D02*
X97027166Y-79081380D01*
X97122404Y-79129000D01*
X97170023Y-79176619D01*
X97217642Y-79271857D01*
X97265261Y-79462333D01*
X97265261Y-79700428D01*
X97217642Y-79890904D01*
X97170023Y-79986142D01*
X97122404Y-80033761D01*
X97027166Y-80081380D01*
X96931928Y-80081380D01*
X96836690Y-80033761D01*
X96789071Y-79986142D01*
X96741452Y-79890904D01*
X96693833Y-79700428D01*
X96693833Y-79462333D01*
X96741452Y-79271857D01*
X96789071Y-79176619D01*
X96836690Y-79129000D01*
X96931928Y-79081380D01*
D11*
X81571666Y-85025666D02*
X81571666Y-84325666D01*
X81871666Y-85025666D02*
X81871666Y-84659000D01*
X81838333Y-84592333D01*
X81771666Y-84559000D01*
X81671666Y-84559000D01*
X81605000Y-84592333D01*
X81571666Y-84625666D01*
X82105000Y-84559000D02*
X82371666Y-84559000D01*
X82205000Y-84325666D02*
X82205000Y-84925666D01*
X82238333Y-84992333D01*
X82305000Y-85025666D01*
X82371666Y-85025666D01*
X82505000Y-84559000D02*
X82771666Y-84559000D01*
X82605000Y-84325666D02*
X82605000Y-84925666D01*
X82638333Y-84992333D01*
X82705000Y-85025666D01*
X82771666Y-85025666D01*
X83005000Y-84559000D02*
X83005000Y-85259000D01*
X83005000Y-84592333D02*
X83071666Y-84559000D01*
X83205000Y-84559000D01*
X83271666Y-84592333D01*
X83305000Y-84625666D01*
X83338333Y-84692333D01*
X83338333Y-84892333D01*
X83305000Y-84959000D01*
X83271666Y-84992333D01*
X83205000Y-85025666D01*
X83071666Y-85025666D01*
X83005000Y-84992333D01*
X83605000Y-84992333D02*
X83671666Y-85025666D01*
X83805000Y-85025666D01*
X83871666Y-84992333D01*
X83905000Y-84925666D01*
X83905000Y-84892333D01*
X83871666Y-84825666D01*
X83805000Y-84792333D01*
X83705000Y-84792333D01*
X83638333Y-84759000D01*
X83605000Y-84692333D01*
X83605000Y-84659000D01*
X83638333Y-84592333D01*
X83705000Y-84559000D01*
X83805000Y-84559000D01*
X83871666Y-84592333D01*
X84205000Y-84959000D02*
X84238333Y-84992333D01*
X84205000Y-85025666D01*
X84171666Y-84992333D01*
X84205000Y-84959000D01*
X84205000Y-85025666D01*
X84205000Y-84592333D02*
X84238333Y-84625666D01*
X84205000Y-84659000D01*
X84171666Y-84625666D01*
X84205000Y-84592333D01*
X84205000Y-84659000D01*
X85038333Y-84292333D02*
X84438333Y-85192333D01*
X85771666Y-84292333D02*
X85171666Y-85192333D01*
X86305000Y-84559000D02*
X86305000Y-85125666D01*
X86271666Y-85192333D01*
X86238333Y-85225666D01*
X86171666Y-85259000D01*
X86071666Y-85259000D01*
X86005000Y-85225666D01*
X86305000Y-84992333D02*
X86238333Y-85025666D01*
X86105000Y-85025666D01*
X86038333Y-84992333D01*
X86005000Y-84959000D01*
X85971666Y-84892333D01*
X85971666Y-84692333D01*
X86005000Y-84625666D01*
X86038333Y-84592333D01*
X86105000Y-84559000D01*
X86238333Y-84559000D01*
X86305000Y-84592333D01*
X86638333Y-85025666D02*
X86638333Y-84559000D01*
X86638333Y-84325666D02*
X86605000Y-84359000D01*
X86638333Y-84392333D01*
X86671666Y-84359000D01*
X86638333Y-84325666D01*
X86638333Y-84392333D01*
X86871666Y-84559000D02*
X87138333Y-84559000D01*
X86971666Y-84325666D02*
X86971666Y-84925666D01*
X87005000Y-84992333D01*
X87071666Y-85025666D01*
X87138333Y-85025666D01*
X87371666Y-85025666D02*
X87371666Y-84325666D01*
X87671666Y-85025666D02*
X87671666Y-84659000D01*
X87638333Y-84592333D01*
X87571666Y-84559000D01*
X87471666Y-84559000D01*
X87405000Y-84592333D01*
X87371666Y-84625666D01*
X88305000Y-84559000D02*
X88305000Y-85025666D01*
X88005000Y-84559000D02*
X88005000Y-84925666D01*
X88038333Y-84992333D01*
X88105000Y-85025666D01*
X88205000Y-85025666D01*
X88271666Y-84992333D01*
X88305000Y-84959000D01*
X88638333Y-85025666D02*
X88638333Y-84325666D01*
X88638333Y-84592333D02*
X88705000Y-84559000D01*
X88838333Y-84559000D01*
X88905000Y-84592333D01*
X88938333Y-84625666D01*
X88971666Y-84692333D01*
X88971666Y-84892333D01*
X88938333Y-84959000D01*
X88905000Y-84992333D01*
X88838333Y-85025666D01*
X88705000Y-85025666D01*
X88638333Y-84992333D01*
X89271666Y-84959000D02*
X89305000Y-84992333D01*
X89271666Y-85025666D01*
X89238333Y-84992333D01*
X89271666Y-84959000D01*
X89271666Y-85025666D01*
X89905000Y-84992333D02*
X89838333Y-85025666D01*
X89705000Y-85025666D01*
X89638333Y-84992333D01*
X89605000Y-84959000D01*
X89571666Y-84892333D01*
X89571666Y-84692333D01*
X89605000Y-84625666D01*
X89638333Y-84592333D01*
X89705000Y-84559000D01*
X89838333Y-84559000D01*
X89905000Y-84592333D01*
X90305000Y-85025666D02*
X90238333Y-84992333D01*
X90205000Y-84959000D01*
X90171666Y-84892333D01*
X90171666Y-84692333D01*
X90205000Y-84625666D01*
X90238333Y-84592333D01*
X90305000Y-84559000D01*
X90405000Y-84559000D01*
X90471666Y-84592333D01*
X90505000Y-84625666D01*
X90538333Y-84692333D01*
X90538333Y-84892333D01*
X90505000Y-84959000D01*
X90471666Y-84992333D01*
X90405000Y-85025666D01*
X90305000Y-85025666D01*
X90838333Y-85025666D02*
X90838333Y-84559000D01*
X90838333Y-84625666D02*
X90871666Y-84592333D01*
X90938333Y-84559000D01*
X91038333Y-84559000D01*
X91105000Y-84592333D01*
X91138333Y-84659000D01*
X91138333Y-85025666D01*
X91138333Y-84659000D02*
X91171666Y-84592333D01*
X91238333Y-84559000D01*
X91338333Y-84559000D01*
X91405000Y-84592333D01*
X91438333Y-84659000D01*
X91438333Y-85025666D01*
X92271666Y-84292333D02*
X91671666Y-85192333D01*
X92805000Y-84559000D02*
X92805000Y-85125666D01*
X92771666Y-85192333D01*
X92738333Y-85225666D01*
X92671666Y-85259000D01*
X92571666Y-85259000D01*
X92505000Y-85225666D01*
X92805000Y-84992333D02*
X92738333Y-85025666D01*
X92605000Y-85025666D01*
X92538333Y-84992333D01*
X92505000Y-84959000D01*
X92471666Y-84892333D01*
X92471666Y-84692333D01*
X92505000Y-84625666D01*
X92538333Y-84592333D01*
X92605000Y-84559000D01*
X92738333Y-84559000D01*
X92805000Y-84592333D01*
X93071666Y-84559000D02*
X93438333Y-84559000D01*
X93071666Y-85025666D01*
X93438333Y-85025666D01*
X93605000Y-84559000D02*
X93871666Y-84559000D01*
X93705000Y-84325666D02*
X93705000Y-84925666D01*
X93738333Y-84992333D01*
X93805000Y-85025666D01*
X93871666Y-85025666D01*
X94105000Y-84559000D02*
X94105000Y-85259000D01*
X94105000Y-84592333D02*
X94171666Y-84559000D01*
X94305000Y-84559000D01*
X94371666Y-84592333D01*
X94405000Y-84625666D01*
X94438333Y-84692333D01*
X94438333Y-84892333D01*
X94405000Y-84959000D01*
X94371666Y-84992333D01*
X94305000Y-85025666D01*
X94171666Y-85025666D01*
X94105000Y-84992333D01*
X94738333Y-85025666D02*
X94738333Y-84559000D01*
X94738333Y-84692333D02*
X94771666Y-84625666D01*
X94805000Y-84592333D01*
X94871666Y-84559000D01*
X94938333Y-84559000D01*
X95271666Y-85025666D02*
X95205000Y-84992333D01*
X95171666Y-84959000D01*
X95138333Y-84892333D01*
X95138333Y-84692333D01*
X95171666Y-84625666D01*
X95205000Y-84592333D01*
X95271666Y-84559000D01*
X95371666Y-84559000D01*
X95438333Y-84592333D01*
X95471666Y-84625666D01*
X95505000Y-84692333D01*
X95505000Y-84892333D01*
X95471666Y-84959000D01*
X95438333Y-84992333D01*
X95371666Y-85025666D01*
X95271666Y-85025666D01*
X95805000Y-84559000D02*
X95805000Y-85159000D01*
X95771666Y-85225666D01*
X95705000Y-85259000D01*
X95671666Y-85259000D01*
X95805000Y-84325666D02*
X95771666Y-84359000D01*
X95805000Y-84392333D01*
X95838333Y-84359000D01*
X95805000Y-84325666D01*
X95805000Y-84392333D01*
X96405000Y-84992333D02*
X96338333Y-85025666D01*
X96205000Y-85025666D01*
X96138333Y-84992333D01*
X96105000Y-84925666D01*
X96105000Y-84659000D01*
X96138333Y-84592333D01*
X96205000Y-84559000D01*
X96338333Y-84559000D01*
X96405000Y-84592333D01*
X96438333Y-84659000D01*
X96438333Y-84725666D01*
X96105000Y-84792333D01*
X97038333Y-84992333D02*
X96971666Y-85025666D01*
X96838333Y-85025666D01*
X96771666Y-84992333D01*
X96738333Y-84959000D01*
X96705000Y-84892333D01*
X96705000Y-84692333D01*
X96738333Y-84625666D01*
X96771666Y-84592333D01*
X96838333Y-84559000D01*
X96971666Y-84559000D01*
X97038333Y-84592333D01*
X97238333Y-84559000D02*
X97505000Y-84559000D01*
X97338333Y-84325666D02*
X97338333Y-84925666D01*
X97371666Y-84992333D01*
X97438333Y-85025666D01*
X97505000Y-85025666D01*
X98238333Y-84292333D02*
X97638333Y-85192333D01*
X98371666Y-84325666D02*
X98605000Y-85025666D01*
X98838333Y-84325666D01*
X99305000Y-84659000D02*
X99071666Y-84659000D01*
X99071666Y-85025666D02*
X99071666Y-84325666D01*
X99405000Y-84325666D01*
X99671666Y-85025666D02*
X99671666Y-84325666D01*
X99838333Y-84325666D01*
X99938333Y-84359000D01*
X100005000Y-84425666D01*
X100038333Y-84492333D01*
X100071666Y-84625666D01*
X100071666Y-84725666D01*
X100038333Y-84859000D01*
X100005000Y-84925666D01*
X99938333Y-84992333D01*
X99838333Y-85025666D01*
X99671666Y-85025666D01*
D10*
X143327595Y-45045380D02*
X143327595Y-45854904D01*
X143375214Y-45950142D01*
X143422833Y-45997761D01*
X143518071Y-46045380D01*
X143708547Y-46045380D01*
X143803785Y-45997761D01*
X143851404Y-45950142D01*
X143899023Y-45854904D01*
X143899023Y-45045380D01*
X144327595Y-45997761D02*
X144470452Y-46045380D01*
X144708547Y-46045380D01*
X144803785Y-45997761D01*
X144851404Y-45950142D01*
X144899023Y-45854904D01*
X144899023Y-45759666D01*
X144851404Y-45664428D01*
X144803785Y-45616809D01*
X144708547Y-45569190D01*
X144518071Y-45521571D01*
X144422833Y-45473952D01*
X144375214Y-45426333D01*
X144327595Y-45331095D01*
X144327595Y-45235857D01*
X144375214Y-45140619D01*
X144422833Y-45093000D01*
X144518071Y-45045380D01*
X144756166Y-45045380D01*
X144899023Y-45093000D01*
X145660928Y-45521571D02*
X145803785Y-45569190D01*
X145851404Y-45616809D01*
X145899023Y-45712047D01*
X145899023Y-45854904D01*
X145851404Y-45950142D01*
X145803785Y-45997761D01*
X145708547Y-46045380D01*
X145327595Y-46045380D01*
X145327595Y-45045380D01*
X145660928Y-45045380D01*
X145756166Y-45093000D01*
X145803785Y-45140619D01*
X145851404Y-45235857D01*
X145851404Y-45331095D01*
X145803785Y-45426333D01*
X145756166Y-45473952D01*
X145660928Y-45521571D01*
X145327595Y-45521571D01*
D12*
X48751000Y-38290500D02*
X48971000Y-38290500D01*
X66311000Y-38290500D02*
X66091000Y-38290500D01*
X48971000Y-41350500D02*
X66091000Y-41350500D01*
X48971000Y-35230500D02*
X48971000Y-41350500D01*
X66091000Y-35230500D02*
X48971000Y-35230500D01*
X66091000Y-41350500D02*
X66091000Y-35230500D01*
X77089000Y-84472000D02*
X77089000Y-84252000D01*
X77089000Y-66912000D02*
X77089000Y-67132000D01*
X80149000Y-84252000D02*
X80149000Y-67132000D01*
X74029000Y-84252000D02*
X80149000Y-84252000D01*
X74029000Y-67132000D02*
X74029000Y-84252000D01*
X80149000Y-67132000D02*
X74029000Y-67132000D01*
X134998000Y-88141000D02*
X153038000Y-88141000D01*
X134998000Y-44701000D02*
X134998000Y-88141000D01*
X153038000Y-44701000D02*
X134998000Y-44701000D01*
X150368000Y-47371000D02*
X153038000Y-47371000D01*
X150368000Y-82931000D02*
X150368000Y-47371000D01*
X150368000Y-82931000D02*
X153038000Y-82931000D01*
X137668000Y-47371000D02*
X134998000Y-47371000D01*
X137668000Y-85471000D02*
X137668000Y-47371000D01*
X137668000Y-85471000D02*
X134998000Y-85471000D01*
X153038000Y-88141000D02*
X153038000Y-85471000D01*
X153038000Y-82931000D02*
X153038000Y-44701000D01*
X150368000Y-85471000D02*
X153038000Y-85471000D01*
X150368000Y-82931000D02*
X150368000Y-85471000D01*
X121195000Y-79188000D02*
X119745000Y-79188000D01*
X121195000Y-89468000D02*
X121195000Y-79188000D01*
X116295000Y-89468000D02*
X121195000Y-89468000D01*
X116295000Y-79188000D02*
X116295000Y-89468000D01*
X117745000Y-79188000D02*
X116295000Y-79188000D01*
X119745000Y-79188000D02*
G75*
G02X117745000Y-79188000I-1000000J0D01*
G01*
X125055000Y-68175500D02*
X123615000Y-68175500D01*
X125055000Y-69615500D02*
X125055000Y-68175500D01*
X112835000Y-77295500D02*
X112835000Y-68555500D01*
X124675000Y-77295500D02*
X124675000Y-68555500D01*
X124675000Y-68555500D02*
X112835000Y-68555500D01*
X124675000Y-77295500D02*
X112835000Y-77295500D01*
X114157000Y-44758000D02*
X112157000Y-44758000D01*
X112157000Y-42618000D02*
X114157000Y-42618000D01*
X114157000Y-42345000D02*
X112157000Y-42345000D01*
X112157000Y-40205000D02*
X114157000Y-40205000D01*
X114157000Y-39805000D02*
X112157000Y-39805000D01*
X112157000Y-37665000D02*
X114157000Y-37665000D01*
X114157000Y-37265000D02*
X112157000Y-37265000D01*
X112157000Y-35125000D02*
X114157000Y-35125000D01*
X105808000Y-89468000D02*
X107458000Y-89468000D01*
X105808000Y-79188000D02*
X105808000Y-89468000D01*
X111108000Y-79188000D02*
X105808000Y-79188000D01*
X111108000Y-89468000D02*
X111108000Y-79188000D01*
X109458000Y-89468000D02*
X111108000Y-89468000D01*
X107458000Y-89468000D02*
G75*
G02X109458000Y-89468000I1000000J0D01*
G01*
X161325000Y-43855000D02*
X161325000Y-43525000D01*
X154905000Y-43855000D02*
X161325000Y-43855000D01*
X154905000Y-43525000D02*
X154905000Y-43855000D01*
X161325000Y-41235000D02*
X161325000Y-41565000D01*
X154905000Y-41235000D02*
X161325000Y-41235000D01*
X154905000Y-41565000D02*
X154905000Y-41235000D01*
X161325000Y-47284000D02*
X161325000Y-46954000D01*
X154905000Y-47284000D02*
X161325000Y-47284000D01*
X154905000Y-46954000D02*
X154905000Y-47284000D01*
X161325000Y-44664000D02*
X161325000Y-44994000D01*
X154905000Y-44664000D02*
X161325000Y-44664000D01*
X154905000Y-44994000D02*
X154905000Y-44664000D01*
X161325000Y-50713000D02*
X161325000Y-50383000D01*
X154905000Y-50713000D02*
X161325000Y-50713000D01*
X154905000Y-50383000D02*
X154905000Y-50713000D01*
X161325000Y-48093000D02*
X161325000Y-48423000D01*
X154905000Y-48093000D02*
X161325000Y-48093000D01*
X154905000Y-48423000D02*
X154905000Y-48093000D01*
X161325000Y-54142000D02*
X161325000Y-53812000D01*
X154905000Y-54142000D02*
X161325000Y-54142000D01*
X154905000Y-53812000D02*
X154905000Y-54142000D01*
X161325000Y-51522000D02*
X161325000Y-51852000D01*
X154905000Y-51522000D02*
X161325000Y-51522000D01*
X154905000Y-51852000D02*
X154905000Y-51522000D01*
X161325000Y-57571000D02*
X161325000Y-57241000D01*
X154905000Y-57571000D02*
X161325000Y-57571000D01*
X154905000Y-57241000D02*
X154905000Y-57571000D01*
X161325000Y-54951000D02*
X161325000Y-55281000D01*
X154905000Y-54951000D02*
X161325000Y-54951000D01*
X154905000Y-55281000D02*
X154905000Y-54951000D01*
X161325000Y-61000000D02*
X161325000Y-60670000D01*
X154905000Y-61000000D02*
X161325000Y-61000000D01*
X154905000Y-60670000D02*
X154905000Y-61000000D01*
X161325000Y-58380000D02*
X161325000Y-58710000D01*
X154905000Y-58380000D02*
X161325000Y-58380000D01*
X154905000Y-58710000D02*
X154905000Y-58380000D01*
X161325000Y-64429000D02*
X161325000Y-64099000D01*
X154905000Y-64429000D02*
X161325000Y-64429000D01*
X154905000Y-64099000D02*
X154905000Y-64429000D01*
X161325000Y-61809000D02*
X161325000Y-62139000D01*
X154905000Y-61809000D02*
X161325000Y-61809000D01*
X154905000Y-62139000D02*
X154905000Y-61809000D01*
X161325000Y-67858000D02*
X161325000Y-67528000D01*
X154905000Y-67858000D02*
X161325000Y-67858000D01*
X154905000Y-67528000D02*
X154905000Y-67858000D01*
X161325000Y-65238000D02*
X161325000Y-65568000D01*
X154905000Y-65238000D02*
X161325000Y-65238000D01*
X154905000Y-65568000D02*
X154905000Y-65238000D01*
X92329000Y-48370000D02*
X92329000Y-48600000D01*
X92329000Y-60850000D02*
X92329000Y-60620000D01*
X90019000Y-48600000D02*
X90019000Y-60620000D01*
X94639000Y-48600000D02*
X90019000Y-48600000D01*
X94639000Y-60620000D02*
X94639000Y-48600000D01*
X90019000Y-60620000D02*
X94639000Y-60620000D01*
X97790000Y-48370000D02*
X97790000Y-48600000D01*
X97790000Y-60850000D02*
X97790000Y-60620000D01*
X95480000Y-48600000D02*
X95480000Y-60620000D01*
X100100000Y-48600000D02*
X95480000Y-48600000D01*
X100100000Y-60620000D02*
X100100000Y-48600000D01*
X95480000Y-60620000D02*
X100100000Y-60620000D01*
X127802000Y-78514500D02*
X127472000Y-78514500D01*
X127802000Y-84934500D02*
X127802000Y-78514500D01*
X127472000Y-84934500D02*
X127802000Y-84934500D01*
X125182000Y-78514500D02*
X125512000Y-78514500D01*
X125182000Y-84934500D02*
X125182000Y-78514500D01*
X125512000Y-84934500D02*
X125182000Y-84934500D01*
X107788000Y-90130000D02*
X107788000Y-90460000D01*
X114208000Y-90130000D02*
X107788000Y-90130000D01*
X114208000Y-90460000D02*
X114208000Y-90130000D01*
X107788000Y-92750000D02*
X107788000Y-92420000D01*
X114208000Y-92750000D02*
X107788000Y-92750000D01*
X114208000Y-92420000D02*
X114208000Y-92750000D01*
X37338000Y-78864000D02*
X47498000Y-78864000D01*
X47498000Y-78864000D02*
X47498000Y-81714000D01*
X37338000Y-78864000D02*
X37338000Y-81714000D01*
X37338000Y-81714000D02*
X47498000Y-81714000D01*
X37338000Y-55877000D02*
X47498000Y-55877000D01*
X47498000Y-55877000D02*
X47498000Y-58727000D01*
X37338000Y-55877000D02*
X37338000Y-58727000D01*
X37338000Y-58727000D02*
X47498000Y-58727000D01*
X134751000Y-83074000D02*
X134751000Y-81074000D01*
X132711000Y-81074000D02*
X132711000Y-83074000D01*
X129360000Y-69438225D02*
X128860000Y-69438225D01*
X129110000Y-69188225D02*
X129110000Y-69688225D01*
X127919000Y-74594000D02*
X127351000Y-74594000D01*
X128153000Y-74554000D02*
X127117000Y-74554000D01*
X128312000Y-74514000D02*
X126958000Y-74514000D01*
X128440000Y-74474000D02*
X126830000Y-74474000D01*
X128550000Y-74434000D02*
X126720000Y-74434000D01*
X128646000Y-74394000D02*
X126624000Y-74394000D01*
X128733000Y-74354000D02*
X126537000Y-74354000D01*
X128813000Y-74314000D02*
X126457000Y-74314000D01*
X128886000Y-74274000D02*
X126384000Y-74274000D01*
X128954000Y-74234000D02*
X126316000Y-74234000D01*
X129018000Y-74194000D02*
X126252000Y-74194000D01*
X129078000Y-74154000D02*
X126192000Y-74154000D01*
X129135000Y-74114000D02*
X126135000Y-74114000D01*
X129189000Y-74074000D02*
X126081000Y-74074000D01*
X129240000Y-74034000D02*
X126030000Y-74034000D01*
X126595000Y-73994000D02*
X125982000Y-73994000D01*
X129288000Y-73994000D02*
X128675000Y-73994000D01*
X126595000Y-73954000D02*
X125936000Y-73954000D01*
X129334000Y-73954000D02*
X128675000Y-73954000D01*
X126595000Y-73914000D02*
X125892000Y-73914000D01*
X129378000Y-73914000D02*
X128675000Y-73914000D01*
X126595000Y-73874000D02*
X125850000Y-73874000D01*
X129420000Y-73874000D02*
X128675000Y-73874000D01*
X126595000Y-73834000D02*
X125809000Y-73834000D01*
X129461000Y-73834000D02*
X128675000Y-73834000D01*
X126595000Y-73794000D02*
X125771000Y-73794000D01*
X129499000Y-73794000D02*
X128675000Y-73794000D01*
X126595000Y-73754000D02*
X125734000Y-73754000D01*
X129536000Y-73754000D02*
X128675000Y-73754000D01*
X126595000Y-73714000D02*
X125698000Y-73714000D01*
X129572000Y-73714000D02*
X128675000Y-73714000D01*
X126595000Y-73674000D02*
X125664000Y-73674000D01*
X129606000Y-73674000D02*
X128675000Y-73674000D01*
X126595000Y-73634000D02*
X125631000Y-73634000D01*
X129639000Y-73634000D02*
X128675000Y-73634000D01*
X126595000Y-73594000D02*
X125600000Y-73594000D01*
X129670000Y-73594000D02*
X128675000Y-73594000D01*
X126595000Y-73554000D02*
X125570000Y-73554000D01*
X129700000Y-73554000D02*
X128675000Y-73554000D01*
X126595000Y-73514000D02*
X125540000Y-73514000D01*
X129730000Y-73514000D02*
X128675000Y-73514000D01*
X126595000Y-73474000D02*
X125513000Y-73474000D01*
X129757000Y-73474000D02*
X128675000Y-73474000D01*
X126595000Y-73434000D02*
X125486000Y-73434000D01*
X129784000Y-73434000D02*
X128675000Y-73434000D01*
X126595000Y-73394000D02*
X125460000Y-73394000D01*
X129810000Y-73394000D02*
X128675000Y-73394000D01*
X126595000Y-73354000D02*
X125435000Y-73354000D01*
X129835000Y-73354000D02*
X128675000Y-73354000D01*
X126595000Y-73314000D02*
X125411000Y-73314000D01*
X129859000Y-73314000D02*
X128675000Y-73314000D01*
X126595000Y-73274000D02*
X125388000Y-73274000D01*
X129882000Y-73274000D02*
X128675000Y-73274000D01*
X126595000Y-73234000D02*
X125367000Y-73234000D01*
X129903000Y-73234000D02*
X128675000Y-73234000D01*
X126595000Y-73194000D02*
X125345000Y-73194000D01*
X129925000Y-73194000D02*
X128675000Y-73194000D01*
X126595000Y-73154000D02*
X125325000Y-73154000D01*
X129945000Y-73154000D02*
X128675000Y-73154000D01*
X126595000Y-73114000D02*
X125306000Y-73114000D01*
X129964000Y-73114000D02*
X128675000Y-73114000D01*
X126595000Y-73074000D02*
X125287000Y-73074000D01*
X129983000Y-73074000D02*
X128675000Y-73074000D01*
X126595000Y-73034000D02*
X125270000Y-73034000D01*
X130000000Y-73034000D02*
X128675000Y-73034000D01*
X126595000Y-72994000D02*
X125253000Y-72994000D01*
X130017000Y-72994000D02*
X128675000Y-72994000D01*
X126595000Y-72954000D02*
X125237000Y-72954000D01*
X130033000Y-72954000D02*
X128675000Y-72954000D01*
X126595000Y-72914000D02*
X125221000Y-72914000D01*
X130049000Y-72914000D02*
X128675000Y-72914000D01*
X126595000Y-72874000D02*
X125207000Y-72874000D01*
X130063000Y-72874000D02*
X128675000Y-72874000D01*
X126595000Y-72834000D02*
X125193000Y-72834000D01*
X130077000Y-72834000D02*
X128675000Y-72834000D01*
X126595000Y-72794000D02*
X125180000Y-72794000D01*
X130090000Y-72794000D02*
X128675000Y-72794000D01*
X126595000Y-72754000D02*
X125167000Y-72754000D01*
X130103000Y-72754000D02*
X128675000Y-72754000D01*
X126595000Y-72714000D02*
X125155000Y-72714000D01*
X130115000Y-72714000D02*
X128675000Y-72714000D01*
X126595000Y-72673000D02*
X125144000Y-72673000D01*
X130126000Y-72673000D02*
X128675000Y-72673000D01*
X126595000Y-72633000D02*
X125134000Y-72633000D01*
X130136000Y-72633000D02*
X128675000Y-72633000D01*
X126595000Y-72593000D02*
X125124000Y-72593000D01*
X130146000Y-72593000D02*
X128675000Y-72593000D01*
X126595000Y-72553000D02*
X125115000Y-72553000D01*
X130155000Y-72553000D02*
X128675000Y-72553000D01*
X126595000Y-72513000D02*
X125107000Y-72513000D01*
X130163000Y-72513000D02*
X128675000Y-72513000D01*
X126595000Y-72473000D02*
X125099000Y-72473000D01*
X130171000Y-72473000D02*
X128675000Y-72473000D01*
X126595000Y-72433000D02*
X125092000Y-72433000D01*
X130178000Y-72433000D02*
X128675000Y-72433000D01*
X126595000Y-72393000D02*
X125085000Y-72393000D01*
X130185000Y-72393000D02*
X128675000Y-72393000D01*
X126595000Y-72353000D02*
X125079000Y-72353000D01*
X130191000Y-72353000D02*
X128675000Y-72353000D01*
X126595000Y-72313000D02*
X125074000Y-72313000D01*
X130196000Y-72313000D02*
X128675000Y-72313000D01*
X126595000Y-72273000D02*
X125070000Y-72273000D01*
X130200000Y-72273000D02*
X128675000Y-72273000D01*
X126595000Y-72233000D02*
X125066000Y-72233000D01*
X130204000Y-72233000D02*
X128675000Y-72233000D01*
X126595000Y-72193000D02*
X125062000Y-72193000D01*
X130208000Y-72193000D02*
X128675000Y-72193000D01*
X126595000Y-72153000D02*
X125059000Y-72153000D01*
X130211000Y-72153000D02*
X128675000Y-72153000D01*
X126595000Y-72113000D02*
X125057000Y-72113000D01*
X130213000Y-72113000D02*
X128675000Y-72113000D01*
X126595000Y-72073000D02*
X125056000Y-72073000D01*
X130214000Y-72073000D02*
X128675000Y-72073000D01*
X130215000Y-72033000D02*
X128675000Y-72033000D01*
X126595000Y-72033000D02*
X125055000Y-72033000D01*
X130215000Y-71993000D02*
X128675000Y-71993000D01*
X126595000Y-71993000D02*
X125055000Y-71993000D01*
X130255000Y-71993000D02*
G75*
G03X130255000Y-71993000I-2620000J0D01*
G01*
X37338000Y-61084000D02*
X47498000Y-61084000D01*
X47498000Y-61084000D02*
X47498000Y-63934000D01*
X37338000Y-61084000D02*
X37338000Y-63934000D01*
X37338000Y-63934000D02*
X47498000Y-63934000D01*
X37338000Y-50924000D02*
X47498000Y-50924000D01*
X47498000Y-50924000D02*
X47498000Y-53774000D01*
X37338000Y-50924000D02*
X37338000Y-53774000D01*
X37338000Y-53774000D02*
X47498000Y-53774000D01*
X37338000Y-73784000D02*
X47498000Y-73784000D01*
X47498000Y-73784000D02*
X47498000Y-76634000D01*
X37338000Y-73784000D02*
X37338000Y-76634000D01*
X37338000Y-76634000D02*
X47498000Y-76634000D01*
X49513500Y-73080500D02*
X54753500Y-73080500D01*
X49513500Y-82320500D02*
X54753500Y-82320500D01*
X54753500Y-82320500D02*
X54753500Y-73080500D01*
X49513500Y-82320500D02*
X49513500Y-73080500D01*
X93799000Y-68418000D02*
X90859000Y-68418000D01*
X93799000Y-68658000D02*
X90859000Y-68658000D01*
X93799000Y-68538000D02*
X90859000Y-68538000D01*
X92329000Y-74098000D02*
X92329000Y-73078000D01*
X92329000Y-66618000D02*
X92329000Y-67638000D01*
X93799000Y-73078000D02*
X93799000Y-67638000D01*
X90859000Y-73078000D02*
X93799000Y-73078000D01*
X90859000Y-67638000D02*
X90859000Y-73078000D01*
X93799000Y-67638000D02*
X90859000Y-67638000D01*
X76527000Y-35480000D02*
X76527000Y-36990000D01*
X72826000Y-35480000D02*
X72826000Y-36990000D01*
X69556000Y-36990000D02*
X79796000Y-36990000D01*
X79796000Y-35480000D02*
X79796000Y-40121000D01*
X69556000Y-35480000D02*
X69556000Y-40121000D01*
X69556000Y-40121000D02*
X79796000Y-40121000D01*
X69556000Y-35480000D02*
X79796000Y-35480000D01*
X88211000Y-35480000D02*
X88211000Y-36990000D01*
X84510000Y-35480000D02*
X84510000Y-36990000D01*
X81240000Y-36990000D02*
X91480000Y-36990000D01*
X91480000Y-35480000D02*
X91480000Y-40121000D01*
X81240000Y-35480000D02*
X81240000Y-40121000D01*
X81240000Y-40121000D02*
X91480000Y-40121000D01*
X81240000Y-35480000D02*
X91480000Y-35480000D01*
X99260000Y-68418000D02*
X96320000Y-68418000D01*
X99260000Y-68658000D02*
X96320000Y-68658000D01*
X99260000Y-68538000D02*
X96320000Y-68538000D01*
X97790000Y-74098000D02*
X97790000Y-73078000D01*
X97790000Y-66618000D02*
X97790000Y-67638000D01*
X99260000Y-73078000D02*
X99260000Y-67638000D01*
X96320000Y-73078000D02*
X99260000Y-73078000D01*
X96320000Y-67638000D02*
X96320000Y-73078000D01*
X99260000Y-67638000D02*
X96320000Y-67638000D01*
X74095000Y-52359000D02*
X77035000Y-52359000D01*
X74095000Y-52119000D02*
X77035000Y-52119000D01*
X74095000Y-52239000D02*
X77035000Y-52239000D01*
X77035000Y-47699000D02*
X76705000Y-47699000D01*
X77035000Y-53139000D02*
X77035000Y-47699000D01*
X76705000Y-53139000D02*
X77035000Y-53139000D01*
X74095000Y-47699000D02*
X74425000Y-47699000D01*
X74095000Y-53139000D02*
X74095000Y-47699000D01*
X74425000Y-53139000D02*
X74095000Y-53139000D01*
X77651000Y-59979000D02*
X80591000Y-59979000D01*
X77651000Y-59739000D02*
X80591000Y-59739000D01*
X77651000Y-59859000D02*
X80591000Y-59859000D01*
X80591000Y-55319000D02*
X80261000Y-55319000D01*
X80591000Y-60759000D02*
X80591000Y-55319000D01*
X80261000Y-60759000D02*
X80591000Y-60759000D01*
X77651000Y-55319000D02*
X77981000Y-55319000D01*
X77651000Y-60759000D02*
X77651000Y-55319000D01*
X77981000Y-60759000D02*
X77651000Y-60759000D01*
X86560000Y-58512000D02*
X83620000Y-58512000D01*
X86560000Y-58752000D02*
X83620000Y-58752000D01*
X86560000Y-58632000D02*
X83620000Y-58632000D01*
X83620000Y-63172000D02*
X83950000Y-63172000D01*
X83620000Y-57732000D02*
X83620000Y-63172000D01*
X83950000Y-57732000D02*
X83620000Y-57732000D01*
X86560000Y-63172000D02*
X86230000Y-63172000D01*
X86560000Y-57732000D02*
X86560000Y-63172000D01*
X86230000Y-57732000D02*
X86560000Y-57732000D01*
X86560000Y-48479000D02*
X83620000Y-48479000D01*
X86560000Y-48719000D02*
X83620000Y-48719000D01*
X86560000Y-48599000D02*
X83620000Y-48599000D01*
X83620000Y-53139000D02*
X83950000Y-53139000D01*
X83620000Y-47699000D02*
X83620000Y-53139000D01*
X83950000Y-47699000D02*
X83620000Y-47699000D01*
X86560000Y-53139000D02*
X86230000Y-53139000D01*
X86560000Y-47699000D02*
X86560000Y-53139000D01*
X86230000Y-47699000D02*
X86560000Y-47699000D01*
X76527000Y-40560000D02*
X76527000Y-42070000D01*
X72826000Y-40560000D02*
X72826000Y-42070000D01*
X69556000Y-42070000D02*
X79796000Y-42070000D01*
X79796000Y-40560000D02*
X79796000Y-45201000D01*
X69556000Y-40560000D02*
X69556000Y-45201000D01*
X69556000Y-45201000D02*
X79796000Y-45201000D01*
X69556000Y-40560000D02*
X79796000Y-40560000D01*
X100662000Y-68096000D02*
X100662000Y-45656000D01*
X134602000Y-45656000D02*
X134602000Y-68096000D01*
X100662000Y-45656000D02*
X134602000Y-45656000D01*
X100662000Y-68096000D02*
X134602000Y-68096000D01*
X101632000Y-45326000D02*
X107632000Y-45326000D01*
X94620000Y-92457000D02*
X95620000Y-92457000D01*
X94620000Y-92457000D02*
X94620000Y-91457000D01*
X100120000Y-89257000D02*
X97770000Y-89257000D01*
X100120000Y-90132000D02*
X100120000Y-89257000D01*
X100320000Y-90132000D02*
X100120000Y-90132000D01*
X100320000Y-90932000D02*
X100320000Y-90132000D01*
X100120000Y-90932000D02*
X100320000Y-90932000D01*
X100120000Y-91657000D02*
X100120000Y-90932000D01*
X97770000Y-91657000D02*
X100120000Y-91657000D01*
X95420000Y-89257000D02*
X97770000Y-89257000D01*
X95420000Y-90132000D02*
X95420000Y-89257000D01*
X95220000Y-90132000D02*
X95420000Y-90132000D01*
X95220000Y-90932000D02*
X95220000Y-90132000D01*
X95420000Y-90932000D02*
X95220000Y-90932000D01*
X95420000Y-91657000D02*
X95420000Y-90932000D01*
X97770000Y-91657000D02*
X95420000Y-91657000D01*
X100670000Y-88707000D02*
X94870000Y-88707000D01*
X100670000Y-92207000D02*
X100670000Y-88707000D01*
X94870000Y-92207000D02*
X100670000Y-92207000D01*
X94870000Y-88707000D02*
X94870000Y-92207000D01*
D10*
X165608000Y-78613000D02*
X165608000Y-55626000D01*
X170688000Y-55626000D02*
X170688000Y-78740000D01*
D13*
X165548000Y-55595500D02*
X170748000Y-55595500D01*
X165548000Y-78670500D02*
X170748000Y-78670500D01*
D12*
X88211000Y-40560000D02*
X88211000Y-42070000D01*
X84510000Y-40560000D02*
X84510000Y-42070000D01*
X81240000Y-42070000D02*
X91480000Y-42070000D01*
X91480000Y-40560000D02*
X91480000Y-45201000D01*
X81240000Y-40560000D02*
X81240000Y-45201000D01*
X81240000Y-45201000D02*
X91480000Y-45201000D01*
X81240000Y-40560000D02*
X91480000Y-40560000D01*
X37266500Y-49292500D02*
X37266500Y-44052500D01*
X46506500Y-49292500D02*
X46506500Y-44052500D01*
X46506500Y-44052500D02*
X37266500Y-44052500D01*
X46506500Y-49292500D02*
X37266500Y-49292500D01*
X73382000Y-78863500D02*
G75*
G03X73382000Y-78863500I-9120000J0D01*
G01*
X55181000Y-78863500D02*
X73343000Y-78863500D01*
X55182000Y-78823500D02*
X73342000Y-78823500D01*
X55182000Y-78783500D02*
X73342000Y-78783500D01*
X55182000Y-78743500D02*
X73342000Y-78743500D01*
X55183000Y-78703500D02*
X73341000Y-78703500D01*
X55184000Y-78663500D02*
X73340000Y-78663500D01*
X55185000Y-78623500D02*
X73339000Y-78623500D01*
X55186000Y-78583500D02*
X73338000Y-78583500D01*
X55187000Y-78543500D02*
X73337000Y-78543500D01*
X55189000Y-78503500D02*
X73335000Y-78503500D01*
X55190000Y-78463500D02*
X73334000Y-78463500D01*
X55192000Y-78423500D02*
X73332000Y-78423500D01*
X55194000Y-78383500D02*
X73330000Y-78383500D01*
X55196000Y-78343500D02*
X73328000Y-78343500D01*
X55199000Y-78303500D02*
X73325000Y-78303500D01*
X55201000Y-78263500D02*
X73323000Y-78263500D01*
X55204000Y-78223500D02*
X73320000Y-78223500D01*
X55207000Y-78183500D02*
X73317000Y-78183500D01*
X55210000Y-78142500D02*
X73314000Y-78142500D01*
X55213000Y-78102500D02*
X73311000Y-78102500D01*
X55217000Y-78062500D02*
X73307000Y-78062500D01*
X55220000Y-78022500D02*
X73304000Y-78022500D01*
X55224000Y-77982500D02*
X73300000Y-77982500D01*
X55228000Y-77942500D02*
X73296000Y-77942500D01*
X55232000Y-77902500D02*
X73292000Y-77902500D01*
X55236000Y-77862500D02*
X73288000Y-77862500D01*
X55241000Y-77822500D02*
X73283000Y-77822500D01*
X55246000Y-77782500D02*
X73278000Y-77782500D01*
X55251000Y-77742500D02*
X73273000Y-77742500D01*
X55256000Y-77702500D02*
X73268000Y-77702500D01*
X55261000Y-77662500D02*
X73263000Y-77662500D01*
X55266000Y-77622500D02*
X73258000Y-77622500D01*
X55272000Y-77582500D02*
X73252000Y-77582500D01*
X55278000Y-77542500D02*
X73246000Y-77542500D01*
X55283000Y-77502500D02*
X73241000Y-77502500D01*
X55290000Y-77462500D02*
X73234000Y-77462500D01*
X55296000Y-77422500D02*
X73228000Y-77422500D01*
X55302000Y-77382500D02*
X73222000Y-77382500D01*
X55309000Y-77342500D02*
X73215000Y-77342500D01*
X55316000Y-77302500D02*
X73208000Y-77302500D01*
X55323000Y-77262500D02*
X73201000Y-77262500D01*
X55330000Y-77222500D02*
X73194000Y-77222500D01*
X55338000Y-77182500D02*
X73186000Y-77182500D01*
X55345000Y-77142500D02*
X73179000Y-77142500D01*
X55353000Y-77102500D02*
X73171000Y-77102500D01*
X55361000Y-77062500D02*
X73163000Y-77062500D01*
X55369000Y-77022500D02*
X73155000Y-77022500D01*
X55377000Y-76982500D02*
X73147000Y-76982500D01*
X55386000Y-76942500D02*
X73138000Y-76942500D01*
X55395000Y-76902500D02*
X73129000Y-76902500D01*
X55404000Y-76862500D02*
X73120000Y-76862500D01*
X55413000Y-76822500D02*
X73111000Y-76822500D01*
X55422000Y-76782500D02*
X73102000Y-76782500D01*
X55431000Y-76742500D02*
X73093000Y-76742500D01*
X55441000Y-76702500D02*
X73083000Y-76702500D01*
X55451000Y-76662500D02*
X73073000Y-76662500D01*
X55461000Y-76622500D02*
X73063000Y-76622500D01*
X55471000Y-76582500D02*
X73053000Y-76582500D01*
X55482000Y-76542500D02*
X62822000Y-76542500D01*
X65702000Y-76542500D02*
X73042000Y-76542500D01*
X55492000Y-76502500D02*
X62822000Y-76502500D01*
X65702000Y-76502500D02*
X73032000Y-76502500D01*
X55503000Y-76462500D02*
X62822000Y-76462500D01*
X65702000Y-76462500D02*
X73021000Y-76462500D01*
X55514000Y-76422500D02*
X62822000Y-76422500D01*
X65702000Y-76422500D02*
X73010000Y-76422500D01*
X55525000Y-76382500D02*
X62822000Y-76382500D01*
X65702000Y-76382500D02*
X72999000Y-76382500D01*
X55537000Y-76342500D02*
X62822000Y-76342500D01*
X65702000Y-76342500D02*
X72987000Y-76342500D01*
X55548000Y-76302500D02*
X62822000Y-76302500D01*
X65702000Y-76302500D02*
X72976000Y-76302500D01*
X55560000Y-76262500D02*
X62822000Y-76262500D01*
X65702000Y-76262500D02*
X72964000Y-76262500D01*
X55572000Y-76222500D02*
X62822000Y-76222500D01*
X65702000Y-76222500D02*
X72952000Y-76222500D01*
X55584000Y-76182500D02*
X62822000Y-76182500D01*
X65702000Y-76182500D02*
X72940000Y-76182500D01*
X55597000Y-76142500D02*
X62822000Y-76142500D01*
X65702000Y-76142500D02*
X72927000Y-76142500D01*
X55609000Y-76102500D02*
X62822000Y-76102500D01*
X65702000Y-76102500D02*
X72915000Y-76102500D01*
X55622000Y-76062500D02*
X62822000Y-76062500D01*
X65702000Y-76062500D02*
X72902000Y-76062500D01*
X55635000Y-76022500D02*
X62822000Y-76022500D01*
X65702000Y-76022500D02*
X72889000Y-76022500D01*
X55648000Y-75982500D02*
X62822000Y-75982500D01*
X65702000Y-75982500D02*
X72876000Y-75982500D01*
X55662000Y-75942500D02*
X62822000Y-75942500D01*
X65702000Y-75942500D02*
X72862000Y-75942500D01*
X55675000Y-75902500D02*
X62822000Y-75902500D01*
X65702000Y-75902500D02*
X72849000Y-75902500D01*
X55689000Y-75862500D02*
X62822000Y-75862500D01*
X65702000Y-75862500D02*
X72835000Y-75862500D01*
X55703000Y-75822500D02*
X62822000Y-75822500D01*
X65702000Y-75822500D02*
X72821000Y-75822500D01*
X55717000Y-75782500D02*
X62822000Y-75782500D01*
X65702000Y-75782500D02*
X72807000Y-75782500D01*
X55732000Y-75742500D02*
X62822000Y-75742500D01*
X65702000Y-75742500D02*
X72792000Y-75742500D01*
X55746000Y-75702500D02*
X62822000Y-75702500D01*
X65702000Y-75702500D02*
X72778000Y-75702500D01*
X55761000Y-75662500D02*
X62822000Y-75662500D01*
X65702000Y-75662500D02*
X72763000Y-75662500D01*
X55776000Y-75622500D02*
X62822000Y-75622500D01*
X65702000Y-75622500D02*
X72748000Y-75622500D01*
X55792000Y-75582500D02*
X62822000Y-75582500D01*
X65702000Y-75582500D02*
X72732000Y-75582500D01*
X55807000Y-75542500D02*
X62822000Y-75542500D01*
X65702000Y-75542500D02*
X72717000Y-75542500D01*
X55823000Y-75502500D02*
X62822000Y-75502500D01*
X65702000Y-75502500D02*
X72701000Y-75502500D01*
X55839000Y-75462500D02*
X62822000Y-75462500D01*
X65702000Y-75462500D02*
X72685000Y-75462500D01*
X55855000Y-75422500D02*
X62822000Y-75422500D01*
X65702000Y-75422500D02*
X72669000Y-75422500D01*
X55872000Y-75382500D02*
X62822000Y-75382500D01*
X65702000Y-75382500D02*
X72652000Y-75382500D01*
X55888000Y-75342500D02*
X62822000Y-75342500D01*
X65702000Y-75342500D02*
X72636000Y-75342500D01*
X55905000Y-75302500D02*
X62822000Y-75302500D01*
X65702000Y-75302500D02*
X72619000Y-75302500D01*
X55922000Y-75262500D02*
X62822000Y-75262500D01*
X65702000Y-75262500D02*
X72602000Y-75262500D01*
X55939000Y-75222500D02*
X62822000Y-75222500D01*
X65702000Y-75222500D02*
X72585000Y-75222500D01*
X55957000Y-75182500D02*
X62822000Y-75182500D01*
X65702000Y-75182500D02*
X72567000Y-75182500D01*
X55975000Y-75142500D02*
X62822000Y-75142500D01*
X65702000Y-75142500D02*
X72549000Y-75142500D01*
X55993000Y-75102500D02*
X62822000Y-75102500D01*
X65702000Y-75102500D02*
X72531000Y-75102500D01*
X56011000Y-75062500D02*
X62822000Y-75062500D01*
X65702000Y-75062500D02*
X72513000Y-75062500D01*
X56029000Y-75022500D02*
X62822000Y-75022500D01*
X65702000Y-75022500D02*
X72495000Y-75022500D01*
X56048000Y-74982500D02*
X62822000Y-74982500D01*
X65702000Y-74982500D02*
X72476000Y-74982500D01*
X56067000Y-74942500D02*
X62822000Y-74942500D01*
X65702000Y-74942500D02*
X72457000Y-74942500D01*
X56086000Y-74902500D02*
X62822000Y-74902500D01*
X65702000Y-74902500D02*
X72438000Y-74902500D01*
X56106000Y-74862500D02*
X62822000Y-74862500D01*
X65702000Y-74862500D02*
X72418000Y-74862500D01*
X56125000Y-74822500D02*
X62822000Y-74822500D01*
X65702000Y-74822500D02*
X72399000Y-74822500D01*
X56145000Y-74782500D02*
X62822000Y-74782500D01*
X65702000Y-74782500D02*
X72379000Y-74782500D01*
X56165000Y-74742500D02*
X62822000Y-74742500D01*
X65702000Y-74742500D02*
X72359000Y-74742500D01*
X56186000Y-74702500D02*
X62822000Y-74702500D01*
X65702000Y-74702500D02*
X72338000Y-74702500D01*
X56206000Y-74662500D02*
X62822000Y-74662500D01*
X65702000Y-74662500D02*
X72318000Y-74662500D01*
X56227000Y-74622500D02*
X62822000Y-74622500D01*
X65702000Y-74622500D02*
X72297000Y-74622500D01*
X56248000Y-74582500D02*
X62822000Y-74582500D01*
X65702000Y-74582500D02*
X72276000Y-74582500D01*
X56270000Y-74542500D02*
X62822000Y-74542500D01*
X65702000Y-74542500D02*
X72254000Y-74542500D01*
X56291000Y-74502500D02*
X62822000Y-74502500D01*
X65702000Y-74502500D02*
X72233000Y-74502500D01*
X56313000Y-74462500D02*
X62822000Y-74462500D01*
X65702000Y-74462500D02*
X72211000Y-74462500D01*
X56335000Y-74422500D02*
X62822000Y-74422500D01*
X65702000Y-74422500D02*
X72189000Y-74422500D01*
X56358000Y-74382500D02*
X62822000Y-74382500D01*
X65702000Y-74382500D02*
X72166000Y-74382500D01*
X56380000Y-74342500D02*
X62822000Y-74342500D01*
X65702000Y-74342500D02*
X72144000Y-74342500D01*
X56403000Y-74302500D02*
X62822000Y-74302500D01*
X65702000Y-74302500D02*
X72121000Y-74302500D01*
X56427000Y-74262500D02*
X62822000Y-74262500D01*
X65702000Y-74262500D02*
X72097000Y-74262500D01*
X56450000Y-74222500D02*
X62822000Y-74222500D01*
X65702000Y-74222500D02*
X72074000Y-74222500D01*
X56474000Y-74182500D02*
X62822000Y-74182500D01*
X65702000Y-74182500D02*
X72050000Y-74182500D01*
X56498000Y-74142500D02*
X62822000Y-74142500D01*
X65702000Y-74142500D02*
X72026000Y-74142500D01*
X56522000Y-74102500D02*
X62822000Y-74102500D01*
X65702000Y-74102500D02*
X72002000Y-74102500D01*
X56547000Y-74062500D02*
X62822000Y-74062500D01*
X65702000Y-74062500D02*
X71977000Y-74062500D01*
X56572000Y-74022500D02*
X62822000Y-74022500D01*
X65702000Y-74022500D02*
X71952000Y-74022500D01*
X56597000Y-73982500D02*
X62822000Y-73982500D01*
X65702000Y-73982500D02*
X71927000Y-73982500D01*
X56622000Y-73942500D02*
X62822000Y-73942500D01*
X65702000Y-73942500D02*
X71902000Y-73942500D01*
X56648000Y-73902500D02*
X62822000Y-73902500D01*
X65702000Y-73902500D02*
X71876000Y-73902500D01*
X56674000Y-73862500D02*
X62822000Y-73862500D01*
X65702000Y-73862500D02*
X71850000Y-73862500D01*
X56701000Y-73822500D02*
X62822000Y-73822500D01*
X65702000Y-73822500D02*
X71823000Y-73822500D01*
X56727000Y-73782500D02*
X62822000Y-73782500D01*
X65702000Y-73782500D02*
X71797000Y-73782500D01*
X56754000Y-73742500D02*
X62822000Y-73742500D01*
X65702000Y-73742500D02*
X71770000Y-73742500D01*
X56782000Y-73702500D02*
X62822000Y-73702500D01*
X65702000Y-73702500D02*
X71742000Y-73702500D01*
X56809000Y-73662500D02*
X71715000Y-73662500D01*
X56837000Y-73622500D02*
X71687000Y-73622500D01*
X56865000Y-73582500D02*
X71659000Y-73582500D01*
X56894000Y-73542500D02*
X71630000Y-73542500D01*
X56923000Y-73502500D02*
X71601000Y-73502500D01*
X56952000Y-73462500D02*
X71572000Y-73462500D01*
X56982000Y-73422500D02*
X71542000Y-73422500D01*
X57012000Y-73382500D02*
X71512000Y-73382500D01*
X57042000Y-73342500D02*
X71482000Y-73342500D01*
X57072000Y-73302500D02*
X71452000Y-73302500D01*
X57103000Y-73262500D02*
X71421000Y-73262500D01*
X57135000Y-73222500D02*
X71389000Y-73222500D01*
X57166000Y-73182500D02*
X71358000Y-73182500D01*
X57198000Y-73142500D02*
X71326000Y-73142500D01*
X57231000Y-73102500D02*
X71293000Y-73102500D01*
X57263000Y-73062500D02*
X71261000Y-73062500D01*
X57297000Y-73022500D02*
X71227000Y-73022500D01*
X57330000Y-72982500D02*
X71194000Y-72982500D01*
X57364000Y-72942500D02*
X71160000Y-72942500D01*
X57398000Y-72902500D02*
X71126000Y-72902500D01*
X57433000Y-72862500D02*
X71091000Y-72862500D01*
X57468000Y-72822500D02*
X71056000Y-72822500D01*
X57504000Y-72782500D02*
X71020000Y-72782500D01*
X57540000Y-72742500D02*
X70984000Y-72742500D01*
X57576000Y-72702500D02*
X70948000Y-72702500D01*
X57613000Y-72662500D02*
X70911000Y-72662500D01*
X57650000Y-72622500D02*
X70874000Y-72622500D01*
X57688000Y-72582500D02*
X70836000Y-72582500D01*
X57726000Y-72542500D02*
X70798000Y-72542500D01*
X57765000Y-72502500D02*
X70759000Y-72502500D01*
X57804000Y-72462500D02*
X70720000Y-72462500D01*
X57844000Y-72422500D02*
X70680000Y-72422500D01*
X57884000Y-72382500D02*
X70640000Y-72382500D01*
X57925000Y-72342500D02*
X70599000Y-72342500D01*
X57966000Y-72302500D02*
X70558000Y-72302500D01*
X58008000Y-72262500D02*
X70516000Y-72262500D01*
X58050000Y-72222500D02*
X70474000Y-72222500D01*
X58092000Y-72182500D02*
X70432000Y-72182500D01*
X58136000Y-72142500D02*
X70388000Y-72142500D01*
X58180000Y-72102500D02*
X70344000Y-72102500D01*
X58224000Y-72062500D02*
X70300000Y-72062500D01*
X58269000Y-72022500D02*
X70255000Y-72022500D01*
X58315000Y-71982500D02*
X70209000Y-71982500D01*
X58361000Y-71942500D02*
X70163000Y-71942500D01*
X58408000Y-71902500D02*
X70116000Y-71902500D01*
X58456000Y-71862500D02*
X70068000Y-71862500D01*
X58504000Y-71822500D02*
X70020000Y-71822500D01*
X58553000Y-71782500D02*
X69971000Y-71782500D01*
X58602000Y-71742500D02*
X69922000Y-71742500D01*
X58653000Y-71702500D02*
X69871000Y-71702500D01*
X58704000Y-71662500D02*
X69820000Y-71662500D01*
X58756000Y-71622500D02*
X69768000Y-71622500D01*
X58808000Y-71582500D02*
X69716000Y-71582500D01*
X58862000Y-71542500D02*
X69662000Y-71542500D01*
X58916000Y-71502500D02*
X69608000Y-71502500D01*
X58971000Y-71462500D02*
X69553000Y-71462500D01*
X59027000Y-71422500D02*
X69497000Y-71422500D01*
X59084000Y-71382500D02*
X69440000Y-71382500D01*
X59142000Y-71342500D02*
X69382000Y-71342500D01*
X59200000Y-71302500D02*
X69324000Y-71302500D01*
X59260000Y-71262500D02*
X69264000Y-71262500D01*
X59321000Y-71222500D02*
X69203000Y-71222500D01*
X59383000Y-71182500D02*
X69141000Y-71182500D01*
X59446000Y-71142500D02*
X69078000Y-71142500D01*
X59510000Y-71102500D02*
X69014000Y-71102500D01*
X59576000Y-71062500D02*
X68948000Y-71062500D01*
X59642000Y-71022500D02*
X68882000Y-71022500D01*
X59710000Y-70982500D02*
X68814000Y-70982500D01*
X59780000Y-70942500D02*
X68744000Y-70942500D01*
X59850000Y-70902500D02*
X68674000Y-70902500D01*
X59923000Y-70862500D02*
X68601000Y-70862500D01*
X59997000Y-70822500D02*
X68527000Y-70822500D01*
X60072000Y-70782500D02*
X68452000Y-70782500D01*
X60149000Y-70742500D02*
X68375000Y-70742500D01*
X60229000Y-70702500D02*
X68295000Y-70702500D01*
X60310000Y-70663500D02*
X68214000Y-70663500D01*
X60393000Y-70623500D02*
X68131000Y-70623500D01*
X60478000Y-70583500D02*
X68046000Y-70583500D01*
X60566000Y-70543500D02*
X67958000Y-70543500D01*
X60657000Y-70503500D02*
X67867000Y-70503500D01*
X60750000Y-70463500D02*
X67774000Y-70463500D01*
X60846000Y-70423500D02*
X67678000Y-70423500D01*
X60945000Y-70383500D02*
X67579000Y-70383500D01*
X61048000Y-70343500D02*
X67476000Y-70343500D01*
X61155000Y-70303500D02*
X67369000Y-70303500D01*
X61266000Y-70263500D02*
X67258000Y-70263500D01*
X61382000Y-70223500D02*
X67142000Y-70223500D01*
X61503000Y-70183500D02*
X67021000Y-70183500D01*
X61630000Y-70143500D02*
X66894000Y-70143500D01*
X61764000Y-70103500D02*
X66760000Y-70103500D01*
X61907000Y-70063500D02*
X66617000Y-70063500D01*
X62059000Y-70023500D02*
X66465000Y-70023500D01*
X62223000Y-69983500D02*
X66301000Y-69983500D01*
X62402000Y-69943500D02*
X66122000Y-69943500D01*
X62601000Y-69903500D02*
X65923000Y-69903500D01*
X62827000Y-69863500D02*
X65697000Y-69863500D01*
X63096000Y-69823500D02*
X65428000Y-69823500D01*
X63448000Y-69783500D02*
X65076000Y-69783500D01*
X64222000Y-69743500D02*
X64302000Y-69743500D01*
X59147000Y-88622940D02*
X59147000Y-86822940D01*
X58247000Y-87722940D02*
X60047000Y-87722940D01*
X73128000Y-59369000D02*
G75*
G03X73128000Y-59369000I-9120000J0D01*
G01*
X54927000Y-59369000D02*
X73089000Y-59369000D01*
X54928000Y-59329000D02*
X73088000Y-59329000D01*
X54928000Y-59289000D02*
X73088000Y-59289000D01*
X54928000Y-59249000D02*
X73088000Y-59249000D01*
X54929000Y-59209000D02*
X73087000Y-59209000D01*
X54930000Y-59169000D02*
X73086000Y-59169000D01*
X54931000Y-59129000D02*
X73085000Y-59129000D01*
X54932000Y-59089000D02*
X73084000Y-59089000D01*
X54933000Y-59049000D02*
X73083000Y-59049000D01*
X54935000Y-59009000D02*
X73081000Y-59009000D01*
X54936000Y-58969000D02*
X73080000Y-58969000D01*
X54938000Y-58929000D02*
X73078000Y-58929000D01*
X54940000Y-58889000D02*
X73076000Y-58889000D01*
X54942000Y-58849000D02*
X73074000Y-58849000D01*
X54945000Y-58809000D02*
X73071000Y-58809000D01*
X54947000Y-58769000D02*
X73069000Y-58769000D01*
X54950000Y-58729000D02*
X73066000Y-58729000D01*
X54953000Y-58689000D02*
X73063000Y-58689000D01*
X54956000Y-58648000D02*
X73060000Y-58648000D01*
X54959000Y-58608000D02*
X73057000Y-58608000D01*
X54963000Y-58568000D02*
X73053000Y-58568000D01*
X54966000Y-58528000D02*
X73050000Y-58528000D01*
X54970000Y-58488000D02*
X73046000Y-58488000D01*
X54974000Y-58448000D02*
X73042000Y-58448000D01*
X54978000Y-58408000D02*
X73038000Y-58408000D01*
X54982000Y-58368000D02*
X73034000Y-58368000D01*
X54987000Y-58328000D02*
X73029000Y-58328000D01*
X54992000Y-58288000D02*
X73024000Y-58288000D01*
X54997000Y-58248000D02*
X73019000Y-58248000D01*
X55002000Y-58208000D02*
X73014000Y-58208000D01*
X55007000Y-58168000D02*
X73009000Y-58168000D01*
X55012000Y-58128000D02*
X73004000Y-58128000D01*
X55018000Y-58088000D02*
X72998000Y-58088000D01*
X55024000Y-58048000D02*
X72992000Y-58048000D01*
X55029000Y-58008000D02*
X72987000Y-58008000D01*
X55036000Y-57968000D02*
X72980000Y-57968000D01*
X55042000Y-57928000D02*
X72974000Y-57928000D01*
X55048000Y-57888000D02*
X72968000Y-57888000D01*
X55055000Y-57848000D02*
X72961000Y-57848000D01*
X55062000Y-57808000D02*
X72954000Y-57808000D01*
X55069000Y-57768000D02*
X72947000Y-57768000D01*
X55076000Y-57728000D02*
X72940000Y-57728000D01*
X55084000Y-57688000D02*
X72932000Y-57688000D01*
X55091000Y-57648000D02*
X72925000Y-57648000D01*
X55099000Y-57608000D02*
X72917000Y-57608000D01*
X55107000Y-57568000D02*
X72909000Y-57568000D01*
X55115000Y-57528000D02*
X72901000Y-57528000D01*
X55123000Y-57488000D02*
X72893000Y-57488000D01*
X55132000Y-57448000D02*
X72884000Y-57448000D01*
X55141000Y-57408000D02*
X72875000Y-57408000D01*
X55150000Y-57368000D02*
X72866000Y-57368000D01*
X55159000Y-57328000D02*
X72857000Y-57328000D01*
X55168000Y-57288000D02*
X72848000Y-57288000D01*
X55177000Y-57248000D02*
X72839000Y-57248000D01*
X55187000Y-57208000D02*
X72829000Y-57208000D01*
X55197000Y-57168000D02*
X72819000Y-57168000D01*
X55207000Y-57128000D02*
X72809000Y-57128000D01*
X55217000Y-57088000D02*
X72799000Y-57088000D01*
X55228000Y-57048000D02*
X62568000Y-57048000D01*
X65448000Y-57048000D02*
X72788000Y-57048000D01*
X55238000Y-57008000D02*
X62568000Y-57008000D01*
X65448000Y-57008000D02*
X72778000Y-57008000D01*
X55249000Y-56968000D02*
X62568000Y-56968000D01*
X65448000Y-56968000D02*
X72767000Y-56968000D01*
X55260000Y-56928000D02*
X62568000Y-56928000D01*
X65448000Y-56928000D02*
X72756000Y-56928000D01*
X55271000Y-56888000D02*
X62568000Y-56888000D01*
X65448000Y-56888000D02*
X72745000Y-56888000D01*
X55283000Y-56848000D02*
X62568000Y-56848000D01*
X65448000Y-56848000D02*
X72733000Y-56848000D01*
X55294000Y-56808000D02*
X62568000Y-56808000D01*
X65448000Y-56808000D02*
X72722000Y-56808000D01*
X55306000Y-56768000D02*
X62568000Y-56768000D01*
X65448000Y-56768000D02*
X72710000Y-56768000D01*
X55318000Y-56728000D02*
X62568000Y-56728000D01*
X65448000Y-56728000D02*
X72698000Y-56728000D01*
X55330000Y-56688000D02*
X62568000Y-56688000D01*
X65448000Y-56688000D02*
X72686000Y-56688000D01*
X55343000Y-56648000D02*
X62568000Y-56648000D01*
X65448000Y-56648000D02*
X72673000Y-56648000D01*
X55355000Y-56608000D02*
X62568000Y-56608000D01*
X65448000Y-56608000D02*
X72661000Y-56608000D01*
X55368000Y-56568000D02*
X62568000Y-56568000D01*
X65448000Y-56568000D02*
X72648000Y-56568000D01*
X55381000Y-56528000D02*
X62568000Y-56528000D01*
X65448000Y-56528000D02*
X72635000Y-56528000D01*
X55394000Y-56488000D02*
X62568000Y-56488000D01*
X65448000Y-56488000D02*
X72622000Y-56488000D01*
X55408000Y-56448000D02*
X62568000Y-56448000D01*
X65448000Y-56448000D02*
X72608000Y-56448000D01*
X55421000Y-56408000D02*
X62568000Y-56408000D01*
X65448000Y-56408000D02*
X72595000Y-56408000D01*
X55435000Y-56368000D02*
X62568000Y-56368000D01*
X65448000Y-56368000D02*
X72581000Y-56368000D01*
X55449000Y-56328000D02*
X62568000Y-56328000D01*
X65448000Y-56328000D02*
X72567000Y-56328000D01*
X55463000Y-56288000D02*
X62568000Y-56288000D01*
X65448000Y-56288000D02*
X72553000Y-56288000D01*
X55478000Y-56248000D02*
X62568000Y-56248000D01*
X65448000Y-56248000D02*
X72538000Y-56248000D01*
X55492000Y-56208000D02*
X62568000Y-56208000D01*
X65448000Y-56208000D02*
X72524000Y-56208000D01*
X55507000Y-56168000D02*
X62568000Y-56168000D01*
X65448000Y-56168000D02*
X72509000Y-56168000D01*
X55522000Y-56128000D02*
X62568000Y-56128000D01*
X65448000Y-56128000D02*
X72494000Y-56128000D01*
X55538000Y-56088000D02*
X62568000Y-56088000D01*
X65448000Y-56088000D02*
X72478000Y-56088000D01*
X55553000Y-56048000D02*
X62568000Y-56048000D01*
X65448000Y-56048000D02*
X72463000Y-56048000D01*
X55569000Y-56008000D02*
X62568000Y-56008000D01*
X65448000Y-56008000D02*
X72447000Y-56008000D01*
X55585000Y-55968000D02*
X62568000Y-55968000D01*
X65448000Y-55968000D02*
X72431000Y-55968000D01*
X55601000Y-55928000D02*
X62568000Y-55928000D01*
X65448000Y-55928000D02*
X72415000Y-55928000D01*
X55618000Y-55888000D02*
X62568000Y-55888000D01*
X65448000Y-55888000D02*
X72398000Y-55888000D01*
X55634000Y-55848000D02*
X62568000Y-55848000D01*
X65448000Y-55848000D02*
X72382000Y-55848000D01*
X55651000Y-55808000D02*
X62568000Y-55808000D01*
X65448000Y-55808000D02*
X72365000Y-55808000D01*
X55668000Y-55768000D02*
X62568000Y-55768000D01*
X65448000Y-55768000D02*
X72348000Y-55768000D01*
X55685000Y-55728000D02*
X62568000Y-55728000D01*
X65448000Y-55728000D02*
X72331000Y-55728000D01*
X55703000Y-55688000D02*
X62568000Y-55688000D01*
X65448000Y-55688000D02*
X72313000Y-55688000D01*
X55721000Y-55648000D02*
X62568000Y-55648000D01*
X65448000Y-55648000D02*
X72295000Y-55648000D01*
X55739000Y-55608000D02*
X62568000Y-55608000D01*
X65448000Y-55608000D02*
X72277000Y-55608000D01*
X55757000Y-55568000D02*
X62568000Y-55568000D01*
X65448000Y-55568000D02*
X72259000Y-55568000D01*
X55775000Y-55528000D02*
X62568000Y-55528000D01*
X65448000Y-55528000D02*
X72241000Y-55528000D01*
X55794000Y-55488000D02*
X62568000Y-55488000D01*
X65448000Y-55488000D02*
X72222000Y-55488000D01*
X55813000Y-55448000D02*
X62568000Y-55448000D01*
X65448000Y-55448000D02*
X72203000Y-55448000D01*
X55832000Y-55408000D02*
X62568000Y-55408000D01*
X65448000Y-55408000D02*
X72184000Y-55408000D01*
X55852000Y-55368000D02*
X62568000Y-55368000D01*
X65448000Y-55368000D02*
X72164000Y-55368000D01*
X55871000Y-55328000D02*
X62568000Y-55328000D01*
X65448000Y-55328000D02*
X72145000Y-55328000D01*
X55891000Y-55288000D02*
X62568000Y-55288000D01*
X65448000Y-55288000D02*
X72125000Y-55288000D01*
X55911000Y-55248000D02*
X62568000Y-55248000D01*
X65448000Y-55248000D02*
X72105000Y-55248000D01*
X55932000Y-55208000D02*
X62568000Y-55208000D01*
X65448000Y-55208000D02*
X72084000Y-55208000D01*
X55952000Y-55168000D02*
X62568000Y-55168000D01*
X65448000Y-55168000D02*
X72064000Y-55168000D01*
X55973000Y-55128000D02*
X62568000Y-55128000D01*
X65448000Y-55128000D02*
X72043000Y-55128000D01*
X55994000Y-55088000D02*
X62568000Y-55088000D01*
X65448000Y-55088000D02*
X72022000Y-55088000D01*
X56016000Y-55048000D02*
X62568000Y-55048000D01*
X65448000Y-55048000D02*
X72000000Y-55048000D01*
X56037000Y-55008000D02*
X62568000Y-55008000D01*
X65448000Y-55008000D02*
X71979000Y-55008000D01*
X56059000Y-54968000D02*
X62568000Y-54968000D01*
X65448000Y-54968000D02*
X71957000Y-54968000D01*
X56081000Y-54928000D02*
X62568000Y-54928000D01*
X65448000Y-54928000D02*
X71935000Y-54928000D01*
X56104000Y-54888000D02*
X62568000Y-54888000D01*
X65448000Y-54888000D02*
X71912000Y-54888000D01*
X56126000Y-54848000D02*
X62568000Y-54848000D01*
X65448000Y-54848000D02*
X71890000Y-54848000D01*
X56149000Y-54808000D02*
X62568000Y-54808000D01*
X65448000Y-54808000D02*
X71867000Y-54808000D01*
X56173000Y-54768000D02*
X62568000Y-54768000D01*
X65448000Y-54768000D02*
X71843000Y-54768000D01*
X56196000Y-54728000D02*
X62568000Y-54728000D01*
X65448000Y-54728000D02*
X71820000Y-54728000D01*
X56220000Y-54688000D02*
X62568000Y-54688000D01*
X65448000Y-54688000D02*
X71796000Y-54688000D01*
X56244000Y-54648000D02*
X62568000Y-54648000D01*
X65448000Y-54648000D02*
X71772000Y-54648000D01*
X56268000Y-54608000D02*
X62568000Y-54608000D01*
X65448000Y-54608000D02*
X71748000Y-54608000D01*
X56293000Y-54568000D02*
X62568000Y-54568000D01*
X65448000Y-54568000D02*
X71723000Y-54568000D01*
X56318000Y-54528000D02*
X62568000Y-54528000D01*
X65448000Y-54528000D02*
X71698000Y-54528000D01*
X56343000Y-54488000D02*
X62568000Y-54488000D01*
X65448000Y-54488000D02*
X71673000Y-54488000D01*
X56368000Y-54448000D02*
X62568000Y-54448000D01*
X65448000Y-54448000D02*
X71648000Y-54448000D01*
X56394000Y-54408000D02*
X62568000Y-54408000D01*
X65448000Y-54408000D02*
X71622000Y-54408000D01*
X56420000Y-54368000D02*
X62568000Y-54368000D01*
X65448000Y-54368000D02*
X71596000Y-54368000D01*
X56447000Y-54328000D02*
X62568000Y-54328000D01*
X65448000Y-54328000D02*
X71569000Y-54328000D01*
X56473000Y-54288000D02*
X62568000Y-54288000D01*
X65448000Y-54288000D02*
X71543000Y-54288000D01*
X56500000Y-54248000D02*
X62568000Y-54248000D01*
X65448000Y-54248000D02*
X71516000Y-54248000D01*
X56528000Y-54208000D02*
X62568000Y-54208000D01*
X65448000Y-54208000D02*
X71488000Y-54208000D01*
X56555000Y-54168000D02*
X71461000Y-54168000D01*
X56583000Y-54128000D02*
X71433000Y-54128000D01*
X56611000Y-54088000D02*
X71405000Y-54088000D01*
X56640000Y-54048000D02*
X71376000Y-54048000D01*
X56669000Y-54008000D02*
X71347000Y-54008000D01*
X56698000Y-53968000D02*
X71318000Y-53968000D01*
X56728000Y-53928000D02*
X71288000Y-53928000D01*
X56758000Y-53888000D02*
X71258000Y-53888000D01*
X56788000Y-53848000D02*
X71228000Y-53848000D01*
X56818000Y-53808000D02*
X71198000Y-53808000D01*
X56849000Y-53768000D02*
X71167000Y-53768000D01*
X56881000Y-53728000D02*
X71135000Y-53728000D01*
X56912000Y-53688000D02*
X71104000Y-53688000D01*
X56944000Y-53648000D02*
X71072000Y-53648000D01*
X56977000Y-53608000D02*
X71039000Y-53608000D01*
X57009000Y-53568000D02*
X71007000Y-53568000D01*
X57043000Y-53528000D02*
X70973000Y-53528000D01*
X57076000Y-53488000D02*
X70940000Y-53488000D01*
X57110000Y-53448000D02*
X70906000Y-53448000D01*
X57144000Y-53408000D02*
X70872000Y-53408000D01*
X57179000Y-53368000D02*
X70837000Y-53368000D01*
X57214000Y-53328000D02*
X70802000Y-53328000D01*
X57250000Y-53288000D02*
X70766000Y-53288000D01*
X57286000Y-53248000D02*
X70730000Y-53248000D01*
X57322000Y-53208000D02*
X70694000Y-53208000D01*
X57359000Y-53168000D02*
X70657000Y-53168000D01*
X57396000Y-53128000D02*
X70620000Y-53128000D01*
X57434000Y-53088000D02*
X70582000Y-53088000D01*
X57472000Y-53048000D02*
X70544000Y-53048000D01*
X57511000Y-53008000D02*
X70505000Y-53008000D01*
X57550000Y-52968000D02*
X70466000Y-52968000D01*
X57590000Y-52928000D02*
X70426000Y-52928000D01*
X57630000Y-52888000D02*
X70386000Y-52888000D01*
X57671000Y-52848000D02*
X70345000Y-52848000D01*
X57712000Y-52808000D02*
X70304000Y-52808000D01*
X57754000Y-52768000D02*
X70262000Y-52768000D01*
X57796000Y-52728000D02*
X70220000Y-52728000D01*
X57838000Y-52688000D02*
X70178000Y-52688000D01*
X57882000Y-52648000D02*
X70134000Y-52648000D01*
X57926000Y-52608000D02*
X70090000Y-52608000D01*
X57970000Y-52568000D02*
X70046000Y-52568000D01*
X58015000Y-52528000D02*
X70001000Y-52528000D01*
X58061000Y-52488000D02*
X69955000Y-52488000D01*
X58107000Y-52448000D02*
X69909000Y-52448000D01*
X58154000Y-52408000D02*
X69862000Y-52408000D01*
X58202000Y-52368000D02*
X69814000Y-52368000D01*
X58250000Y-52328000D02*
X69766000Y-52328000D01*
X58299000Y-52288000D02*
X69717000Y-52288000D01*
X58348000Y-52248000D02*
X69668000Y-52248000D01*
X58399000Y-52208000D02*
X69617000Y-52208000D01*
X58450000Y-52168000D02*
X69566000Y-52168000D01*
X58502000Y-52128000D02*
X69514000Y-52128000D01*
X58554000Y-52088000D02*
X69462000Y-52088000D01*
X58608000Y-52048000D02*
X69408000Y-52048000D01*
X58662000Y-52008000D02*
X69354000Y-52008000D01*
X58717000Y-51968000D02*
X69299000Y-51968000D01*
X58773000Y-51928000D02*
X69243000Y-51928000D01*
X58830000Y-51888000D02*
X69186000Y-51888000D01*
X58888000Y-51848000D02*
X69128000Y-51848000D01*
X58946000Y-51808000D02*
X69070000Y-51808000D01*
X59006000Y-51768000D02*
X69010000Y-51768000D01*
X59067000Y-51728000D02*
X68949000Y-51728000D01*
X59129000Y-51688000D02*
X68887000Y-51688000D01*
X59192000Y-51648000D02*
X68824000Y-51648000D01*
X59256000Y-51608000D02*
X68760000Y-51608000D01*
X59322000Y-51568000D02*
X68694000Y-51568000D01*
X59388000Y-51528000D02*
X68628000Y-51528000D01*
X59456000Y-51488000D02*
X68560000Y-51488000D01*
X59526000Y-51448000D02*
X68490000Y-51448000D01*
X59596000Y-51408000D02*
X68420000Y-51408000D01*
X59669000Y-51368000D02*
X68347000Y-51368000D01*
X59743000Y-51328000D02*
X68273000Y-51328000D01*
X59818000Y-51288000D02*
X68198000Y-51288000D01*
X59895000Y-51248000D02*
X68121000Y-51248000D01*
X59975000Y-51208000D02*
X68041000Y-51208000D01*
X60056000Y-51169000D02*
X67960000Y-51169000D01*
X60139000Y-51129000D02*
X67877000Y-51129000D01*
X60224000Y-51089000D02*
X67792000Y-51089000D01*
X60312000Y-51049000D02*
X67704000Y-51049000D01*
X60403000Y-51009000D02*
X67613000Y-51009000D01*
X60496000Y-50969000D02*
X67520000Y-50969000D01*
X60592000Y-50929000D02*
X67424000Y-50929000D01*
X60691000Y-50889000D02*
X67325000Y-50889000D01*
X60794000Y-50849000D02*
X67222000Y-50849000D01*
X60901000Y-50809000D02*
X67115000Y-50809000D01*
X61012000Y-50769000D02*
X67004000Y-50769000D01*
X61128000Y-50729000D02*
X66888000Y-50729000D01*
X61249000Y-50689000D02*
X66767000Y-50689000D01*
X61376000Y-50649000D02*
X66640000Y-50649000D01*
X61510000Y-50609000D02*
X66506000Y-50609000D01*
X61653000Y-50569000D02*
X66363000Y-50569000D01*
X61805000Y-50529000D02*
X66211000Y-50529000D01*
X61969000Y-50489000D02*
X66047000Y-50489000D01*
X62148000Y-50449000D02*
X65868000Y-50449000D01*
X62347000Y-50409000D02*
X65669000Y-50409000D01*
X62573000Y-50369000D02*
X65443000Y-50369000D01*
X62842000Y-50329000D02*
X65174000Y-50329000D01*
X63194000Y-50289000D02*
X64822000Y-50289000D01*
X63968000Y-50249000D02*
X64048000Y-50249000D01*
X58893000Y-69128440D02*
X58893000Y-67328440D01*
X57993000Y-68228440D02*
X59793000Y-68228440D01*
X107776000Y-42529000D02*
G75*
G03X107776000Y-42529000I-2620000J0D01*
G01*
X104116000Y-42529000D02*
X102576000Y-42529000D01*
X107736000Y-42529000D02*
X106196000Y-42529000D01*
X104116000Y-42569000D02*
X102576000Y-42569000D01*
X107736000Y-42569000D02*
X106196000Y-42569000D01*
X107735000Y-42609000D02*
X106196000Y-42609000D01*
X104116000Y-42609000D02*
X102577000Y-42609000D01*
X107734000Y-42649000D02*
X106196000Y-42649000D01*
X104116000Y-42649000D02*
X102578000Y-42649000D01*
X107732000Y-42689000D02*
X106196000Y-42689000D01*
X104116000Y-42689000D02*
X102580000Y-42689000D01*
X107729000Y-42729000D02*
X106196000Y-42729000D01*
X104116000Y-42729000D02*
X102583000Y-42729000D01*
X107725000Y-42769000D02*
X106196000Y-42769000D01*
X104116000Y-42769000D02*
X102587000Y-42769000D01*
X107721000Y-42809000D02*
X106196000Y-42809000D01*
X104116000Y-42809000D02*
X102591000Y-42809000D01*
X107717000Y-42849000D02*
X106196000Y-42849000D01*
X104116000Y-42849000D02*
X102595000Y-42849000D01*
X107712000Y-42889000D02*
X106196000Y-42889000D01*
X104116000Y-42889000D02*
X102600000Y-42889000D01*
X107706000Y-42929000D02*
X106196000Y-42929000D01*
X104116000Y-42929000D02*
X102606000Y-42929000D01*
X107699000Y-42969000D02*
X106196000Y-42969000D01*
X104116000Y-42969000D02*
X102613000Y-42969000D01*
X107692000Y-43009000D02*
X106196000Y-43009000D01*
X104116000Y-43009000D02*
X102620000Y-43009000D01*
X107684000Y-43049000D02*
X106196000Y-43049000D01*
X104116000Y-43049000D02*
X102628000Y-43049000D01*
X107676000Y-43089000D02*
X106196000Y-43089000D01*
X104116000Y-43089000D02*
X102636000Y-43089000D01*
X107667000Y-43129000D02*
X106196000Y-43129000D01*
X104116000Y-43129000D02*
X102645000Y-43129000D01*
X107657000Y-43169000D02*
X106196000Y-43169000D01*
X104116000Y-43169000D02*
X102655000Y-43169000D01*
X107647000Y-43209000D02*
X106196000Y-43209000D01*
X104116000Y-43209000D02*
X102665000Y-43209000D01*
X107636000Y-43250000D02*
X106196000Y-43250000D01*
X104116000Y-43250000D02*
X102676000Y-43250000D01*
X107624000Y-43290000D02*
X106196000Y-43290000D01*
X104116000Y-43290000D02*
X102688000Y-43290000D01*
X107611000Y-43330000D02*
X106196000Y-43330000D01*
X104116000Y-43330000D02*
X102701000Y-43330000D01*
X107598000Y-43370000D02*
X106196000Y-43370000D01*
X104116000Y-43370000D02*
X102714000Y-43370000D01*
X107584000Y-43410000D02*
X106196000Y-43410000D01*
X104116000Y-43410000D02*
X102728000Y-43410000D01*
X107570000Y-43450000D02*
X106196000Y-43450000D01*
X104116000Y-43450000D02*
X102742000Y-43450000D01*
X107554000Y-43490000D02*
X106196000Y-43490000D01*
X104116000Y-43490000D02*
X102758000Y-43490000D01*
X107538000Y-43530000D02*
X106196000Y-43530000D01*
X104116000Y-43530000D02*
X102774000Y-43530000D01*
X107521000Y-43570000D02*
X106196000Y-43570000D01*
X104116000Y-43570000D02*
X102791000Y-43570000D01*
X107504000Y-43610000D02*
X106196000Y-43610000D01*
X104116000Y-43610000D02*
X102808000Y-43610000D01*
X107485000Y-43650000D02*
X106196000Y-43650000D01*
X104116000Y-43650000D02*
X102827000Y-43650000D01*
X107466000Y-43690000D02*
X106196000Y-43690000D01*
X104116000Y-43690000D02*
X102846000Y-43690000D01*
X107446000Y-43730000D02*
X106196000Y-43730000D01*
X104116000Y-43730000D02*
X102866000Y-43730000D01*
X107424000Y-43770000D02*
X106196000Y-43770000D01*
X104116000Y-43770000D02*
X102888000Y-43770000D01*
X107403000Y-43810000D02*
X106196000Y-43810000D01*
X104116000Y-43810000D02*
X102909000Y-43810000D01*
X107380000Y-43850000D02*
X106196000Y-43850000D01*
X104116000Y-43850000D02*
X102932000Y-43850000D01*
X107356000Y-43890000D02*
X106196000Y-43890000D01*
X104116000Y-43890000D02*
X102956000Y-43890000D01*
X107331000Y-43930000D02*
X106196000Y-43930000D01*
X104116000Y-43930000D02*
X102981000Y-43930000D01*
X107305000Y-43970000D02*
X106196000Y-43970000D01*
X104116000Y-43970000D02*
X103007000Y-43970000D01*
X107278000Y-44010000D02*
X106196000Y-44010000D01*
X104116000Y-44010000D02*
X103034000Y-44010000D01*
X107251000Y-44050000D02*
X106196000Y-44050000D01*
X104116000Y-44050000D02*
X103061000Y-44050000D01*
X107221000Y-44090000D02*
X106196000Y-44090000D01*
X104116000Y-44090000D02*
X103091000Y-44090000D01*
X107191000Y-44130000D02*
X106196000Y-44130000D01*
X104116000Y-44130000D02*
X103121000Y-44130000D01*
X107160000Y-44170000D02*
X106196000Y-44170000D01*
X104116000Y-44170000D02*
X103152000Y-44170000D01*
X107127000Y-44210000D02*
X106196000Y-44210000D01*
X104116000Y-44210000D02*
X103185000Y-44210000D01*
X107093000Y-44250000D02*
X106196000Y-44250000D01*
X104116000Y-44250000D02*
X103219000Y-44250000D01*
X107057000Y-44290000D02*
X106196000Y-44290000D01*
X104116000Y-44290000D02*
X103255000Y-44290000D01*
X107020000Y-44330000D02*
X106196000Y-44330000D01*
X104116000Y-44330000D02*
X103292000Y-44330000D01*
X106982000Y-44370000D02*
X106196000Y-44370000D01*
X104116000Y-44370000D02*
X103330000Y-44370000D01*
X106941000Y-44410000D02*
X106196000Y-44410000D01*
X104116000Y-44410000D02*
X103371000Y-44410000D01*
X106899000Y-44450000D02*
X106196000Y-44450000D01*
X104116000Y-44450000D02*
X103413000Y-44450000D01*
X106855000Y-44490000D02*
X106196000Y-44490000D01*
X104116000Y-44490000D02*
X103457000Y-44490000D01*
X106809000Y-44530000D02*
X106196000Y-44530000D01*
X104116000Y-44530000D02*
X103503000Y-44530000D01*
X106761000Y-44570000D02*
X103551000Y-44570000D01*
X106710000Y-44610000D02*
X103602000Y-44610000D01*
X106656000Y-44650000D02*
X103656000Y-44650000D01*
X106599000Y-44690000D02*
X103713000Y-44690000D01*
X106539000Y-44730000D02*
X103773000Y-44730000D01*
X106475000Y-44770000D02*
X103837000Y-44770000D01*
X106407000Y-44810000D02*
X103905000Y-44810000D01*
X106334000Y-44850000D02*
X103978000Y-44850000D01*
X106254000Y-44890000D02*
X104058000Y-44890000D01*
X106167000Y-44930000D02*
X104145000Y-44930000D01*
X106071000Y-44970000D02*
X104241000Y-44970000D01*
X105961000Y-45010000D02*
X104351000Y-45010000D01*
X105833000Y-45050000D02*
X104479000Y-45050000D01*
X105674000Y-45090000D02*
X104638000Y-45090000D01*
X105440000Y-45130000D02*
X104872000Y-45130000D01*
X106631000Y-39724225D02*
X106631000Y-40224225D01*
X106881000Y-39974225D02*
X106381000Y-39974225D01*
X102188000Y-42529000D02*
G75*
G03X102188000Y-42529000I-2620000J0D01*
G01*
X98528000Y-42529000D02*
X96988000Y-42529000D01*
X102148000Y-42529000D02*
X100608000Y-42529000D01*
X98528000Y-42569000D02*
X96988000Y-42569000D01*
X102148000Y-42569000D02*
X100608000Y-42569000D01*
X102147000Y-42609000D02*
X100608000Y-42609000D01*
X98528000Y-42609000D02*
X96989000Y-42609000D01*
X102146000Y-42649000D02*
X100608000Y-42649000D01*
X98528000Y-42649000D02*
X96990000Y-42649000D01*
X102144000Y-42689000D02*
X100608000Y-42689000D01*
X98528000Y-42689000D02*
X96992000Y-42689000D01*
X102141000Y-42729000D02*
X100608000Y-42729000D01*
X98528000Y-42729000D02*
X96995000Y-42729000D01*
X102137000Y-42769000D02*
X100608000Y-42769000D01*
X98528000Y-42769000D02*
X96999000Y-42769000D01*
X102133000Y-42809000D02*
X100608000Y-42809000D01*
X98528000Y-42809000D02*
X97003000Y-42809000D01*
X102129000Y-42849000D02*
X100608000Y-42849000D01*
X98528000Y-42849000D02*
X97007000Y-42849000D01*
X102124000Y-42889000D02*
X100608000Y-42889000D01*
X98528000Y-42889000D02*
X97012000Y-42889000D01*
X102118000Y-42929000D02*
X100608000Y-42929000D01*
X98528000Y-42929000D02*
X97018000Y-42929000D01*
X102111000Y-42969000D02*
X100608000Y-42969000D01*
X98528000Y-42969000D02*
X97025000Y-42969000D01*
X102104000Y-43009000D02*
X100608000Y-43009000D01*
X98528000Y-43009000D02*
X97032000Y-43009000D01*
X102096000Y-43049000D02*
X100608000Y-43049000D01*
X98528000Y-43049000D02*
X97040000Y-43049000D01*
X102088000Y-43089000D02*
X100608000Y-43089000D01*
X98528000Y-43089000D02*
X97048000Y-43089000D01*
X102079000Y-43129000D02*
X100608000Y-43129000D01*
X98528000Y-43129000D02*
X97057000Y-43129000D01*
X102069000Y-43169000D02*
X100608000Y-43169000D01*
X98528000Y-43169000D02*
X97067000Y-43169000D01*
X102059000Y-43209000D02*
X100608000Y-43209000D01*
X98528000Y-43209000D02*
X97077000Y-43209000D01*
X102048000Y-43250000D02*
X100608000Y-43250000D01*
X98528000Y-43250000D02*
X97088000Y-43250000D01*
X102036000Y-43290000D02*
X100608000Y-43290000D01*
X98528000Y-43290000D02*
X97100000Y-43290000D01*
X102023000Y-43330000D02*
X100608000Y-43330000D01*
X98528000Y-43330000D02*
X97113000Y-43330000D01*
X102010000Y-43370000D02*
X100608000Y-43370000D01*
X98528000Y-43370000D02*
X97126000Y-43370000D01*
X101996000Y-43410000D02*
X100608000Y-43410000D01*
X98528000Y-43410000D02*
X97140000Y-43410000D01*
X101982000Y-43450000D02*
X100608000Y-43450000D01*
X98528000Y-43450000D02*
X97154000Y-43450000D01*
X101966000Y-43490000D02*
X100608000Y-43490000D01*
X98528000Y-43490000D02*
X97170000Y-43490000D01*
X101950000Y-43530000D02*
X100608000Y-43530000D01*
X98528000Y-43530000D02*
X97186000Y-43530000D01*
X101933000Y-43570000D02*
X100608000Y-43570000D01*
X98528000Y-43570000D02*
X97203000Y-43570000D01*
X101916000Y-43610000D02*
X100608000Y-43610000D01*
X98528000Y-43610000D02*
X97220000Y-43610000D01*
X101897000Y-43650000D02*
X100608000Y-43650000D01*
X98528000Y-43650000D02*
X97239000Y-43650000D01*
X101878000Y-43690000D02*
X100608000Y-43690000D01*
X98528000Y-43690000D02*
X97258000Y-43690000D01*
X101858000Y-43730000D02*
X100608000Y-43730000D01*
X98528000Y-43730000D02*
X97278000Y-43730000D01*
X101836000Y-43770000D02*
X100608000Y-43770000D01*
X98528000Y-43770000D02*
X97300000Y-43770000D01*
X101815000Y-43810000D02*
X100608000Y-43810000D01*
X98528000Y-43810000D02*
X97321000Y-43810000D01*
X101792000Y-43850000D02*
X100608000Y-43850000D01*
X98528000Y-43850000D02*
X97344000Y-43850000D01*
X101768000Y-43890000D02*
X100608000Y-43890000D01*
X98528000Y-43890000D02*
X97368000Y-43890000D01*
X101743000Y-43930000D02*
X100608000Y-43930000D01*
X98528000Y-43930000D02*
X97393000Y-43930000D01*
X101717000Y-43970000D02*
X100608000Y-43970000D01*
X98528000Y-43970000D02*
X97419000Y-43970000D01*
X101690000Y-44010000D02*
X100608000Y-44010000D01*
X98528000Y-44010000D02*
X97446000Y-44010000D01*
X101663000Y-44050000D02*
X100608000Y-44050000D01*
X98528000Y-44050000D02*
X97473000Y-44050000D01*
X101633000Y-44090000D02*
X100608000Y-44090000D01*
X98528000Y-44090000D02*
X97503000Y-44090000D01*
X101603000Y-44130000D02*
X100608000Y-44130000D01*
X98528000Y-44130000D02*
X97533000Y-44130000D01*
X101572000Y-44170000D02*
X100608000Y-44170000D01*
X98528000Y-44170000D02*
X97564000Y-44170000D01*
X101539000Y-44210000D02*
X100608000Y-44210000D01*
X98528000Y-44210000D02*
X97597000Y-44210000D01*
X101505000Y-44250000D02*
X100608000Y-44250000D01*
X98528000Y-44250000D02*
X97631000Y-44250000D01*
X101469000Y-44290000D02*
X100608000Y-44290000D01*
X98528000Y-44290000D02*
X97667000Y-44290000D01*
X101432000Y-44330000D02*
X100608000Y-44330000D01*
X98528000Y-44330000D02*
X97704000Y-44330000D01*
X101394000Y-44370000D02*
X100608000Y-44370000D01*
X98528000Y-44370000D02*
X97742000Y-44370000D01*
X101353000Y-44410000D02*
X100608000Y-44410000D01*
X98528000Y-44410000D02*
X97783000Y-44410000D01*
X101311000Y-44450000D02*
X100608000Y-44450000D01*
X98528000Y-44450000D02*
X97825000Y-44450000D01*
X101267000Y-44490000D02*
X100608000Y-44490000D01*
X98528000Y-44490000D02*
X97869000Y-44490000D01*
X101221000Y-44530000D02*
X100608000Y-44530000D01*
X98528000Y-44530000D02*
X97915000Y-44530000D01*
X101173000Y-44570000D02*
X97963000Y-44570000D01*
X101122000Y-44610000D02*
X98014000Y-44610000D01*
X101068000Y-44650000D02*
X98068000Y-44650000D01*
X101011000Y-44690000D02*
X98125000Y-44690000D01*
X100951000Y-44730000D02*
X98185000Y-44730000D01*
X100887000Y-44770000D02*
X98249000Y-44770000D01*
X100819000Y-44810000D02*
X98317000Y-44810000D01*
X100746000Y-44850000D02*
X98390000Y-44850000D01*
X100666000Y-44890000D02*
X98470000Y-44890000D01*
X100579000Y-44930000D02*
X98557000Y-44930000D01*
X100483000Y-44970000D02*
X98653000Y-44970000D01*
X100373000Y-45010000D02*
X98763000Y-45010000D01*
X100245000Y-45050000D02*
X98891000Y-45050000D01*
X100086000Y-45090000D02*
X99050000Y-45090000D01*
X99852000Y-45130000D02*
X99284000Y-45130000D01*
X101043000Y-39724225D02*
X101043000Y-40224225D01*
X101293000Y-39974225D02*
X100793000Y-39974225D01*
X56631500Y-45094500D02*
X56631500Y-42154500D01*
X56631500Y-42154500D02*
X51191500Y-42154500D01*
X51191500Y-42154500D02*
X51191500Y-45094500D01*
X51191500Y-45094500D02*
X56631500Y-45094500D01*
X57651500Y-43624500D02*
X56631500Y-43624500D01*
X50171500Y-43624500D02*
X51191500Y-43624500D01*
X55731500Y-45094500D02*
X55731500Y-42154500D01*
X55611500Y-45094500D02*
X55611500Y-42154500D01*
X55851500Y-45094500D02*
X55851500Y-42154500D01*
X51255000Y-46472500D02*
X51255000Y-49412500D01*
X51255000Y-49412500D02*
X56695000Y-49412500D01*
X56695000Y-49412500D02*
X56695000Y-46472500D01*
X56695000Y-46472500D02*
X51255000Y-46472500D01*
X50235000Y-47942500D02*
X51255000Y-47942500D01*
X57715000Y-47942500D02*
X56695000Y-47942500D01*
X52155000Y-46472500D02*
X52155000Y-49412500D01*
X52275000Y-46472500D02*
X52275000Y-49412500D01*
X52035000Y-46472500D02*
X52035000Y-49412500D01*
D10*
X66032142Y-42870380D02*
X65698809Y-42394190D01*
X65460714Y-42870380D02*
X65460714Y-41870380D01*
X65841666Y-41870380D01*
X65936904Y-41918000D01*
X65984523Y-41965619D01*
X66032142Y-42060857D01*
X66032142Y-42203714D01*
X65984523Y-42298952D01*
X65936904Y-42346571D01*
X65841666Y-42394190D01*
X65460714Y-42394190D01*
X66984523Y-42870380D02*
X66413095Y-42870380D01*
X66698809Y-42870380D02*
X66698809Y-41870380D01*
X66603571Y-42013238D01*
X66508333Y-42108476D01*
X66413095Y-42156095D01*
X67841666Y-42203714D02*
X67841666Y-42870380D01*
X67603571Y-41822761D02*
X67365476Y-42537047D01*
X67984523Y-42537047D01*
X81601380Y-76334857D02*
X81125190Y-76668190D01*
X81601380Y-76906285D02*
X80601380Y-76906285D01*
X80601380Y-76525333D01*
X80649000Y-76430095D01*
X80696619Y-76382476D01*
X80791857Y-76334857D01*
X80934714Y-76334857D01*
X81029952Y-76382476D01*
X81077571Y-76430095D01*
X81125190Y-76525333D01*
X81125190Y-76906285D01*
X81601380Y-75382476D02*
X81601380Y-75953904D01*
X81601380Y-75668190D02*
X80601380Y-75668190D01*
X80744238Y-75763428D01*
X80839476Y-75858666D01*
X80887095Y-75953904D01*
X80601380Y-75049142D02*
X80601380Y-74430095D01*
X80982333Y-74763428D01*
X80982333Y-74620571D01*
X81029952Y-74525333D01*
X81077571Y-74477714D01*
X81172809Y-74430095D01*
X81410904Y-74430095D01*
X81506142Y-74477714D01*
X81553761Y-74525333D01*
X81601380Y-74620571D01*
X81601380Y-74906285D01*
X81553761Y-75001523D01*
X81506142Y-75049142D01*
X143303714Y-89447666D02*
X143779904Y-89447666D01*
X143208476Y-89733380D02*
X143541809Y-88733380D01*
X143875142Y-89733380D01*
X144732285Y-89733380D02*
X144160857Y-89733380D01*
X144446571Y-89733380D02*
X144446571Y-88733380D01*
X144351333Y-88876238D01*
X144256095Y-88971476D01*
X144160857Y-89019095D01*
X119507095Y-89749380D02*
X119507095Y-90558904D01*
X119554714Y-90654142D01*
X119602333Y-90701761D01*
X119697571Y-90749380D01*
X119888047Y-90749380D01*
X119983285Y-90701761D01*
X120030904Y-90654142D01*
X120078523Y-90558904D01*
X120078523Y-89749380D01*
X120507095Y-89844619D02*
X120554714Y-89797000D01*
X120649952Y-89749380D01*
X120888047Y-89749380D01*
X120983285Y-89797000D01*
X121030904Y-89844619D01*
X121078523Y-89939857D01*
X121078523Y-90035095D01*
X121030904Y-90177952D01*
X120459476Y-90749380D01*
X121078523Y-90749380D01*
X110037714Y-70302380D02*
X110037714Y-69302380D01*
X110418666Y-69302380D01*
X110513904Y-69350000D01*
X110561523Y-69397619D01*
X110609142Y-69492857D01*
X110609142Y-69635714D01*
X110561523Y-69730952D01*
X110513904Y-69778571D01*
X110418666Y-69826190D01*
X110037714Y-69826190D01*
X110990095Y-70254761D02*
X111132952Y-70302380D01*
X111371047Y-70302380D01*
X111466285Y-70254761D01*
X111513904Y-70207142D01*
X111561523Y-70111904D01*
X111561523Y-70016666D01*
X111513904Y-69921428D01*
X111466285Y-69873809D01*
X111371047Y-69826190D01*
X111180571Y-69778571D01*
X111085333Y-69730952D01*
X111037714Y-69683333D01*
X110990095Y-69588095D01*
X110990095Y-69492857D01*
X111037714Y-69397619D01*
X111085333Y-69350000D01*
X111180571Y-69302380D01*
X111418666Y-69302380D01*
X111561523Y-69350000D01*
X112513904Y-70302380D02*
X111942476Y-70302380D01*
X112228190Y-70302380D02*
X112228190Y-69302380D01*
X112132952Y-69445238D01*
X112037714Y-69540476D01*
X111942476Y-69588095D01*
X112990333Y-45990380D02*
X112657000Y-45514190D01*
X112418904Y-45990380D02*
X112418904Y-44990380D01*
X112799857Y-44990380D01*
X112895095Y-45038000D01*
X112942714Y-45085619D01*
X112990333Y-45180857D01*
X112990333Y-45323714D01*
X112942714Y-45418952D01*
X112895095Y-45466571D01*
X112799857Y-45514190D01*
X112418904Y-45514190D01*
X113847476Y-44990380D02*
X113657000Y-44990380D01*
X113561761Y-45038000D01*
X113514142Y-45085619D01*
X113418904Y-45228476D01*
X113371285Y-45418952D01*
X113371285Y-45799904D01*
X113418904Y-45895142D01*
X113466523Y-45942761D01*
X113561761Y-45990380D01*
X113752238Y-45990380D01*
X113847476Y-45942761D01*
X113895095Y-45895142D01*
X113942714Y-45799904D01*
X113942714Y-45561809D01*
X113895095Y-45466571D01*
X113847476Y-45418952D01*
X113752238Y-45371333D01*
X113561761Y-45371333D01*
X113466523Y-45418952D01*
X113418904Y-45466571D01*
X113371285Y-45561809D01*
X112990333Y-43577380D02*
X112657000Y-43101190D01*
X112418904Y-43577380D02*
X112418904Y-42577380D01*
X112799857Y-42577380D01*
X112895095Y-42625000D01*
X112942714Y-42672619D01*
X112990333Y-42767857D01*
X112990333Y-42910714D01*
X112942714Y-43005952D01*
X112895095Y-43053571D01*
X112799857Y-43101190D01*
X112418904Y-43101190D01*
X113895095Y-42577380D02*
X113418904Y-42577380D01*
X113371285Y-43053571D01*
X113418904Y-43005952D01*
X113514142Y-42958333D01*
X113752238Y-42958333D01*
X113847476Y-43005952D01*
X113895095Y-43053571D01*
X113942714Y-43148809D01*
X113942714Y-43386904D01*
X113895095Y-43482142D01*
X113847476Y-43529761D01*
X113752238Y-43577380D01*
X113514142Y-43577380D01*
X113418904Y-43529761D01*
X113371285Y-43482142D01*
X112990333Y-41037380D02*
X112657000Y-40561190D01*
X112418904Y-41037380D02*
X112418904Y-40037380D01*
X112799857Y-40037380D01*
X112895095Y-40085000D01*
X112942714Y-40132619D01*
X112990333Y-40227857D01*
X112990333Y-40370714D01*
X112942714Y-40465952D01*
X112895095Y-40513571D01*
X112799857Y-40561190D01*
X112418904Y-40561190D01*
X113323666Y-40037380D02*
X113942714Y-40037380D01*
X113609380Y-40418333D01*
X113752238Y-40418333D01*
X113847476Y-40465952D01*
X113895095Y-40513571D01*
X113942714Y-40608809D01*
X113942714Y-40846904D01*
X113895095Y-40942142D01*
X113847476Y-40989761D01*
X113752238Y-41037380D01*
X113466523Y-41037380D01*
X113371285Y-40989761D01*
X113323666Y-40942142D01*
X112990333Y-38497380D02*
X112657000Y-38021190D01*
X112418904Y-38497380D02*
X112418904Y-37497380D01*
X112799857Y-37497380D01*
X112895095Y-37545000D01*
X112942714Y-37592619D01*
X112990333Y-37687857D01*
X112990333Y-37830714D01*
X112942714Y-37925952D01*
X112895095Y-37973571D01*
X112799857Y-38021190D01*
X112418904Y-38021190D01*
X113942714Y-38497380D02*
X113371285Y-38497380D01*
X113657000Y-38497380D02*
X113657000Y-37497380D01*
X113561761Y-37640238D01*
X113466523Y-37735476D01*
X113371285Y-37783095D01*
X105537095Y-77811380D02*
X105537095Y-78620904D01*
X105584714Y-78716142D01*
X105632333Y-78763761D01*
X105727571Y-78811380D01*
X105918047Y-78811380D01*
X106013285Y-78763761D01*
X106060904Y-78716142D01*
X106108523Y-78620904D01*
X106108523Y-77811380D01*
X107108523Y-78811380D02*
X106537095Y-78811380D01*
X106822809Y-78811380D02*
X106822809Y-77811380D01*
X106727571Y-77954238D01*
X106632333Y-78049476D01*
X106537095Y-78097095D01*
X157472142Y-40687380D02*
X157138809Y-40211190D01*
X156900714Y-40687380D02*
X156900714Y-39687380D01*
X157281666Y-39687380D01*
X157376904Y-39735000D01*
X157424523Y-39782619D01*
X157472142Y-39877857D01*
X157472142Y-40020714D01*
X157424523Y-40115952D01*
X157376904Y-40163571D01*
X157281666Y-40211190D01*
X156900714Y-40211190D01*
X157853095Y-39782619D02*
X157900714Y-39735000D01*
X157995952Y-39687380D01*
X158234047Y-39687380D01*
X158329285Y-39735000D01*
X158376904Y-39782619D01*
X158424523Y-39877857D01*
X158424523Y-39973095D01*
X158376904Y-40115952D01*
X157805476Y-40687380D01*
X158424523Y-40687380D01*
X158805476Y-39782619D02*
X158853095Y-39735000D01*
X158948333Y-39687380D01*
X159186428Y-39687380D01*
X159281666Y-39735000D01*
X159329285Y-39782619D01*
X159376904Y-39877857D01*
X159376904Y-39973095D01*
X159329285Y-40115952D01*
X158757857Y-40687380D01*
X159376904Y-40687380D01*
X157472142Y-44116380D02*
X157138809Y-43640190D01*
X156900714Y-44116380D02*
X156900714Y-43116380D01*
X157281666Y-43116380D01*
X157376904Y-43164000D01*
X157424523Y-43211619D01*
X157472142Y-43306857D01*
X157472142Y-43449714D01*
X157424523Y-43544952D01*
X157376904Y-43592571D01*
X157281666Y-43640190D01*
X156900714Y-43640190D01*
X157853095Y-43211619D02*
X157900714Y-43164000D01*
X157995952Y-43116380D01*
X158234047Y-43116380D01*
X158329285Y-43164000D01*
X158376904Y-43211619D01*
X158424523Y-43306857D01*
X158424523Y-43402095D01*
X158376904Y-43544952D01*
X157805476Y-44116380D01*
X158424523Y-44116380D01*
X159376904Y-44116380D02*
X158805476Y-44116380D01*
X159091190Y-44116380D02*
X159091190Y-43116380D01*
X158995952Y-43259238D01*
X158900714Y-43354476D01*
X158805476Y-43402095D01*
X157472142Y-47545380D02*
X157138809Y-47069190D01*
X156900714Y-47545380D02*
X156900714Y-46545380D01*
X157281666Y-46545380D01*
X157376904Y-46593000D01*
X157424523Y-46640619D01*
X157472142Y-46735857D01*
X157472142Y-46878714D01*
X157424523Y-46973952D01*
X157376904Y-47021571D01*
X157281666Y-47069190D01*
X156900714Y-47069190D01*
X157853095Y-46640619D02*
X157900714Y-46593000D01*
X157995952Y-46545380D01*
X158234047Y-46545380D01*
X158329285Y-46593000D01*
X158376904Y-46640619D01*
X158424523Y-46735857D01*
X158424523Y-46831095D01*
X158376904Y-46973952D01*
X157805476Y-47545380D01*
X158424523Y-47545380D01*
X159043571Y-46545380D02*
X159138809Y-46545380D01*
X159234047Y-46593000D01*
X159281666Y-46640619D01*
X159329285Y-46735857D01*
X159376904Y-46926333D01*
X159376904Y-47164428D01*
X159329285Y-47354904D01*
X159281666Y-47450142D01*
X159234047Y-47497761D01*
X159138809Y-47545380D01*
X159043571Y-47545380D01*
X158948333Y-47497761D01*
X158900714Y-47450142D01*
X158853095Y-47354904D01*
X158805476Y-47164428D01*
X158805476Y-46926333D01*
X158853095Y-46735857D01*
X158900714Y-46640619D01*
X158948333Y-46593000D01*
X159043571Y-46545380D01*
X157472142Y-50974380D02*
X157138809Y-50498190D01*
X156900714Y-50974380D02*
X156900714Y-49974380D01*
X157281666Y-49974380D01*
X157376904Y-50022000D01*
X157424523Y-50069619D01*
X157472142Y-50164857D01*
X157472142Y-50307714D01*
X157424523Y-50402952D01*
X157376904Y-50450571D01*
X157281666Y-50498190D01*
X156900714Y-50498190D01*
X158424523Y-50974380D02*
X157853095Y-50974380D01*
X158138809Y-50974380D02*
X158138809Y-49974380D01*
X158043571Y-50117238D01*
X157948333Y-50212476D01*
X157853095Y-50260095D01*
X158900714Y-50974380D02*
X159091190Y-50974380D01*
X159186428Y-50926761D01*
X159234047Y-50879142D01*
X159329285Y-50736285D01*
X159376904Y-50545809D01*
X159376904Y-50164857D01*
X159329285Y-50069619D01*
X159281666Y-50022000D01*
X159186428Y-49974380D01*
X158995952Y-49974380D01*
X158900714Y-50022000D01*
X158853095Y-50069619D01*
X158805476Y-50164857D01*
X158805476Y-50402952D01*
X158853095Y-50498190D01*
X158900714Y-50545809D01*
X158995952Y-50593428D01*
X159186428Y-50593428D01*
X159281666Y-50545809D01*
X159329285Y-50498190D01*
X159376904Y-50402952D01*
X157472142Y-54403380D02*
X157138809Y-53927190D01*
X156900714Y-54403380D02*
X156900714Y-53403380D01*
X157281666Y-53403380D01*
X157376904Y-53451000D01*
X157424523Y-53498619D01*
X157472142Y-53593857D01*
X157472142Y-53736714D01*
X157424523Y-53831952D01*
X157376904Y-53879571D01*
X157281666Y-53927190D01*
X156900714Y-53927190D01*
X158424523Y-54403380D02*
X157853095Y-54403380D01*
X158138809Y-54403380D02*
X158138809Y-53403380D01*
X158043571Y-53546238D01*
X157948333Y-53641476D01*
X157853095Y-53689095D01*
X158995952Y-53831952D02*
X158900714Y-53784333D01*
X158853095Y-53736714D01*
X158805476Y-53641476D01*
X158805476Y-53593857D01*
X158853095Y-53498619D01*
X158900714Y-53451000D01*
X158995952Y-53403380D01*
X159186428Y-53403380D01*
X159281666Y-53451000D01*
X159329285Y-53498619D01*
X159376904Y-53593857D01*
X159376904Y-53641476D01*
X159329285Y-53736714D01*
X159281666Y-53784333D01*
X159186428Y-53831952D01*
X158995952Y-53831952D01*
X158900714Y-53879571D01*
X158853095Y-53927190D01*
X158805476Y-54022428D01*
X158805476Y-54212904D01*
X158853095Y-54308142D01*
X158900714Y-54355761D01*
X158995952Y-54403380D01*
X159186428Y-54403380D01*
X159281666Y-54355761D01*
X159329285Y-54308142D01*
X159376904Y-54212904D01*
X159376904Y-54022428D01*
X159329285Y-53927190D01*
X159281666Y-53879571D01*
X159186428Y-53831952D01*
X157472142Y-57832380D02*
X157138809Y-57356190D01*
X156900714Y-57832380D02*
X156900714Y-56832380D01*
X157281666Y-56832380D01*
X157376904Y-56880000D01*
X157424523Y-56927619D01*
X157472142Y-57022857D01*
X157472142Y-57165714D01*
X157424523Y-57260952D01*
X157376904Y-57308571D01*
X157281666Y-57356190D01*
X156900714Y-57356190D01*
X158424523Y-57832380D02*
X157853095Y-57832380D01*
X158138809Y-57832380D02*
X158138809Y-56832380D01*
X158043571Y-56975238D01*
X157948333Y-57070476D01*
X157853095Y-57118095D01*
X158757857Y-56832380D02*
X159424523Y-56832380D01*
X158995952Y-57832380D01*
X157472142Y-61261380D02*
X157138809Y-60785190D01*
X156900714Y-61261380D02*
X156900714Y-60261380D01*
X157281666Y-60261380D01*
X157376904Y-60309000D01*
X157424523Y-60356619D01*
X157472142Y-60451857D01*
X157472142Y-60594714D01*
X157424523Y-60689952D01*
X157376904Y-60737571D01*
X157281666Y-60785190D01*
X156900714Y-60785190D01*
X158424523Y-61261380D02*
X157853095Y-61261380D01*
X158138809Y-61261380D02*
X158138809Y-60261380D01*
X158043571Y-60404238D01*
X157948333Y-60499476D01*
X157853095Y-60547095D01*
X159281666Y-60261380D02*
X159091190Y-60261380D01*
X158995952Y-60309000D01*
X158948333Y-60356619D01*
X158853095Y-60499476D01*
X158805476Y-60689952D01*
X158805476Y-61070904D01*
X158853095Y-61166142D01*
X158900714Y-61213761D01*
X158995952Y-61261380D01*
X159186428Y-61261380D01*
X159281666Y-61213761D01*
X159329285Y-61166142D01*
X159376904Y-61070904D01*
X159376904Y-60832809D01*
X159329285Y-60737571D01*
X159281666Y-60689952D01*
X159186428Y-60642333D01*
X158995952Y-60642333D01*
X158900714Y-60689952D01*
X158853095Y-60737571D01*
X158805476Y-60832809D01*
X157472142Y-64690380D02*
X157138809Y-64214190D01*
X156900714Y-64690380D02*
X156900714Y-63690380D01*
X157281666Y-63690380D01*
X157376904Y-63738000D01*
X157424523Y-63785619D01*
X157472142Y-63880857D01*
X157472142Y-64023714D01*
X157424523Y-64118952D01*
X157376904Y-64166571D01*
X157281666Y-64214190D01*
X156900714Y-64214190D01*
X158424523Y-64690380D02*
X157853095Y-64690380D01*
X158138809Y-64690380D02*
X158138809Y-63690380D01*
X158043571Y-63833238D01*
X157948333Y-63928476D01*
X157853095Y-63976095D01*
X159329285Y-63690380D02*
X158853095Y-63690380D01*
X158805476Y-64166571D01*
X158853095Y-64118952D01*
X158948333Y-64071333D01*
X159186428Y-64071333D01*
X159281666Y-64118952D01*
X159329285Y-64166571D01*
X159376904Y-64261809D01*
X159376904Y-64499904D01*
X159329285Y-64595142D01*
X159281666Y-64642761D01*
X159186428Y-64690380D01*
X158948333Y-64690380D01*
X158853095Y-64642761D01*
X158805476Y-64595142D01*
X89471380Y-55252857D02*
X88995190Y-55586190D01*
X89471380Y-55824285D02*
X88471380Y-55824285D01*
X88471380Y-55443333D01*
X88519000Y-55348095D01*
X88566619Y-55300476D01*
X88661857Y-55252857D01*
X88804714Y-55252857D01*
X88899952Y-55300476D01*
X88947571Y-55348095D01*
X88995190Y-55443333D01*
X88995190Y-55824285D01*
X89471380Y-54300476D02*
X89471380Y-54871904D01*
X89471380Y-54586190D02*
X88471380Y-54586190D01*
X88614238Y-54681428D01*
X88709476Y-54776666D01*
X88757095Y-54871904D01*
X88566619Y-53919523D02*
X88519000Y-53871904D01*
X88471380Y-53776666D01*
X88471380Y-53538571D01*
X88519000Y-53443333D01*
X88566619Y-53395714D01*
X88661857Y-53348095D01*
X88757095Y-53348095D01*
X88899952Y-53395714D01*
X89471380Y-53967142D01*
X89471380Y-53348095D01*
X95496142Y-45283380D02*
X95162809Y-44807190D01*
X94924714Y-45283380D02*
X94924714Y-44283380D01*
X95305666Y-44283380D01*
X95400904Y-44331000D01*
X95448523Y-44378619D01*
X95496142Y-44473857D01*
X95496142Y-44616714D01*
X95448523Y-44711952D01*
X95400904Y-44759571D01*
X95305666Y-44807190D01*
X94924714Y-44807190D01*
X96448523Y-45283380D02*
X95877095Y-45283380D01*
X96162809Y-45283380D02*
X96162809Y-44283380D01*
X96067571Y-44426238D01*
X95972333Y-44521476D01*
X95877095Y-44569095D01*
X97400904Y-45283380D02*
X96829476Y-45283380D01*
X97115190Y-45283380D02*
X97115190Y-44283380D01*
X97019952Y-44426238D01*
X96924714Y-44521476D01*
X96829476Y-44569095D01*
X129357380Y-83351666D02*
X128881190Y-83685000D01*
X129357380Y-83923095D02*
X128357380Y-83923095D01*
X128357380Y-83542142D01*
X128405000Y-83446904D01*
X128452619Y-83399285D01*
X128547857Y-83351666D01*
X128690714Y-83351666D01*
X128785952Y-83399285D01*
X128833571Y-83446904D01*
X128881190Y-83542142D01*
X128881190Y-83923095D01*
X128690714Y-82494523D02*
X129357380Y-82494523D01*
X128309761Y-82732619D02*
X129024047Y-82970714D01*
X129024047Y-82351666D01*
X104989333Y-92781380D02*
X104656000Y-92305190D01*
X104417904Y-92781380D02*
X104417904Y-91781380D01*
X104798857Y-91781380D01*
X104894095Y-91829000D01*
X104941714Y-91876619D01*
X104989333Y-91971857D01*
X104989333Y-92114714D01*
X104941714Y-92209952D01*
X104894095Y-92257571D01*
X104798857Y-92305190D01*
X104417904Y-92305190D01*
X105370285Y-91876619D02*
X105417904Y-91829000D01*
X105513142Y-91781380D01*
X105751238Y-91781380D01*
X105846476Y-91829000D01*
X105894095Y-91876619D01*
X105941714Y-91971857D01*
X105941714Y-92067095D01*
X105894095Y-92209952D01*
X105322666Y-92781380D01*
X105941714Y-92781380D01*
X39068476Y-82764380D02*
X39068476Y-83478666D01*
X39020857Y-83621523D01*
X38925619Y-83716761D01*
X38782761Y-83764380D01*
X38687523Y-83764380D01*
X40068476Y-83764380D02*
X39497047Y-83764380D01*
X39782761Y-83764380D02*
X39782761Y-82764380D01*
X39687523Y-82907238D01*
X39592285Y-83002476D01*
X39497047Y-83050095D01*
X41020857Y-83764380D02*
X40449428Y-83764380D01*
X40735142Y-83764380D02*
X40735142Y-82764380D01*
X40639904Y-82907238D01*
X40544666Y-83002476D01*
X40449428Y-83050095D01*
X39068476Y-59777380D02*
X39068476Y-60491666D01*
X39020857Y-60634523D01*
X38925619Y-60729761D01*
X38782761Y-60777380D01*
X38687523Y-60777380D01*
X40068476Y-60777380D02*
X39497047Y-60777380D01*
X39782761Y-60777380D02*
X39782761Y-59777380D01*
X39687523Y-59920238D01*
X39592285Y-60015476D01*
X39497047Y-60063095D01*
X40687523Y-59777380D02*
X40782761Y-59777380D01*
X40878000Y-59825000D01*
X40925619Y-59872619D01*
X40973238Y-59967857D01*
X41020857Y-60158333D01*
X41020857Y-60396428D01*
X40973238Y-60586904D01*
X40925619Y-60682142D01*
X40878000Y-60729761D01*
X40782761Y-60777380D01*
X40687523Y-60777380D01*
X40592285Y-60729761D01*
X40544666Y-60682142D01*
X40497047Y-60586904D01*
X40449428Y-60396428D01*
X40449428Y-60158333D01*
X40497047Y-59967857D01*
X40544666Y-59872619D01*
X40592285Y-59825000D01*
X40687523Y-59777380D01*
X132338142Y-82240666D02*
X132385761Y-82288285D01*
X132433380Y-82431142D01*
X132433380Y-82526380D01*
X132385761Y-82669238D01*
X132290523Y-82764476D01*
X132195285Y-82812095D01*
X132004809Y-82859714D01*
X131861952Y-82859714D01*
X131671476Y-82812095D01*
X131576238Y-82764476D01*
X131481000Y-82669238D01*
X131433380Y-82526380D01*
X131433380Y-82431142D01*
X131481000Y-82288285D01*
X131528619Y-82240666D01*
X131433380Y-81383523D02*
X131433380Y-81574000D01*
X131481000Y-81669238D01*
X131528619Y-81716857D01*
X131671476Y-81812095D01*
X131861952Y-81859714D01*
X132242904Y-81859714D01*
X132338142Y-81812095D01*
X132385761Y-81764476D01*
X132433380Y-81669238D01*
X132433380Y-81478761D01*
X132385761Y-81383523D01*
X132338142Y-81335904D01*
X132242904Y-81288285D01*
X132004809Y-81288285D01*
X131909571Y-81335904D01*
X131861952Y-81383523D01*
X131814333Y-81478761D01*
X131814333Y-81669238D01*
X131861952Y-81764476D01*
X131909571Y-81812095D01*
X132004809Y-81859714D01*
X131218333Y-72350142D02*
X131170714Y-72397761D01*
X131027857Y-72445380D01*
X130932619Y-72445380D01*
X130789761Y-72397761D01*
X130694523Y-72302523D01*
X130646904Y-72207285D01*
X130599285Y-72016809D01*
X130599285Y-71873952D01*
X130646904Y-71683476D01*
X130694523Y-71588238D01*
X130789761Y-71493000D01*
X130932619Y-71445380D01*
X131027857Y-71445380D01*
X131170714Y-71493000D01*
X131218333Y-71540619D01*
X132075476Y-71778714D02*
X132075476Y-72445380D01*
X131837380Y-71397761D02*
X131599285Y-72112047D01*
X132218333Y-72112047D01*
X39544666Y-64186380D02*
X39544666Y-64900666D01*
X39497047Y-65043523D01*
X39401809Y-65138761D01*
X39258952Y-65186380D01*
X39163714Y-65186380D01*
X39925619Y-64186380D02*
X40592285Y-64186380D01*
X40163714Y-65186380D01*
X39544666Y-54026380D02*
X39544666Y-54740666D01*
X39497047Y-54883523D01*
X39401809Y-54978761D01*
X39258952Y-55026380D01*
X39163714Y-55026380D01*
X40163714Y-54454952D02*
X40068476Y-54407333D01*
X40020857Y-54359714D01*
X39973238Y-54264476D01*
X39973238Y-54216857D01*
X40020857Y-54121619D01*
X40068476Y-54074000D01*
X40163714Y-54026380D01*
X40354190Y-54026380D01*
X40449428Y-54074000D01*
X40497047Y-54121619D01*
X40544666Y-54216857D01*
X40544666Y-54264476D01*
X40497047Y-54359714D01*
X40449428Y-54407333D01*
X40354190Y-54454952D01*
X40163714Y-54454952D01*
X40068476Y-54502571D01*
X40020857Y-54550190D01*
X39973238Y-54645428D01*
X39973238Y-54835904D01*
X40020857Y-54931142D01*
X40068476Y-54978761D01*
X40163714Y-55026380D01*
X40354190Y-55026380D01*
X40449428Y-54978761D01*
X40497047Y-54931142D01*
X40544666Y-54835904D01*
X40544666Y-54645428D01*
X40497047Y-54550190D01*
X40449428Y-54502571D01*
X40354190Y-54454952D01*
X39544666Y-76886380D02*
X39544666Y-77600666D01*
X39497047Y-77743523D01*
X39401809Y-77838761D01*
X39258952Y-77886380D01*
X39163714Y-77886380D01*
X40068476Y-77886380D02*
X40258952Y-77886380D01*
X40354190Y-77838761D01*
X40401809Y-77791142D01*
X40497047Y-77648285D01*
X40544666Y-77457809D01*
X40544666Y-77076857D01*
X40497047Y-76981619D01*
X40449428Y-76934000D01*
X40354190Y-76886380D01*
X40163714Y-76886380D01*
X40068476Y-76934000D01*
X40020857Y-76981619D01*
X39973238Y-77076857D01*
X39973238Y-77314952D01*
X40020857Y-77410190D01*
X40068476Y-77457809D01*
X40163714Y-77505428D01*
X40354190Y-77505428D01*
X40449428Y-77457809D01*
X40497047Y-77410190D01*
X40544666Y-77314952D01*
X50625595Y-83637380D02*
X50625595Y-82637380D01*
X50958928Y-83351666D01*
X51292261Y-82637380D01*
X51292261Y-83637380D01*
X51958928Y-82637380D02*
X52149404Y-82637380D01*
X52244642Y-82685000D01*
X52339880Y-82780238D01*
X52387500Y-82970714D01*
X52387500Y-83304047D01*
X52339880Y-83494523D01*
X52244642Y-83589761D01*
X52149404Y-83637380D01*
X51958928Y-83637380D01*
X51863690Y-83589761D01*
X51768452Y-83494523D01*
X51720833Y-83304047D01*
X51720833Y-82970714D01*
X51768452Y-82780238D01*
X51863690Y-82685000D01*
X51958928Y-82637380D01*
X52673214Y-82637380D02*
X53006547Y-83637380D01*
X53339880Y-82637380D01*
X54197023Y-83637380D02*
X53625595Y-83637380D01*
X53911309Y-83637380D02*
X53911309Y-82637380D01*
X53816071Y-82780238D01*
X53720833Y-82875476D01*
X53625595Y-82923095D01*
X90304880Y-68143285D02*
X89304880Y-68143285D01*
X89304880Y-67905190D01*
X89352500Y-67762333D01*
X89447738Y-67667095D01*
X89542976Y-67619476D01*
X89733452Y-67571857D01*
X89876309Y-67571857D01*
X90066785Y-67619476D01*
X90162023Y-67667095D01*
X90257261Y-67762333D01*
X90304880Y-67905190D01*
X90304880Y-68143285D01*
X90304880Y-66619476D02*
X90304880Y-67190904D01*
X90304880Y-66905190D02*
X89304880Y-66905190D01*
X89447738Y-67000428D01*
X89542976Y-67095666D01*
X89590595Y-67190904D01*
X89400119Y-66238523D02*
X89352500Y-66190904D01*
X89304880Y-66095666D01*
X89304880Y-65857571D01*
X89352500Y-65762333D01*
X89400119Y-65714714D01*
X89495357Y-65667095D01*
X89590595Y-65667095D01*
X89733452Y-65714714D01*
X90304880Y-66286142D01*
X90304880Y-65667095D01*
X94813380Y-65539904D02*
X93813380Y-65539904D01*
X94813380Y-64968476D02*
X94241952Y-65397047D01*
X93813380Y-64968476D02*
X94384809Y-65539904D01*
X81065619Y-38195238D02*
X81018000Y-38290476D01*
X80922761Y-38385714D01*
X80779904Y-38528571D01*
X80732285Y-38623809D01*
X80732285Y-38719047D01*
X80970380Y-38671428D02*
X80922761Y-38766666D01*
X80827523Y-38861904D01*
X80637047Y-38909523D01*
X80303714Y-38909523D01*
X80113238Y-38861904D01*
X80018000Y-38766666D01*
X79970380Y-38671428D01*
X79970380Y-38480952D01*
X80018000Y-38385714D01*
X80113238Y-38290476D01*
X80303714Y-38242857D01*
X80637047Y-38242857D01*
X80827523Y-38290476D01*
X80922761Y-38385714D01*
X80970380Y-38480952D01*
X80970380Y-38671428D01*
X80065619Y-37861904D02*
X80018000Y-37814285D01*
X79970380Y-37719047D01*
X79970380Y-37480952D01*
X80018000Y-37385714D01*
X80065619Y-37338095D01*
X80160857Y-37290476D01*
X80256095Y-37290476D01*
X80398952Y-37338095D01*
X80970380Y-37909523D01*
X80970380Y-37290476D01*
X92749619Y-38195238D02*
X92702000Y-38290476D01*
X92606761Y-38385714D01*
X92463904Y-38528571D01*
X92416285Y-38623809D01*
X92416285Y-38719047D01*
X92654380Y-38671428D02*
X92606761Y-38766666D01*
X92511523Y-38861904D01*
X92321047Y-38909523D01*
X91987714Y-38909523D01*
X91797238Y-38861904D01*
X91702000Y-38766666D01*
X91654380Y-38671428D01*
X91654380Y-38480952D01*
X91702000Y-38385714D01*
X91797238Y-38290476D01*
X91987714Y-38242857D01*
X92321047Y-38242857D01*
X92511523Y-38290476D01*
X92606761Y-38385714D01*
X92654380Y-38480952D01*
X92654380Y-38671428D01*
X92654380Y-37290476D02*
X92654380Y-37861904D01*
X92654380Y-37576190D02*
X91654380Y-37576190D01*
X91797238Y-37671428D01*
X91892476Y-37766666D01*
X91940095Y-37861904D01*
X100712380Y-71572285D02*
X99712380Y-71572285D01*
X99712380Y-71334190D01*
X99760000Y-71191333D01*
X99855238Y-71096095D01*
X99950476Y-71048476D01*
X100140952Y-71000857D01*
X100283809Y-71000857D01*
X100474285Y-71048476D01*
X100569523Y-71096095D01*
X100664761Y-71191333D01*
X100712380Y-71334190D01*
X100712380Y-71572285D01*
X100712380Y-70048476D02*
X100712380Y-70619904D01*
X100712380Y-70334190D02*
X99712380Y-70334190D01*
X99855238Y-70429428D01*
X99950476Y-70524666D01*
X99998095Y-70619904D01*
X100712380Y-69096095D02*
X100712380Y-69667523D01*
X100712380Y-69381809D02*
X99712380Y-69381809D01*
X99855238Y-69477047D01*
X99950476Y-69572285D01*
X99998095Y-69667523D01*
X100342380Y-65539904D02*
X99342380Y-65539904D01*
X100342380Y-64968476D02*
X99770952Y-65397047D01*
X99342380Y-64968476D02*
X99913809Y-65539904D01*
X73547380Y-51633285D02*
X72547380Y-51633285D01*
X72547380Y-51395190D01*
X72595000Y-51252333D01*
X72690238Y-51157095D01*
X72785476Y-51109476D01*
X72975952Y-51061857D01*
X73118809Y-51061857D01*
X73309285Y-51109476D01*
X73404523Y-51157095D01*
X73499761Y-51252333D01*
X73547380Y-51395190D01*
X73547380Y-51633285D01*
X73547380Y-50109476D02*
X73547380Y-50680904D01*
X73547380Y-50395190D02*
X72547380Y-50395190D01*
X72690238Y-50490428D01*
X72785476Y-50585666D01*
X72833095Y-50680904D01*
X72547380Y-49490428D02*
X72547380Y-49395190D01*
X72595000Y-49299952D01*
X72642619Y-49252333D01*
X72737857Y-49204714D01*
X72928333Y-49157095D01*
X73166428Y-49157095D01*
X73356904Y-49204714D01*
X73452142Y-49252333D01*
X73499761Y-49299952D01*
X73547380Y-49395190D01*
X73547380Y-49490428D01*
X73499761Y-49585666D01*
X73452142Y-49633285D01*
X73356904Y-49680904D01*
X73166428Y-49728523D01*
X72928333Y-49728523D01*
X72737857Y-49680904D01*
X72642619Y-49633285D01*
X72595000Y-49585666D01*
X72547380Y-49490428D01*
X74117380Y-54490904D02*
X73117380Y-54490904D01*
X74117380Y-53919476D02*
X73545952Y-54348047D01*
X73117380Y-53919476D02*
X73688809Y-54490904D01*
X77103380Y-58777095D02*
X76103380Y-58777095D01*
X76103380Y-58539000D01*
X76151000Y-58396142D01*
X76246238Y-58300904D01*
X76341476Y-58253285D01*
X76531952Y-58205666D01*
X76674809Y-58205666D01*
X76865285Y-58253285D01*
X76960523Y-58300904D01*
X77055761Y-58396142D01*
X77103380Y-58539000D01*
X77103380Y-58777095D01*
X77103380Y-57729476D02*
X77103380Y-57539000D01*
X77055761Y-57443761D01*
X77008142Y-57396142D01*
X76865285Y-57300904D01*
X76674809Y-57253285D01*
X76293857Y-57253285D01*
X76198619Y-57300904D01*
X76151000Y-57348523D01*
X76103380Y-57443761D01*
X76103380Y-57634238D01*
X76151000Y-57729476D01*
X76198619Y-57777095D01*
X76293857Y-57824714D01*
X76531952Y-57824714D01*
X76627190Y-57777095D01*
X76674809Y-57729476D01*
X76722428Y-57634238D01*
X76722428Y-57443761D01*
X76674809Y-57348523D01*
X76627190Y-57300904D01*
X76531952Y-57253285D01*
X77673380Y-62110904D02*
X76673380Y-62110904D01*
X77673380Y-61539476D02*
X77101952Y-61968047D01*
X76673380Y-61539476D02*
X77244809Y-62110904D01*
X88012380Y-61190095D02*
X87012380Y-61190095D01*
X87012380Y-60952000D01*
X87060000Y-60809142D01*
X87155238Y-60713904D01*
X87250476Y-60666285D01*
X87440952Y-60618666D01*
X87583809Y-60618666D01*
X87774285Y-60666285D01*
X87869523Y-60713904D01*
X87964761Y-60809142D01*
X88012380Y-60952000D01*
X88012380Y-61190095D01*
X87440952Y-60047238D02*
X87393333Y-60142476D01*
X87345714Y-60190095D01*
X87250476Y-60237714D01*
X87202857Y-60237714D01*
X87107619Y-60190095D01*
X87060000Y-60142476D01*
X87012380Y-60047238D01*
X87012380Y-59856761D01*
X87060000Y-59761523D01*
X87107619Y-59713904D01*
X87202857Y-59666285D01*
X87250476Y-59666285D01*
X87345714Y-59713904D01*
X87393333Y-59761523D01*
X87440952Y-59856761D01*
X87440952Y-60047238D01*
X87488571Y-60142476D01*
X87536190Y-60190095D01*
X87631428Y-60237714D01*
X87821904Y-60237714D01*
X87917142Y-60190095D01*
X87964761Y-60142476D01*
X88012380Y-60047238D01*
X88012380Y-59856761D01*
X87964761Y-59761523D01*
X87917142Y-59713904D01*
X87821904Y-59666285D01*
X87631428Y-59666285D01*
X87536190Y-59713904D01*
X87488571Y-59761523D01*
X87440952Y-59856761D01*
X87442380Y-56903904D02*
X86442380Y-56903904D01*
X87442380Y-56332476D02*
X86870952Y-56761047D01*
X86442380Y-56332476D02*
X87013809Y-56903904D01*
X88012380Y-51157095D02*
X87012380Y-51157095D01*
X87012380Y-50919000D01*
X87060000Y-50776142D01*
X87155238Y-50680904D01*
X87250476Y-50633285D01*
X87440952Y-50585666D01*
X87583809Y-50585666D01*
X87774285Y-50633285D01*
X87869523Y-50680904D01*
X87964761Y-50776142D01*
X88012380Y-50919000D01*
X88012380Y-51157095D01*
X87012380Y-50252333D02*
X87012380Y-49585666D01*
X88012380Y-50014238D01*
X87442380Y-46870904D02*
X86442380Y-46870904D01*
X87442380Y-46299476D02*
X86870952Y-46728047D01*
X86442380Y-46299476D02*
X87013809Y-46870904D01*
X69873904Y-46426380D02*
X69873904Y-45426380D01*
X70112000Y-45426380D01*
X70254857Y-45474000D01*
X70350095Y-45569238D01*
X70397714Y-45664476D01*
X70445333Y-45854952D01*
X70445333Y-45997809D01*
X70397714Y-46188285D01*
X70350095Y-46283523D01*
X70254857Y-46378761D01*
X70112000Y-46426380D01*
X69873904Y-46426380D01*
X71302476Y-45759714D02*
X71302476Y-46426380D01*
X71064380Y-45378761D02*
X70826285Y-46093047D01*
X71445333Y-46093047D01*
X129341714Y-45156380D02*
X129341714Y-44156380D01*
X129722666Y-44156380D01*
X129817904Y-44204000D01*
X129865523Y-44251619D01*
X129913142Y-44346857D01*
X129913142Y-44489714D01*
X129865523Y-44584952D01*
X129817904Y-44632571D01*
X129722666Y-44680190D01*
X129341714Y-44680190D01*
X130294095Y-45108761D02*
X130436952Y-45156380D01*
X130675047Y-45156380D01*
X130770285Y-45108761D01*
X130817904Y-45061142D01*
X130865523Y-44965904D01*
X130865523Y-44870666D01*
X130817904Y-44775428D01*
X130770285Y-44727809D01*
X130675047Y-44680190D01*
X130484571Y-44632571D01*
X130389333Y-44584952D01*
X130341714Y-44537333D01*
X130294095Y-44442095D01*
X130294095Y-44346857D01*
X130341714Y-44251619D01*
X130389333Y-44204000D01*
X130484571Y-44156380D01*
X130722666Y-44156380D01*
X130865523Y-44204000D01*
X131246476Y-44251619D02*
X131294095Y-44204000D01*
X131389333Y-44156380D01*
X131627428Y-44156380D01*
X131722666Y-44204000D01*
X131770285Y-44251619D01*
X131817904Y-44346857D01*
X131817904Y-44442095D01*
X131770285Y-44584952D01*
X131198857Y-45156380D01*
X131817904Y-45156380D01*
X93138666Y-89114380D02*
X93138666Y-89828666D01*
X93091047Y-89971523D01*
X92995809Y-90066761D01*
X92852952Y-90114380D01*
X92757714Y-90114380D01*
X93519619Y-89114380D02*
X94138666Y-89114380D01*
X93805333Y-89495333D01*
X93948190Y-89495333D01*
X94043428Y-89542952D01*
X94091047Y-89590571D01*
X94138666Y-89685809D01*
X94138666Y-89923904D01*
X94091047Y-90019142D01*
X94043428Y-90066761D01*
X93948190Y-90114380D01*
X93662476Y-90114380D01*
X93567238Y-90066761D01*
X93519619Y-90019142D01*
D13*
X171300380Y-67516333D02*
X172014666Y-67516333D01*
X172157523Y-67563952D01*
X172252761Y-67659190D01*
X172300380Y-67802047D01*
X172300380Y-67897285D01*
X171633714Y-66611571D02*
X172300380Y-66611571D01*
X171252761Y-66849666D02*
X171967047Y-67087761D01*
X171967047Y-66468714D01*
D10*
X87526904Y-46553380D02*
X87526904Y-45553380D01*
X87765000Y-45553380D01*
X87907857Y-45601000D01*
X88003095Y-45696238D01*
X88050714Y-45791476D01*
X88098333Y-45981952D01*
X88098333Y-46124809D01*
X88050714Y-46315285D01*
X88003095Y-46410523D01*
X87907857Y-46505761D01*
X87765000Y-46553380D01*
X87526904Y-46553380D01*
X88431666Y-45553380D02*
X89050714Y-45553380D01*
X88717380Y-45934333D01*
X88860238Y-45934333D01*
X88955476Y-45981952D01*
X89003095Y-46029571D01*
X89050714Y-46124809D01*
X89050714Y-46362904D01*
X89003095Y-46458142D01*
X88955476Y-46505761D01*
X88860238Y-46553380D01*
X88574523Y-46553380D01*
X88479285Y-46505761D01*
X88431666Y-46458142D01*
X44180285Y-42568880D02*
X44751714Y-42568880D01*
X44466000Y-43568880D02*
X44466000Y-42568880D01*
X45085047Y-43568880D02*
X45085047Y-42568880D01*
X45085047Y-43045071D02*
X45656476Y-43045071D01*
X45656476Y-43568880D02*
X45656476Y-42568880D01*
X46656476Y-43568880D02*
X46085047Y-43568880D01*
X46370761Y-43568880D02*
X46370761Y-42568880D01*
X46275523Y-42711738D01*
X46180285Y-42806976D01*
X46085047Y-42854595D01*
X56792833Y-86209142D02*
X56745214Y-86256761D01*
X56602357Y-86304380D01*
X56507119Y-86304380D01*
X56364261Y-86256761D01*
X56269023Y-86161523D01*
X56221404Y-86066285D01*
X56173785Y-85875809D01*
X56173785Y-85732952D01*
X56221404Y-85542476D01*
X56269023Y-85447238D01*
X56364261Y-85352000D01*
X56507119Y-85304380D01*
X56602357Y-85304380D01*
X56745214Y-85352000D01*
X56792833Y-85399619D01*
X57745214Y-86304380D02*
X57173785Y-86304380D01*
X57459500Y-86304380D02*
X57459500Y-85304380D01*
X57364261Y-85447238D01*
X57269023Y-85542476D01*
X57173785Y-85590095D01*
X57237333Y-67413142D02*
X57189714Y-67460761D01*
X57046857Y-67508380D01*
X56951619Y-67508380D01*
X56808761Y-67460761D01*
X56713523Y-67365523D01*
X56665904Y-67270285D01*
X56618285Y-67079809D01*
X56618285Y-66936952D01*
X56665904Y-66746476D01*
X56713523Y-66651238D01*
X56808761Y-66556000D01*
X56951619Y-66508380D01*
X57046857Y-66508380D01*
X57189714Y-66556000D01*
X57237333Y-66603619D01*
X57618285Y-66603619D02*
X57665904Y-66556000D01*
X57761142Y-66508380D01*
X57999238Y-66508380D01*
X58094476Y-66556000D01*
X58142095Y-66603619D01*
X58189714Y-66698857D01*
X58189714Y-66794095D01*
X58142095Y-66936952D01*
X57570666Y-67508380D01*
X58189714Y-67508380D01*
X104989333Y-39473142D02*
X104941714Y-39520761D01*
X104798857Y-39568380D01*
X104703619Y-39568380D01*
X104560761Y-39520761D01*
X104465523Y-39425523D01*
X104417904Y-39330285D01*
X104370285Y-39139809D01*
X104370285Y-38996952D01*
X104417904Y-38806476D01*
X104465523Y-38711238D01*
X104560761Y-38616000D01*
X104703619Y-38568380D01*
X104798857Y-38568380D01*
X104941714Y-38616000D01*
X104989333Y-38663619D01*
X105322666Y-38568380D02*
X105989333Y-38568380D01*
X105560761Y-39568380D01*
X99401333Y-39473142D02*
X99353714Y-39520761D01*
X99210857Y-39568380D01*
X99115619Y-39568380D01*
X98972761Y-39520761D01*
X98877523Y-39425523D01*
X98829904Y-39330285D01*
X98782285Y-39139809D01*
X98782285Y-38996952D01*
X98829904Y-38806476D01*
X98877523Y-38711238D01*
X98972761Y-38616000D01*
X99115619Y-38568380D01*
X99210857Y-38568380D01*
X99353714Y-38616000D01*
X99401333Y-38663619D01*
X99972761Y-38996952D02*
X99877523Y-38949333D01*
X99829904Y-38901714D01*
X99782285Y-38806476D01*
X99782285Y-38758857D01*
X99829904Y-38663619D01*
X99877523Y-38616000D01*
X99972761Y-38568380D01*
X100163238Y-38568380D01*
X100258476Y-38616000D01*
X100306095Y-38663619D01*
X100353714Y-38758857D01*
X100353714Y-38806476D01*
X100306095Y-38901714D01*
X100258476Y-38949333D01*
X100163238Y-38996952D01*
X99972761Y-38996952D01*
X99877523Y-39044571D01*
X99829904Y-39092190D01*
X99782285Y-39187428D01*
X99782285Y-39377904D01*
X99829904Y-39473142D01*
X99877523Y-39520761D01*
X99972761Y-39568380D01*
X100163238Y-39568380D01*
X100258476Y-39520761D01*
X100306095Y-39473142D01*
X100353714Y-39377904D01*
X100353714Y-39187428D01*
X100306095Y-39092190D01*
X100258476Y-39044571D01*
X100163238Y-38996952D01*
X60602904Y-44140380D02*
X60602904Y-43140380D01*
X60841000Y-43140380D01*
X60983857Y-43188000D01*
X61079095Y-43283238D01*
X61126714Y-43378476D01*
X61174333Y-43568952D01*
X61174333Y-43711809D01*
X61126714Y-43902285D01*
X61079095Y-43997523D01*
X60983857Y-44092761D01*
X60841000Y-44140380D01*
X60602904Y-44140380D01*
X62126714Y-44140380D02*
X61555285Y-44140380D01*
X61841000Y-44140380D02*
X61841000Y-43140380D01*
X61745761Y-43283238D01*
X61650523Y-43378476D01*
X61555285Y-43426095D01*
X58729595Y-46176880D02*
X58729595Y-45176880D01*
X59301023Y-46176880D02*
X58872452Y-45605452D01*
X59301023Y-45176880D02*
X58729595Y-45748309D01*
X60729904Y-48458380D02*
X60729904Y-47458380D01*
X60968000Y-47458380D01*
X61110857Y-47506000D01*
X61206095Y-47601238D01*
X61253714Y-47696476D01*
X61301333Y-47886952D01*
X61301333Y-48029809D01*
X61253714Y-48220285D01*
X61206095Y-48315523D01*
X61110857Y-48410761D01*
X60968000Y-48458380D01*
X60729904Y-48458380D01*
X61682285Y-47553619D02*
X61729904Y-47506000D01*
X61825142Y-47458380D01*
X62063238Y-47458380D01*
X62158476Y-47506000D01*
X62206095Y-47553619D01*
X62253714Y-47648857D01*
X62253714Y-47744095D01*
X62206095Y-47886952D01*
X61634666Y-48458380D01*
X62253714Y-48458380D01*
X48633095Y-46294880D02*
X48633095Y-45294880D01*
X49204523Y-46294880D02*
X48775952Y-45723452D01*
X49204523Y-45294880D02*
X48633095Y-45866309D01*
M02*
