G04 #@! TF.GenerationSoftware,KiCad,Pcbnew,5.1.5-52549c5~84~ubuntu18.04.1*
G04 #@! TF.CreationDate,2020-02-27T12:45:17+01:00*
G04 #@! TF.ProjectId,VFD,5646442e-6b69-4636-9164-5f7063625858,rev?*
G04 #@! TF.SameCoordinates,Original*
G04 #@! TF.FileFunction,Soldermask,Bot*
G04 #@! TF.FilePolarity,Negative*
%FSLAX46Y46*%
G04 Gerber Fmt 4.6, Leading zero omitted, Abs format (unit mm)*
G04 Created by KiCad (PCBNEW 5.1.5-52549c5~84~ubuntu18.04.1) date 2020-02-27 12:45:17*
%MOMM*%
%LPD*%
G04 APERTURE LIST*
%ADD10C,0.150000*%
%ADD11O,2.800000X2.800000*%
%ADD12C,2.800000*%
%ADD13O,2.000000X2.000000*%
%ADD14R,2.000000X2.000000*%
%ADD15R,2.000000X2.400000*%
%ADD16O,1.900000X2.700000*%
%ADD17R,1.900000X2.700000*%
%ADD18C,2.000000*%
%ADD19C,3.100000*%
%ADD20C,2.400000*%
%ADD21R,1.710000X1.050000*%
%ADD22R,1.710000X1.000000*%
%ADD23O,2.600000X2.600000*%
%ADD24R,2.600000X2.600000*%
%ADD25R,1.600000X1.300000*%
%ADD26O,2.200000X2.200000*%
%ADD27R,2.200000X2.200000*%
%ADD28R,2.900000X2.400000*%
%ADD29C,2.700000*%
%ADD30R,2.700000X2.400000*%
%ADD31C,1.300000*%
%ADD32C,8.400000*%
%ADD33C,0.100000*%
%ADD34C,1.250000*%
%ADD35R,1.250000X1.250000*%
%ADD36R,2.100000X1.520000*%
%ADD37O,2.100000X1.520000*%
%ADD38C,1.900000*%
%ADD39R,2.800000X2.800000*%
G04 APERTURE END LIST*
D10*
X173990000Y-93472000D02*
X36322000Y-93472000D01*
X173990000Y-34798000D02*
X173990000Y-93472000D01*
X36322000Y-93472000D02*
X36322000Y-34798000D01*
X36322000Y-34798000D02*
X173990000Y-34798000D01*
D11*
X47371000Y-38290500D03*
D12*
X67691000Y-38290500D03*
D11*
X77089000Y-85852000D03*
D12*
X77089000Y-65532000D03*
D13*
X136398000Y-48641000D03*
X151638000Y-48641000D03*
X136398000Y-84201000D03*
X151638000Y-51181000D03*
X136398000Y-81661000D03*
X151638000Y-53721000D03*
X136398000Y-79121000D03*
X151638000Y-56261000D03*
X136398000Y-76581000D03*
X151638000Y-58801000D03*
X136398000Y-74041000D03*
X151638000Y-61341000D03*
X136398000Y-71501000D03*
X151638000Y-63881000D03*
X136398000Y-68961000D03*
X151638000Y-66421000D03*
X136398000Y-66421000D03*
X151638000Y-68961000D03*
X136398000Y-63881000D03*
X151638000Y-71501000D03*
X136398000Y-61341000D03*
X151638000Y-74041000D03*
X136398000Y-58801000D03*
X151638000Y-76581000D03*
X136398000Y-56261000D03*
X151638000Y-79121000D03*
X136398000Y-53721000D03*
X151638000Y-81661000D03*
X136398000Y-51181000D03*
D14*
X151638000Y-84201000D03*
D15*
X107061000Y-82709000D03*
X107061000Y-86709000D03*
D16*
X114935000Y-70675500D03*
X117475000Y-70675500D03*
X120015000Y-70675500D03*
D17*
X122555000Y-70675500D03*
D13*
X104648000Y-88138000D03*
X112268000Y-80518000D03*
X104648000Y-85598000D03*
X112268000Y-83058000D03*
X104648000Y-83058000D03*
X112268000Y-85598000D03*
X104648000Y-80518000D03*
D14*
X112268000Y-88138000D03*
D13*
X161925000Y-42545000D03*
D18*
X154305000Y-42545000D03*
D13*
X161925000Y-45974000D03*
D18*
X154305000Y-45974000D03*
D13*
X161925000Y-49403000D03*
D18*
X154305000Y-49403000D03*
D13*
X161925000Y-52832000D03*
D18*
X154305000Y-52832000D03*
D13*
X161925000Y-56261000D03*
D18*
X154305000Y-56261000D03*
D13*
X161925000Y-59690000D03*
D18*
X154305000Y-59690000D03*
D13*
X161925000Y-63119000D03*
D18*
X154305000Y-63119000D03*
D13*
X161925000Y-66548000D03*
D18*
X154305000Y-66548000D03*
D11*
X92329000Y-46990000D03*
D12*
X92329000Y-62230000D03*
D11*
X97790000Y-46990000D03*
D12*
X97790000Y-62230000D03*
D13*
X126492000Y-77914500D03*
D18*
X126492000Y-85534500D03*
D13*
X107188000Y-91440000D03*
D18*
X114808000Y-91440000D03*
D19*
X44958000Y-80264000D03*
X39878000Y-80264000D03*
X44958000Y-57277000D03*
X39878000Y-57277000D03*
D15*
X124968000Y-44037000D03*
X124968000Y-40037000D03*
X124968000Y-51276000D03*
X124968000Y-47276000D03*
X111506000Y-52673000D03*
X111506000Y-48673000D03*
X111506000Y-45180000D03*
X111506000Y-41180000D03*
D18*
X127635000Y-72993000D03*
D14*
X127635000Y-70993000D03*
D19*
X44958000Y-62484000D03*
X39878000Y-62484000D03*
X44958000Y-52324000D03*
X39878000Y-52324000D03*
X44958000Y-75184000D03*
X39878000Y-75184000D03*
D20*
X52133500Y-75200500D03*
X52133500Y-80200500D03*
D21*
X122682000Y-40068500D03*
X122682000Y-41338500D03*
X122682000Y-42608500D03*
D22*
X122682000Y-43878500D03*
D21*
X113792000Y-43878500D03*
X113792000Y-42608500D03*
X113792000Y-41338500D03*
X113792000Y-40068500D03*
X122682000Y-47307500D03*
X122682000Y-48577500D03*
X122682000Y-49847500D03*
D22*
X122682000Y-51117500D03*
D21*
X113792000Y-51117500D03*
X113792000Y-49847500D03*
X113792000Y-48577500D03*
X113792000Y-47307500D03*
D23*
X92329000Y-75438000D03*
D24*
X92329000Y-65278000D03*
D25*
X109220000Y-52323000D03*
X109220000Y-49023000D03*
D26*
X77216000Y-38100000D03*
X74676000Y-38100000D03*
D27*
X72136000Y-38100000D03*
D26*
X88900000Y-38100000D03*
X86360000Y-38100000D03*
D27*
X83820000Y-38100000D03*
D28*
X78740000Y-46133000D03*
X78740000Y-50133000D03*
X82296000Y-50133000D03*
X82296000Y-46133000D03*
D23*
X97790000Y-75438000D03*
D24*
X97790000Y-65278000D03*
D26*
X75565000Y-46609000D03*
D27*
X75565000Y-54229000D03*
D26*
X79121000Y-54229000D03*
D27*
X79121000Y-61849000D03*
D26*
X85090000Y-64262000D03*
D27*
X85090000Y-56642000D03*
D26*
X85090000Y-54229000D03*
D27*
X85090000Y-46609000D03*
D26*
X77216000Y-43180000D03*
D27*
X72136000Y-43180000D03*
D29*
X131632000Y-49276000D03*
D30*
X103632000Y-49276000D03*
D29*
X103632000Y-64476000D03*
X131632000Y-56876000D03*
D31*
X171285320Y-37502680D03*
X169164000Y-36624000D03*
X167042680Y-37502680D03*
X166164000Y-39624000D03*
X167042680Y-41745320D03*
X169164000Y-42624000D03*
X171285320Y-41745320D03*
X172164000Y-39624000D03*
D32*
X169164000Y-39624000D03*
D33*
G36*
X119020112Y-63185602D02*
G01*
X119038534Y-63185602D01*
X119058140Y-63186565D01*
X119106971Y-63191375D01*
X119126380Y-63194254D01*
X119174505Y-63203826D01*
X119193548Y-63208596D01*
X119240503Y-63222840D01*
X119258980Y-63229451D01*
X119304313Y-63248228D01*
X119322061Y-63256623D01*
X119365334Y-63279754D01*
X119382162Y-63289840D01*
X119422961Y-63317100D01*
X119438730Y-63328795D01*
X119476659Y-63359923D01*
X119491200Y-63373103D01*
X119525897Y-63407800D01*
X119539077Y-63422341D01*
X119570205Y-63460270D01*
X119581900Y-63476039D01*
X119609160Y-63516838D01*
X119619246Y-63533666D01*
X119642377Y-63576939D01*
X119650772Y-63594687D01*
X119669549Y-63640020D01*
X119676160Y-63658497D01*
X119690404Y-63705452D01*
X119695174Y-63724495D01*
X119704746Y-63772620D01*
X119707625Y-63792029D01*
X119712435Y-63840860D01*
X119713398Y-63860466D01*
X119713398Y-63878888D01*
X119714000Y-63885000D01*
X119714000Y-64385000D01*
X119713398Y-64391112D01*
X119713398Y-64409534D01*
X119712435Y-64429140D01*
X119707625Y-64477971D01*
X119704746Y-64497380D01*
X119695174Y-64545505D01*
X119690404Y-64564548D01*
X119676160Y-64611503D01*
X119669549Y-64629980D01*
X119650772Y-64675313D01*
X119642377Y-64693061D01*
X119619246Y-64736334D01*
X119609160Y-64753162D01*
X119581900Y-64793961D01*
X119570205Y-64809730D01*
X119539077Y-64847659D01*
X119525897Y-64862200D01*
X119491200Y-64896897D01*
X119476659Y-64910077D01*
X119438730Y-64941205D01*
X119422961Y-64952900D01*
X119382162Y-64980160D01*
X119365334Y-64990246D01*
X119322061Y-65013377D01*
X119304313Y-65021772D01*
X119258980Y-65040549D01*
X119240503Y-65047160D01*
X119193548Y-65061404D01*
X119174505Y-65066174D01*
X119126380Y-65075746D01*
X119106971Y-65078625D01*
X119058140Y-65083435D01*
X119038534Y-65084398D01*
X119020112Y-65084398D01*
X119014000Y-65085000D01*
X118514000Y-65085000D01*
X118474982Y-65081157D01*
X118437463Y-65069776D01*
X118402886Y-65051294D01*
X118372579Y-65026421D01*
X118347706Y-64996114D01*
X118329224Y-64961537D01*
X118317843Y-64924018D01*
X118314000Y-64885000D01*
X118314000Y-63385000D01*
X118317843Y-63345982D01*
X118329224Y-63308463D01*
X118347706Y-63273886D01*
X118372579Y-63243579D01*
X118402886Y-63218706D01*
X118437463Y-63200224D01*
X118474982Y-63188843D01*
X118514000Y-63185000D01*
X119014000Y-63185000D01*
X119020112Y-63185602D01*
G37*
G36*
X118253018Y-63188843D02*
G01*
X118290537Y-63200224D01*
X118325114Y-63218706D01*
X118355421Y-63243579D01*
X118380294Y-63273886D01*
X118398776Y-63308463D01*
X118410157Y-63345982D01*
X118414000Y-63385000D01*
X118414000Y-64885000D01*
X118410157Y-64924018D01*
X118398776Y-64961537D01*
X118380294Y-64996114D01*
X118355421Y-65026421D01*
X118325114Y-65051294D01*
X118290537Y-65069776D01*
X118253018Y-65081157D01*
X118214000Y-65085000D01*
X117714000Y-65085000D01*
X117707888Y-65084398D01*
X117689466Y-65084398D01*
X117669860Y-65083435D01*
X117621029Y-65078625D01*
X117601620Y-65075746D01*
X117553495Y-65066174D01*
X117534452Y-65061404D01*
X117487497Y-65047160D01*
X117469020Y-65040549D01*
X117423687Y-65021772D01*
X117405939Y-65013377D01*
X117362666Y-64990246D01*
X117345838Y-64980160D01*
X117305039Y-64952900D01*
X117289270Y-64941205D01*
X117251341Y-64910077D01*
X117236800Y-64896897D01*
X117202103Y-64862200D01*
X117188923Y-64847659D01*
X117157795Y-64809730D01*
X117146100Y-64793961D01*
X117118840Y-64753162D01*
X117108754Y-64736334D01*
X117085623Y-64693061D01*
X117077228Y-64675313D01*
X117058451Y-64629980D01*
X117051840Y-64611503D01*
X117037596Y-64564548D01*
X117032826Y-64545505D01*
X117023254Y-64497380D01*
X117020375Y-64477971D01*
X117015565Y-64429140D01*
X117014602Y-64409534D01*
X117014602Y-64391112D01*
X117014000Y-64385000D01*
X117014000Y-63885000D01*
X117014602Y-63878888D01*
X117014602Y-63860466D01*
X117015565Y-63840860D01*
X117020375Y-63792029D01*
X117023254Y-63772620D01*
X117032826Y-63724495D01*
X117037596Y-63705452D01*
X117051840Y-63658497D01*
X117058451Y-63640020D01*
X117077228Y-63594687D01*
X117085623Y-63576939D01*
X117108754Y-63533666D01*
X117118840Y-63516838D01*
X117146100Y-63476039D01*
X117157795Y-63460270D01*
X117188923Y-63422341D01*
X117202103Y-63407800D01*
X117236800Y-63373103D01*
X117251341Y-63359923D01*
X117289270Y-63328795D01*
X117305039Y-63317100D01*
X117345838Y-63289840D01*
X117362666Y-63279754D01*
X117405939Y-63256623D01*
X117423687Y-63248228D01*
X117469020Y-63229451D01*
X117487497Y-63222840D01*
X117534452Y-63208596D01*
X117553495Y-63203826D01*
X117601620Y-63194254D01*
X117621029Y-63191375D01*
X117669860Y-63186565D01*
X117689466Y-63185602D01*
X117707888Y-63185602D01*
X117714000Y-63185000D01*
X118214000Y-63185000D01*
X118253018Y-63188843D01*
G37*
D34*
X99020000Y-90932000D03*
X97770000Y-90932000D03*
D35*
X96520000Y-90932000D03*
D36*
X169418000Y-77978000D03*
D37*
X166878000Y-76708000D03*
X169418000Y-75438000D03*
X166878000Y-74168000D03*
X169418000Y-72898000D03*
X166878000Y-71628000D03*
X169418000Y-70358000D03*
X166878000Y-69088000D03*
X169418000Y-67818000D03*
X166878000Y-66548000D03*
X169418000Y-65278000D03*
X166878000Y-64008000D03*
X169418000Y-62738000D03*
X166878000Y-61468000D03*
X169418000Y-60198000D03*
X166878000Y-58928000D03*
X169418000Y-57658000D03*
X166878000Y-56388000D03*
D38*
X167618000Y-78743000D03*
D26*
X88900000Y-43180000D03*
D27*
X83820000Y-43180000D03*
D31*
X171285320Y-86524680D03*
X169164000Y-85646000D03*
X167042680Y-86524680D03*
X166164000Y-88646000D03*
X167042680Y-90767320D03*
X169164000Y-91646000D03*
X171285320Y-90767320D03*
X172164000Y-88646000D03*
D32*
X169164000Y-88646000D03*
D31*
X43015320Y-37248680D03*
X40894000Y-36370000D03*
X38772680Y-37248680D03*
X37894000Y-39370000D03*
X38772680Y-41491320D03*
X40894000Y-42370000D03*
X43015320Y-41491320D03*
X43894000Y-39370000D03*
D32*
X40894000Y-39370000D03*
D31*
X43269320Y-87032680D03*
X41148000Y-86154000D03*
X39026680Y-87032680D03*
X38148000Y-89154000D03*
X39026680Y-91275320D03*
X41148000Y-92154000D03*
X43269320Y-91275320D03*
X44148000Y-89154000D03*
D32*
X41148000Y-89154000D03*
D20*
X39386500Y-46672500D03*
X44386500Y-46672500D03*
D39*
X64262000Y-82613500D03*
D12*
X64262000Y-75113500D03*
D39*
X64008000Y-63119000D03*
D12*
X64008000Y-55619000D03*
D14*
X105156000Y-41529000D03*
D18*
X105156000Y-43529000D03*
D14*
X99568000Y-41529000D03*
D18*
X99568000Y-43529000D03*
D24*
X58991500Y-43624500D03*
D23*
X48831500Y-43624500D03*
D24*
X48895000Y-47942500D03*
D23*
X59055000Y-47942500D03*
D25*
X109220000Y-44830000D03*
X109220000Y-41530000D03*
M02*
