M48
; DRILL file {KiCad 5.1.5-52549c5~84~ubuntu18.04.1} date Thu 27 Feb 2020 10:51:27 PM CET
; FORMAT={3:3/ absolute / metric / suppress leading zeros}
; #@! TF.CreationDate,2020-02-27T22:51:27+01:00
; #@! TF.GenerationSoftware,Kicad,Pcbnew,5.1.5-52549c5~84~ubuntu18.04.1
; #@! TF.FileFunction,Plated,1,2,PTH
FMAT,2
METRIC,TZ
T1C0.400
T2C0.500
T3C0.600
T4C0.760
T5C0.800
T6C0.900
T7C1.000
T8C1.100
T9C1.200
T10C1.450
T11C4.000
%
G90
G05
T1
X76962Y-69850
X85598Y-60706
X87350Y-68326
X90678Y-68326
X94539Y-40691
X97460Y-39599
X99187Y-88265
X106807Y-35560
X107972Y-40730
X110363Y-84201
X111569Y-91313
X113792Y-46025
X115037Y-42951
X115062Y-40513
X115087Y-37948
X115253Y-77026
X123012Y-44983
X126055Y-41548
X126055Y-42399
X126746Y-48787
X126746Y-49637
X129032Y-79502
X133858Y-40132
X142748Y-52324
X142748Y-57404
X142748Y-60198
X142748Y-62992
X143320Y-87693
X147574Y-62611
X147574Y-65151
X147574Y-67818
X147711Y-60071
X150114Y-42418
X150241Y-60071
X150241Y-62611
X150241Y-65151
X150241Y-67818
X154435Y-70101
X155448Y-69088
X157099Y-66548
X157226Y-63182
X157290Y-70358
X157607Y-72771
X158306Y-75438
X159278Y-70358
X159903Y-72898
X160528Y-75438
X161925Y-77724
X163449Y-60833
X164089Y-60353
X164719Y-59817
T2
X96520Y-90932
X97770Y-90932
X99020Y-90932
T3
X38148Y-89154
X39027Y-87033
X39027Y-91275
X41148Y-86154
X41148Y-92154
X43269Y-87033
X43269Y-91275
X44148Y-89154
X37894Y-39370
X38773Y-37249
X38773Y-41491
X40894Y-36370
X40894Y-42370
X43015Y-37249
X43015Y-41491
X43894Y-39370
X166164Y-39624
X167043Y-37503
X167043Y-41745
X169164Y-36624
X169164Y-42624
X171285Y-37503
X171285Y-41745
X172164Y-39624
X166164Y-88646
X167043Y-86525
X167043Y-90767
X169164Y-85646
X169164Y-91646
X171285Y-86525
X171285Y-90767
X172164Y-88646
T4
X131632Y-49276
X131632Y-56876
T5
X154305Y-59690
X161925Y-59690
X154305Y-42545
X161925Y-42545
X105156Y-41529
X105156Y-43529
X154305Y-49403
X161925Y-49403
X166878Y-56388
X166878Y-58928
X166878Y-61468
X166878Y-64008
X166878Y-66548
X166878Y-69088
X166878Y-71628
X166878Y-74168
X166878Y-76708
X169418Y-57658
X169418Y-60198
X169418Y-62738
X169418Y-65278
X169418Y-67818
X169418Y-70358
X169418Y-72898
X169418Y-75438
X169418Y-77978
X154305Y-45974
X161925Y-45974
X136398Y-48641
X136398Y-51181
X136398Y-53721
X136398Y-56261
X136398Y-58801
X136398Y-61341
X136398Y-63881
X136398Y-66421
X136398Y-68961
X136398Y-71501
X136398Y-74041
X136398Y-76581
X136398Y-79121
X136398Y-81661
X136398Y-84201
X151638Y-48641
X151638Y-51181
X151638Y-53721
X151638Y-56261
X151638Y-58801
X151638Y-61341
X151638Y-63881
X151638Y-66421
X151638Y-68961
X151638Y-71501
X151638Y-74041
X151638Y-76581
X151638Y-79121
X151638Y-81661
X151638Y-84201
X127635Y-70993
X127635Y-72993
X154305Y-56261
X161925Y-56261
X103632Y-49276
X103632Y-64476
X154305Y-52832
X161925Y-52832
X99568Y-41529
X99568Y-43529
X104648Y-80518
X104648Y-83058
X104648Y-85598
X104648Y-88138
X112268Y-80518
X112268Y-83058
X112268Y-85598
X112268Y-88138
X126492Y-77914
X126492Y-85534
X154305Y-63119
X161925Y-63119
X154305Y-66548
X161925Y-66548
X107188Y-91440
X114808Y-91440
T6
X85090Y-56642
X85090Y-64262
X85090Y-54229
X79121Y-54229
X79121Y-61849
X75565Y-46609
X75565Y-54229
X85090Y-46609
T7
X72136Y-38100
X74676Y-38100
X77216Y-38100
X83820Y-38100
X86360Y-38100
X88900Y-38100
X39387Y-46673
X44387Y-46673
X52134Y-75201
X52134Y-80201
X114935Y-70676
X117475Y-70676
X120015Y-70676
X122555Y-70676
X83820Y-43180
X88900Y-43180
X72136Y-43180
X77216Y-43180
T8
X48832Y-43625
X58992Y-43625
X92329Y-65278
X92329Y-75438
X97790Y-65278
X97790Y-75438
X48895Y-47943
X59055Y-47943
T9
X47371Y-38291
X67691Y-38291
X77089Y-65532
X77089Y-85852
X97790Y-46990
X97790Y-62230
X64008Y-55619
X64008Y-63119
X64262Y-75114
X64262Y-82614
X92329Y-46990
X92329Y-62230
T10
X39878Y-57277
X44958Y-57277
X39878Y-52324
X44958Y-52324
X39878Y-62484
X44958Y-62484
X39878Y-80264
X44958Y-80264
X39878Y-75184
X44958Y-75184
T11
X169164Y-88646
X41148Y-89154
X40894Y-39370
X169164Y-39624
T0
M30
