M48
; DRILL file {KiCad 5.1.5-52549c5~84~ubuntu18.04.1} date Fri 17 Jan 2020 10:37:01 PM CET
; FORMAT={3:3/ absolute / metric / suppress leading zeros}
; #@! TF.CreationDate,2020-01-17T22:37:01+01:00
; #@! TF.GenerationSoftware,Kicad,Pcbnew,5.1.5-52549c5~84~ubuntu18.04.1
; #@! TF.FileFunction,Plated,1,2,PTH
FMAT,2
METRIC,TZ
T1C0.400
T2C0.500
T3C0.600
T4C0.760
T5C0.800
T6C1.000
T7C1.100
T8C1.200
T9C1.450
T10C4.000
%
G90
G05
T1
X69152Y-76644
X79629Y-51372
X79693Y-45847
X80772Y-46736
X80772Y-48514
X80772Y-50292
X81100Y-76274
X82042Y-46736
X82042Y-48514
X82042Y-50292
X82360Y-71057
X83312Y-46736
X83312Y-48514
X83312Y-50292
X84000Y-79174
X84328Y-51181
X84519Y-45783
X88328Y-60643
X89281Y-45847
X89281Y-51244
X90170Y-46990
X90170Y-48514
X90170Y-50038
X91694Y-46990
X91694Y-48514
X91694Y-50038
X93218Y-46990
X93218Y-48514
X93218Y-50038
X94107Y-45847
X94107Y-51308
X97957Y-51308
X102044Y-75184
X108204Y-83185
X111569Y-91313
X115253Y-77026
X117285Y-54102
X117602Y-40069
X122428Y-42045
X122682Y-37846
X123952Y-41402
X129032Y-79502
X133858Y-40132
X142748Y-52324
X142748Y-57404
X142748Y-60198
X142748Y-62992
X143320Y-87693
X147574Y-62611
X147574Y-65151
X147574Y-67818
X147711Y-60071
X148209Y-46990
X148209Y-49403
X149098Y-49276
X149164Y-46802
X150114Y-42418
X150241Y-60071
X150241Y-62611
X150241Y-65151
X150241Y-67818
X154435Y-70101
X155448Y-69088
X157099Y-66548
X157226Y-63182
X157290Y-70358
X157607Y-72771
X158306Y-75438
X159278Y-70358
X159903Y-72898
X160528Y-75438
X161925Y-77724
X163449Y-60833
X164089Y-60353
X164719Y-59817
T2
X96520Y-90932
X97770Y-90932
X99020Y-90932
T3
X166164Y-88646
X167043Y-86525
X167043Y-90767
X169164Y-85646
X169164Y-91646
X171285Y-86525
X171285Y-90767
X172164Y-88646
X38148Y-89154
X39027Y-87033
X39027Y-91275
X41148Y-86154
X41148Y-92154
X43269Y-87033
X43269Y-91275
X44148Y-89154
X37894Y-39370
X38773Y-37249
X38773Y-41491
X40894Y-36370
X40894Y-42370
X43015Y-37249
X43015Y-41491
X43894Y-39370
X166164Y-39624
X167043Y-37503
X167043Y-41745
X169164Y-36624
X169164Y-42624
X171285Y-37503
X171285Y-41745
X172164Y-39624
T4
X131632Y-49276
X131632Y-56876
T5
X154305Y-42545
X161925Y-42545
X154305Y-52832
X161925Y-52832
X154305Y-49403
X161925Y-49403
X126492Y-77914
X126492Y-85534
X154305Y-56261
X161925Y-56261
X114808Y-40132
X122428Y-40132
X104648Y-80518
X104648Y-83058
X104648Y-85598
X104648Y-88138
X112268Y-80518
X112268Y-83058
X112268Y-85598
X112268Y-88138
X103632Y-49276
X103632Y-64476
X108014Y-75288
X108014Y-77788
X154305Y-63119
X161925Y-63119
X126492Y-70612
X126492Y-73112
X79742Y-55447
X82042Y-55447
X84342Y-55447
X133350Y-81828
X133350Y-84328
X97282Y-56134
X97282Y-63754
X110998Y-70168
X110998Y-77788
X136398Y-48641
X136398Y-51181
X136398Y-53721
X136398Y-56261
X136398Y-58801
X136398Y-61341
X136398Y-63881
X136398Y-66421
X136398Y-68961
X136398Y-71501
X136398Y-74041
X136398Y-76581
X136398Y-79121
X136398Y-81661
X136398Y-84201
X151638Y-48641
X151638Y-51181
X151638Y-53721
X151638Y-56261
X151638Y-58801
X151638Y-61341
X151638Y-63881
X151638Y-66421
X151638Y-68961
X151638Y-71501
X151638Y-74041
X151638Y-76581
X151638Y-79121
X151638Y-81661
X151638Y-84201
X80772Y-64516
X82772Y-64516
X166878Y-56388
X166878Y-58928
X166878Y-61468
X166878Y-64008
X166878Y-66548
X166878Y-69088
X166878Y-71628
X166878Y-74168
X166878Y-76708
X169418Y-57658
X169418Y-60198
X169418Y-62738
X169418Y-65278
X169418Y-67818
X169418Y-70358
X169418Y-72898
X169418Y-75438
X169418Y-77978
X107188Y-91440
X114808Y-91440
X154305Y-59690
X161925Y-59690
X154305Y-66548
X161925Y-66548
X73025Y-52674
X73025Y-54674
X97282Y-45720
X97282Y-53340
X154305Y-45974
X161925Y-45974
X114808Y-43942
X122428Y-43942
X89394Y-55447
X91694Y-55447
X93994Y-55447
T6
X114935Y-70676
X117475Y-70676
X120015Y-70676
X122555Y-70676
X70612Y-48133
X75692Y-48133
X85598Y-58928
X90678Y-58928
X45038Y-47244
X50038Y-47244
T7
X53848Y-45657
X64008Y-45657
X53848Y-50546
X64008Y-50546
T8
X64008Y-77082
X64008Y-84582
X64008Y-58286
X64008Y-65786
X97028Y-68072
X97028Y-83312
X76200Y-61722
X76200Y-76962
X90678Y-63246
X90678Y-83566
X53784Y-38291
X74105Y-38291
T9
X39878Y-62484
X44958Y-62484
X39878Y-52324
X44958Y-52324
X39878Y-75184
X44958Y-75184
X39878Y-57404
X44958Y-57404
X39878Y-80264
X44958Y-80264
T10
X40894Y-39370
X169164Y-39624
X169164Y-88646
X41148Y-89154
T0
M30
