G04 #@! TF.GenerationSoftware,KiCad,Pcbnew,5.1.5-52549c5~84~ubuntu18.04.1*
G04 #@! TF.CreationDate,2020-01-17T22:37:04+01:00*
G04 #@! TF.ProjectId,VFD,5646442e-6b69-4636-9164-5f7063625858,rev?*
G04 #@! TF.SameCoordinates,Original*
G04 #@! TF.FileFunction,Soldermask,Bot*
G04 #@! TF.FilePolarity,Negative*
%FSLAX46Y46*%
G04 Gerber Fmt 4.6, Leading zero omitted, Abs format (unit mm)*
G04 Created by KiCad (PCBNEW 5.1.5-52549c5~84~ubuntu18.04.1) date 2020-01-17 22:37:04*
%MOMM*%
%LPD*%
G04 APERTURE LIST*
%ADD10C,0.150000*%
%ADD11O,2.200000X2.200000*%
%ADD12R,2.200000X2.200000*%
%ADD13C,2.700000*%
%ADD14R,2.700000X2.400000*%
%ADD15C,1.300000*%
%ADD16C,8.400000*%
%ADD17O,2.000000X2.000000*%
%ADD18C,2.000000*%
%ADD19C,3.100000*%
%ADD20C,0.100000*%
%ADD21C,1.250000*%
%ADD22R,1.250000X1.250000*%
%ADD23R,2.000000X2.000000*%
%ADD24O,1.900000X2.700000*%
%ADD25R,1.900000X2.700000*%
%ADD26R,2.100000X1.520000*%
%ADD27O,2.100000X1.520000*%
%ADD28C,1.900000*%
%ADD29O,1.800000X1.800000*%
%ADD30R,1.800000X1.800000*%
%ADD31O,2.800000X2.800000*%
%ADD32C,2.800000*%
%ADD33C,2.400000*%
%ADD34R,2.800000X2.800000*%
%ADD35R,2.600000X2.600000*%
%ADD36O,2.600000X2.600000*%
G04 APERTURE END LIST*
D10*
X173990000Y-93472000D02*
X36322000Y-93472000D01*
X173990000Y-34798000D02*
X173990000Y-93472000D01*
X36322000Y-93472000D02*
X36322000Y-34798000D01*
X36322000Y-34798000D02*
X173990000Y-34798000D01*
D11*
X70612000Y-48133000D03*
D12*
X75692000Y-48133000D03*
D13*
X131632000Y-49276000D03*
D14*
X103632000Y-49276000D03*
D13*
X103632000Y-64476000D03*
X131632000Y-56876000D03*
D15*
X171285320Y-37502680D03*
X169164000Y-36624000D03*
X167042680Y-37502680D03*
X166164000Y-39624000D03*
X167042680Y-41745320D03*
X169164000Y-42624000D03*
X171285320Y-41745320D03*
X172164000Y-39624000D03*
D16*
X169164000Y-39624000D03*
D17*
X107188000Y-91440000D03*
D18*
X114808000Y-91440000D03*
D17*
X161925000Y-49403000D03*
D18*
X154305000Y-49403000D03*
D17*
X161925000Y-52832000D03*
D18*
X154305000Y-52832000D03*
D17*
X161925000Y-45974000D03*
D18*
X154305000Y-45974000D03*
D17*
X161925000Y-42545000D03*
D18*
X154305000Y-42545000D03*
D19*
X44958000Y-75184000D03*
X39878000Y-75184000D03*
X44958000Y-57404000D03*
X39878000Y-57404000D03*
D20*
G36*
X119020112Y-53152602D02*
G01*
X119038534Y-53152602D01*
X119058140Y-53153565D01*
X119106971Y-53158375D01*
X119126380Y-53161254D01*
X119174505Y-53170826D01*
X119193548Y-53175596D01*
X119240503Y-53189840D01*
X119258980Y-53196451D01*
X119304313Y-53215228D01*
X119322061Y-53223623D01*
X119365334Y-53246754D01*
X119382162Y-53256840D01*
X119422961Y-53284100D01*
X119438730Y-53295795D01*
X119476659Y-53326923D01*
X119491200Y-53340103D01*
X119525897Y-53374800D01*
X119539077Y-53389341D01*
X119570205Y-53427270D01*
X119581900Y-53443039D01*
X119609160Y-53483838D01*
X119619246Y-53500666D01*
X119642377Y-53543939D01*
X119650772Y-53561687D01*
X119669549Y-53607020D01*
X119676160Y-53625497D01*
X119690404Y-53672452D01*
X119695174Y-53691495D01*
X119704746Y-53739620D01*
X119707625Y-53759029D01*
X119712435Y-53807860D01*
X119713398Y-53827466D01*
X119713398Y-53845888D01*
X119714000Y-53852000D01*
X119714000Y-54352000D01*
X119713398Y-54358112D01*
X119713398Y-54376534D01*
X119712435Y-54396140D01*
X119707625Y-54444971D01*
X119704746Y-54464380D01*
X119695174Y-54512505D01*
X119690404Y-54531548D01*
X119676160Y-54578503D01*
X119669549Y-54596980D01*
X119650772Y-54642313D01*
X119642377Y-54660061D01*
X119619246Y-54703334D01*
X119609160Y-54720162D01*
X119581900Y-54760961D01*
X119570205Y-54776730D01*
X119539077Y-54814659D01*
X119525897Y-54829200D01*
X119491200Y-54863897D01*
X119476659Y-54877077D01*
X119438730Y-54908205D01*
X119422961Y-54919900D01*
X119382162Y-54947160D01*
X119365334Y-54957246D01*
X119322061Y-54980377D01*
X119304313Y-54988772D01*
X119258980Y-55007549D01*
X119240503Y-55014160D01*
X119193548Y-55028404D01*
X119174505Y-55033174D01*
X119126380Y-55042746D01*
X119106971Y-55045625D01*
X119058140Y-55050435D01*
X119038534Y-55051398D01*
X119020112Y-55051398D01*
X119014000Y-55052000D01*
X118514000Y-55052000D01*
X118474982Y-55048157D01*
X118437463Y-55036776D01*
X118402886Y-55018294D01*
X118372579Y-54993421D01*
X118347706Y-54963114D01*
X118329224Y-54928537D01*
X118317843Y-54891018D01*
X118314000Y-54852000D01*
X118314000Y-53352000D01*
X118317843Y-53312982D01*
X118329224Y-53275463D01*
X118347706Y-53240886D01*
X118372579Y-53210579D01*
X118402886Y-53185706D01*
X118437463Y-53167224D01*
X118474982Y-53155843D01*
X118514000Y-53152000D01*
X119014000Y-53152000D01*
X119020112Y-53152602D01*
G37*
G36*
X118253018Y-53155843D02*
G01*
X118290537Y-53167224D01*
X118325114Y-53185706D01*
X118355421Y-53210579D01*
X118380294Y-53240886D01*
X118398776Y-53275463D01*
X118410157Y-53312982D01*
X118414000Y-53352000D01*
X118414000Y-54852000D01*
X118410157Y-54891018D01*
X118398776Y-54928537D01*
X118380294Y-54963114D01*
X118355421Y-54993421D01*
X118325114Y-55018294D01*
X118290537Y-55036776D01*
X118253018Y-55048157D01*
X118214000Y-55052000D01*
X117714000Y-55052000D01*
X117707888Y-55051398D01*
X117689466Y-55051398D01*
X117669860Y-55050435D01*
X117621029Y-55045625D01*
X117601620Y-55042746D01*
X117553495Y-55033174D01*
X117534452Y-55028404D01*
X117487497Y-55014160D01*
X117469020Y-55007549D01*
X117423687Y-54988772D01*
X117405939Y-54980377D01*
X117362666Y-54957246D01*
X117345838Y-54947160D01*
X117305039Y-54919900D01*
X117289270Y-54908205D01*
X117251341Y-54877077D01*
X117236800Y-54863897D01*
X117202103Y-54829200D01*
X117188923Y-54814659D01*
X117157795Y-54776730D01*
X117146100Y-54760961D01*
X117118840Y-54720162D01*
X117108754Y-54703334D01*
X117085623Y-54660061D01*
X117077228Y-54642313D01*
X117058451Y-54596980D01*
X117051840Y-54578503D01*
X117037596Y-54531548D01*
X117032826Y-54512505D01*
X117023254Y-54464380D01*
X117020375Y-54444971D01*
X117015565Y-54396140D01*
X117014602Y-54376534D01*
X117014602Y-54358112D01*
X117014000Y-54352000D01*
X117014000Y-53852000D01*
X117014602Y-53845888D01*
X117014602Y-53827466D01*
X117015565Y-53807860D01*
X117020375Y-53759029D01*
X117023254Y-53739620D01*
X117032826Y-53691495D01*
X117037596Y-53672452D01*
X117051840Y-53625497D01*
X117058451Y-53607020D01*
X117077228Y-53561687D01*
X117085623Y-53543939D01*
X117108754Y-53500666D01*
X117118840Y-53483838D01*
X117146100Y-53443039D01*
X117157795Y-53427270D01*
X117188923Y-53389341D01*
X117202103Y-53374800D01*
X117236800Y-53340103D01*
X117251341Y-53326923D01*
X117289270Y-53295795D01*
X117305039Y-53284100D01*
X117345838Y-53256840D01*
X117362666Y-53246754D01*
X117405939Y-53223623D01*
X117423687Y-53215228D01*
X117469020Y-53196451D01*
X117487497Y-53189840D01*
X117534452Y-53175596D01*
X117553495Y-53170826D01*
X117601620Y-53161254D01*
X117621029Y-53158375D01*
X117669860Y-53153565D01*
X117689466Y-53152602D01*
X117707888Y-53152602D01*
X117714000Y-53152000D01*
X118214000Y-53152000D01*
X118253018Y-53155843D01*
G37*
D21*
X99020000Y-90932000D03*
X97770000Y-90932000D03*
D22*
X96520000Y-90932000D03*
D17*
X161925000Y-56261000D03*
D18*
X154305000Y-56261000D03*
D17*
X136398000Y-48641000D03*
X151638000Y-48641000D03*
X136398000Y-84201000D03*
X151638000Y-51181000D03*
X136398000Y-81661000D03*
X151638000Y-53721000D03*
X136398000Y-79121000D03*
X151638000Y-56261000D03*
X136398000Y-76581000D03*
X151638000Y-58801000D03*
X136398000Y-74041000D03*
X151638000Y-61341000D03*
X136398000Y-71501000D03*
X151638000Y-63881000D03*
X136398000Y-68961000D03*
X151638000Y-66421000D03*
X136398000Y-66421000D03*
X151638000Y-68961000D03*
X136398000Y-63881000D03*
X151638000Y-71501000D03*
X136398000Y-61341000D03*
X151638000Y-74041000D03*
X136398000Y-58801000D03*
X151638000Y-76581000D03*
X136398000Y-56261000D03*
X151638000Y-79121000D03*
X136398000Y-53721000D03*
X151638000Y-81661000D03*
X136398000Y-51181000D03*
D23*
X151638000Y-84201000D03*
D17*
X161925000Y-59690000D03*
D18*
X154305000Y-59690000D03*
D24*
X114935000Y-70675500D03*
X117475000Y-70675500D03*
X120015000Y-70675500D03*
D25*
X122555000Y-70675500D03*
D26*
X169418000Y-77978000D03*
D27*
X166878000Y-76708000D03*
X169418000Y-75438000D03*
X166878000Y-74168000D03*
X169418000Y-72898000D03*
X166878000Y-71628000D03*
X169418000Y-70358000D03*
X166878000Y-69088000D03*
X169418000Y-67818000D03*
X166878000Y-66548000D03*
X169418000Y-65278000D03*
X166878000Y-64008000D03*
X169418000Y-62738000D03*
X166878000Y-61468000D03*
X169418000Y-60198000D03*
X166878000Y-58928000D03*
X169418000Y-57658000D03*
X166878000Y-56388000D03*
D28*
X167618000Y-78743000D03*
D11*
X85598000Y-58928000D03*
D12*
X90678000Y-58928000D03*
D29*
X93994000Y-55447333D03*
X91694000Y-55447333D03*
D30*
X89394000Y-55447333D03*
D17*
X110998000Y-70167500D03*
D18*
X110998000Y-77787500D03*
D17*
X97282000Y-45720000D03*
D18*
X97282000Y-53340000D03*
D17*
X126492000Y-77914500D03*
D18*
X126492000Y-85534500D03*
D17*
X97282000Y-63754000D03*
D18*
X97282000Y-56134000D03*
D17*
X114808000Y-43942000D03*
D18*
X122428000Y-43942000D03*
D17*
X114808000Y-40132000D03*
D18*
X122428000Y-40132000D03*
D31*
X97028000Y-68072000D03*
D32*
X97028000Y-83312000D03*
D31*
X76200000Y-76962000D03*
D32*
X76200000Y-61722000D03*
D31*
X90678000Y-83566000D03*
D32*
X90678000Y-63246000D03*
D31*
X53784500Y-38290500D03*
D32*
X74104500Y-38290500D03*
D15*
X171285320Y-86524680D03*
X169164000Y-85646000D03*
X167042680Y-86524680D03*
X166164000Y-88646000D03*
X167042680Y-90767320D03*
X169164000Y-91646000D03*
X171285320Y-90767320D03*
X172164000Y-88646000D03*
D16*
X169164000Y-88646000D03*
D15*
X43015320Y-37248680D03*
X40894000Y-36370000D03*
X38772680Y-37248680D03*
X37894000Y-39370000D03*
X38772680Y-41491320D03*
X40894000Y-42370000D03*
X43015320Y-41491320D03*
X43894000Y-39370000D03*
D16*
X40894000Y-39370000D03*
D15*
X43269320Y-87032680D03*
X41148000Y-86154000D03*
X39026680Y-87032680D03*
X38148000Y-89154000D03*
X39026680Y-91275320D03*
X41148000Y-92154000D03*
X43269320Y-91275320D03*
X44148000Y-89154000D03*
D16*
X41148000Y-89154000D03*
D33*
X45038000Y-47244000D03*
X50038000Y-47244000D03*
D34*
X64008000Y-84582000D03*
D32*
X64008000Y-77082000D03*
D34*
X64008000Y-65786000D03*
D32*
X64008000Y-58286000D03*
D18*
X108013500Y-77787500D03*
X108013500Y-75287500D03*
X126492000Y-70612000D03*
X126492000Y-73112000D03*
X133350000Y-84328000D03*
X133350000Y-81828000D03*
D23*
X80772000Y-64516000D03*
D18*
X82772000Y-64516000D03*
D23*
X73025000Y-54673500D03*
D18*
X73025000Y-52673500D03*
D35*
X64008000Y-45656500D03*
D36*
X53848000Y-45656500D03*
D35*
X53848000Y-50546000D03*
D36*
X64008000Y-50546000D03*
D19*
X44958000Y-62484000D03*
X39878000Y-62484000D03*
X44958000Y-80264000D03*
X39878000Y-80264000D03*
D17*
X104648000Y-88138000D03*
X112268000Y-80518000D03*
X104648000Y-85598000D03*
X112268000Y-83058000D03*
X104648000Y-83058000D03*
X112268000Y-85598000D03*
X104648000Y-80518000D03*
D23*
X112268000Y-88138000D03*
D19*
X44958000Y-52324000D03*
X39878000Y-52324000D03*
D17*
X161925000Y-63119000D03*
D18*
X154305000Y-63119000D03*
D17*
X161925000Y-66548000D03*
D18*
X154305000Y-66548000D03*
D29*
X84342000Y-55447333D03*
X82042000Y-55447333D03*
D30*
X79742000Y-55447333D03*
M02*
