G04 #@! TF.GenerationSoftware,KiCad,Pcbnew,5.1.5-52549c5~84~ubuntu18.04.1*
G04 #@! TF.CreationDate,2020-01-17T22:37:04+01:00*
G04 #@! TF.ProjectId,VFD,5646442e-6b69-4636-9164-5f7063625858,rev?*
G04 #@! TF.SameCoordinates,Original*
G04 #@! TF.FileFunction,Soldermask,Top*
G04 #@! TF.FilePolarity,Negative*
%FSLAX46Y46*%
G04 Gerber Fmt 4.6, Leading zero omitted, Abs format (unit mm)*
G04 Created by KiCad (PCBNEW 5.1.5-52549c5~84~ubuntu18.04.1) date 2020-01-17 22:37:04*
%MOMM*%
%LPD*%
G04 APERTURE LIST*
%ADD10C,0.150000*%
%ADD11O,2.200000X2.200000*%
%ADD12R,2.200000X2.200000*%
%ADD13C,2.700000*%
%ADD14R,2.700000X2.400000*%
%ADD15C,1.300000*%
%ADD16C,8.400000*%
%ADD17O,2.000000X2.000000*%
%ADD18C,2.000000*%
%ADD19R,1.600000X1.300000*%
%ADD20R,2.400000X1.040000*%
%ADD21C,3.100000*%
%ADD22C,1.250000*%
%ADD23R,1.250000X1.250000*%
%ADD24R,2.000000X2.000000*%
%ADD25O,1.900000X2.700000*%
%ADD26R,1.900000X2.700000*%
%ADD27R,2.100000X1.520000*%
%ADD28O,2.100000X1.520000*%
%ADD29C,1.900000*%
%ADD30O,1.800000X1.800000*%
%ADD31R,1.800000X1.800000*%
%ADD32R,6.100000X6.600000*%
%ADD33O,2.800000X2.800000*%
%ADD34C,2.800000*%
%ADD35C,2.400000*%
%ADD36R,2.800000X2.800000*%
%ADD37R,2.600000X2.600000*%
%ADD38O,2.600000X2.600000*%
%ADD39R,1.300000X1.600000*%
%ADD40R,2.400000X2.180000*%
G04 APERTURE END LIST*
D10*
X173990000Y-93472000D02*
X36322000Y-93472000D01*
X173990000Y-34798000D02*
X173990000Y-93472000D01*
X36322000Y-93472000D02*
X36322000Y-34798000D01*
X36322000Y-34798000D02*
X173990000Y-34798000D01*
D11*
X70612000Y-48133000D03*
D12*
X75692000Y-48133000D03*
D13*
X131632000Y-49276000D03*
D14*
X103632000Y-49276000D03*
D13*
X103632000Y-64476000D03*
X131632000Y-56876000D03*
D15*
X171285320Y-37502680D03*
X169164000Y-36624000D03*
X167042680Y-37502680D03*
X166164000Y-39624000D03*
X167042680Y-41745320D03*
X169164000Y-42624000D03*
X171285320Y-41745320D03*
X172164000Y-39624000D03*
D16*
X169164000Y-39624000D03*
D17*
X107188000Y-91440000D03*
D18*
X114808000Y-91440000D03*
D19*
X76962000Y-51690000D03*
X76962000Y-54990000D03*
D17*
X161925000Y-49403000D03*
D18*
X154305000Y-49403000D03*
D17*
X161925000Y-52832000D03*
D18*
X154305000Y-52832000D03*
D17*
X161925000Y-45974000D03*
D18*
X154305000Y-45974000D03*
D17*
X161925000Y-42545000D03*
D18*
X154305000Y-42545000D03*
D20*
X112052500Y-40132000D03*
X112052500Y-38862000D03*
X112052500Y-37592000D03*
X105752500Y-37592000D03*
X105752500Y-38862000D03*
X105752500Y-40132000D03*
D21*
X44958000Y-75184000D03*
X39878000Y-75184000D03*
X44958000Y-57404000D03*
X39878000Y-57404000D03*
D20*
X111989000Y-44450000D03*
X111989000Y-43180000D03*
X111989000Y-41910000D03*
X105689000Y-41910000D03*
X105689000Y-43180000D03*
X105689000Y-44450000D03*
D22*
X99020000Y-90932000D03*
X97770000Y-90932000D03*
D23*
X96520000Y-90932000D03*
D17*
X161925000Y-56261000D03*
D18*
X154305000Y-56261000D03*
D17*
X136398000Y-48641000D03*
X151638000Y-48641000D03*
X136398000Y-84201000D03*
X151638000Y-51181000D03*
X136398000Y-81661000D03*
X151638000Y-53721000D03*
X136398000Y-79121000D03*
X151638000Y-56261000D03*
X136398000Y-76581000D03*
X151638000Y-58801000D03*
X136398000Y-74041000D03*
X151638000Y-61341000D03*
X136398000Y-71501000D03*
X151638000Y-63881000D03*
X136398000Y-68961000D03*
X151638000Y-66421000D03*
X136398000Y-66421000D03*
X151638000Y-68961000D03*
X136398000Y-63881000D03*
X151638000Y-71501000D03*
X136398000Y-61341000D03*
X151638000Y-74041000D03*
X136398000Y-58801000D03*
X151638000Y-76581000D03*
X136398000Y-56261000D03*
X151638000Y-79121000D03*
X136398000Y-53721000D03*
X151638000Y-81661000D03*
X136398000Y-51181000D03*
D24*
X151638000Y-84201000D03*
D17*
X161925000Y-59690000D03*
D18*
X154305000Y-59690000D03*
D25*
X114935000Y-70675500D03*
X117475000Y-70675500D03*
X120015000Y-70675500D03*
D26*
X122555000Y-70675500D03*
D27*
X169418000Y-77978000D03*
D28*
X166878000Y-76708000D03*
X169418000Y-75438000D03*
X166878000Y-74168000D03*
X169418000Y-72898000D03*
X166878000Y-71628000D03*
X169418000Y-70358000D03*
X166878000Y-69088000D03*
X169418000Y-67818000D03*
X166878000Y-66548000D03*
X169418000Y-65278000D03*
X166878000Y-64008000D03*
X169418000Y-62738000D03*
X166878000Y-61468000D03*
X169418000Y-60198000D03*
X166878000Y-58928000D03*
X169418000Y-57658000D03*
X166878000Y-56388000D03*
D29*
X167618000Y-78743000D03*
D11*
X85598000Y-58928000D03*
D12*
X90678000Y-58928000D03*
D30*
X93994000Y-55447333D03*
X91694000Y-55447333D03*
D31*
X89394000Y-55447333D03*
D32*
X91694000Y-48514000D03*
D17*
X110998000Y-70167500D03*
D18*
X110998000Y-77787500D03*
D17*
X97282000Y-45720000D03*
D18*
X97282000Y-53340000D03*
D17*
X126492000Y-77914500D03*
D18*
X126492000Y-85534500D03*
D17*
X97282000Y-63754000D03*
D18*
X97282000Y-56134000D03*
D17*
X114808000Y-43942000D03*
D18*
X122428000Y-43942000D03*
D17*
X114808000Y-40132000D03*
D18*
X122428000Y-40132000D03*
D33*
X97028000Y-68072000D03*
D34*
X97028000Y-83312000D03*
D33*
X76200000Y-76962000D03*
D34*
X76200000Y-61722000D03*
D33*
X90678000Y-83566000D03*
D34*
X90678000Y-63246000D03*
D33*
X53784500Y-38290500D03*
D34*
X74104500Y-38290500D03*
D15*
X171285320Y-86524680D03*
X169164000Y-85646000D03*
X167042680Y-86524680D03*
X166164000Y-88646000D03*
X167042680Y-90767320D03*
X169164000Y-91646000D03*
X171285320Y-90767320D03*
X172164000Y-88646000D03*
D16*
X169164000Y-88646000D03*
D15*
X43015320Y-37248680D03*
X40894000Y-36370000D03*
X38772680Y-37248680D03*
X37894000Y-39370000D03*
X38772680Y-41491320D03*
X40894000Y-42370000D03*
X43015320Y-41491320D03*
X43894000Y-39370000D03*
D16*
X40894000Y-39370000D03*
D15*
X43269320Y-87032680D03*
X41148000Y-86154000D03*
X39026680Y-87032680D03*
X38148000Y-89154000D03*
X39026680Y-91275320D03*
X41148000Y-92154000D03*
X43269320Y-91275320D03*
X44148000Y-89154000D03*
D16*
X41148000Y-89154000D03*
D35*
X45038000Y-47244000D03*
X50038000Y-47244000D03*
D36*
X64008000Y-84582000D03*
D34*
X64008000Y-77082000D03*
D36*
X64008000Y-65786000D03*
D34*
X64008000Y-58286000D03*
D18*
X108013500Y-77787500D03*
X108013500Y-75287500D03*
X126492000Y-70612000D03*
X126492000Y-73112000D03*
X133350000Y-84328000D03*
X133350000Y-81828000D03*
D24*
X80772000Y-64516000D03*
D18*
X82772000Y-64516000D03*
D24*
X73025000Y-54673500D03*
D18*
X73025000Y-52673500D03*
D37*
X64008000Y-45656500D03*
D38*
X53848000Y-45656500D03*
D37*
X53848000Y-50546000D03*
D38*
X64008000Y-50546000D03*
D39*
X83438000Y-68834000D03*
X80138000Y-68834000D03*
D21*
X44958000Y-62484000D03*
X39878000Y-62484000D03*
X44958000Y-80264000D03*
X39878000Y-80264000D03*
D17*
X104648000Y-88138000D03*
X112268000Y-80518000D03*
X104648000Y-85598000D03*
X112268000Y-83058000D03*
X104648000Y-83058000D03*
X112268000Y-85598000D03*
X104648000Y-80518000D03*
D24*
X112268000Y-88138000D03*
D21*
X44958000Y-52324000D03*
X39878000Y-52324000D03*
D17*
X161925000Y-63119000D03*
D18*
X154305000Y-63119000D03*
D17*
X161925000Y-66548000D03*
D18*
X154305000Y-66548000D03*
D30*
X84342000Y-55447333D03*
X82042000Y-55447333D03*
D31*
X79742000Y-55447333D03*
D32*
X82042000Y-48514000D03*
D40*
X122555000Y-80518000D03*
X114935000Y-88138000D03*
X122555000Y-83058000D03*
X114935000Y-85598000D03*
X122555000Y-85598000D03*
X114935000Y-83058000D03*
X122555000Y-88138000D03*
X114935000Y-80518000D03*
M02*
